# Blender 4.0.2
# www.blender.org
o GrassCorner00
v 0.308715 -0.498326 -0.470378
v 0.470378 -0.498326 -0.308714
v 0.389440 -0.498326 -0.448780
v 0.448781 -0.498326 -0.389440
v 0.470378 0.255703 -0.308714
v 0.308715 0.255703 -0.470378
v 0.389440 0.386298 -0.308715
v 0.308715 0.386298 -0.389440
v 0.386024 0.366737 -0.386024
v 0.448781 0.255703 -0.389440
v 0.448781 0.330970 -0.308714
v 0.427801 0.327785 -0.386024
v 0.308715 0.330970 -0.448780
v 0.389440 0.255703 -0.448780
v 0.386024 0.327785 -0.427801
v 0.229369 0.406435 -0.308714
v 0.308715 0.406435 -0.229369
v 0.269042 0.406435 -0.298084
v 0.298084 0.406435 -0.269042
v 0.229369 0.427693 -0.308714
v 0.229369 0.501673 -0.229369
v 0.308715 0.427693 -0.229369
v 0.229369 0.464635 -0.298114
v 0.268990 0.427693 -0.298114
v 0.267313 0.463071 -0.287817
v 0.268990 0.491790 -0.229369
v 0.229369 0.491790 -0.268990
v 0.267313 0.482189 -0.267313
v 0.298114 0.427693 -0.268990
v 0.298114 0.464635 -0.229369
v 0.287818 0.463071 -0.267313
v 0.470378 0.026007 -0.308714
v 0.448781 0.026007 -0.389440
v 0.389440 -0.070280 -0.448780
v 0.470378 -0.070280 -0.308714
v 0.389440 0.026007 -0.448780
v 0.308715 -0.070280 -0.470378
v 0.308715 0.026007 -0.470378
v 0.448781 -0.070280 -0.389440
v 0.500000 -0.046208 -0.335103
v 0.500000 0.001936 -0.335103
v 0.417444 0.001936 -0.477970
v 0.417444 -0.046208 -0.477970
v 0.335103 -0.046208 -0.500000
v 0.335103 0.001936 -0.500000
v 0.477971 0.001936 -0.417444
v 0.477971 -0.046208 -0.417444
v -0.253969 0.435002 -0.280689
v -0.165528 0.408604 -0.415827
v -0.239504 0.401330 -0.276876
v -0.204583 0.387383 -0.267671
v -0.169662 0.401330 -0.258465
v -0.155197 0.435002 -0.254652
v -0.169662 0.468673 -0.258465
v -0.204583 0.482621 -0.267671
v -0.239504 0.468673 -0.276876
v -0.295606 0.435002 -0.255608
v -0.272191 0.408604 -0.415407
v -0.280879 0.401330 -0.258231
v -0.245325 0.387383 -0.264563
v -0.209771 0.401330 -0.270896
v -0.195043 0.435002 -0.273519
v -0.209771 0.468673 -0.270896
v -0.245325 0.482621 -0.264563
v -0.280879 0.468673 -0.258231
v 0.277075 0.435002 -0.052452
v 0.430292 0.408604 -0.001380
v 0.277075 0.401330 -0.037493
v 0.277075 0.387383 -0.001380
v 0.277075 0.401330 0.034734
v 0.277075 0.435002 0.049693
v 0.277075 0.468673 0.034734
v 0.277075 0.482621 -0.001380
v 0.277075 0.468673 -0.037493
v 0.242209 0.435002 -0.086321
v 0.402698 0.408604 -0.104412
v 0.248499 0.401330 -0.072749
v 0.263685 0.387383 -0.039983
v 0.278871 0.401330 -0.007218
v 0.285161 0.435002 0.006354
v 0.278871 0.468673 -0.007218
v 0.263685 0.482621 -0.039983
v 0.248499 0.468673 -0.072749
v 0.281731 0.435002 0.318645
v 0.407151 0.408604 0.420398
v 0.276463 0.401330 0.332646
v 0.263747 0.387383 0.366447
v 0.251030 0.401330 0.400248
v 0.245763 0.435002 0.414248
v 0.251030 0.468673 0.400248
v 0.263747 0.482621 0.366447
v 0.276463 0.468673 0.332646
v 0.261024 0.435002 0.274668
v 0.417605 0.408604 0.314248
v 0.262132 0.401330 0.289586
v 0.264808 0.387383 0.325601
v 0.267484 0.401330 0.361615
v 0.268592 0.435002 0.376533
v 0.267484 0.468673 0.361615
v 0.264808 0.482621 0.325601
v 0.262132 0.468673 0.289586
v -0.500000 0.500000 -0.224018
v -0.500000 0.408778 -0.303363
v -0.500000 -0.498326 -0.470378
v -0.500000 0.388641 -0.389440
v -0.500000 0.494133 -0.263638
v -0.500000 0.466978 -0.292763
v -0.500000 0.430037 -0.303363
v -0.500000 0.021998 -0.470378
v -0.500000 -0.001152 -0.500000
v -0.500000 -0.049295 -0.500000
v -0.500000 -0.074289 -0.470378
v -0.500000 0.333314 -0.448780
v -0.500000 0.258047 -0.470378
v 0.389440 0.388641 0.500000
v 0.470378 0.258047 0.500000
v 0.448781 0.333314 0.500000
v 0.263639 0.494133 0.500000
v 0.292763 0.466978 0.500000
v 0.303363 0.430037 0.500000
v 0.224018 0.500000 0.500000
v 0.303363 0.408778 0.500000
v 0.500000 -0.001152 0.500000
v 0.500000 -0.049295 0.500000
v 0.470378 0.021999 0.500000
v 0.470378 -0.074289 0.500000
v 0.470378 -0.498326 0.500000
v -0.500000 0.500000 0.500000
vn 0.0019 0.8822 -0.4709
vn 0.0894 0.6499 -0.7547
vn 0.1185 0.8842 -0.4518
vn 0.4518 0.8842 -0.1185
vn 0.7626 0.4709 -0.4435
vn 0.4320 0.7917 -0.4320
vn 0.8616 0.1299 -0.4907
vn 0.8497 0.5134 -0.1204
vn 0.9823 0.1365 -0.1279
vn 0.4435 0.4709 -0.7626
vn 0.1204 0.5134 -0.8497
vn 0.4907 0.1299 -0.8616
vn 0.1279 0.1365 -0.9823
vn 0.0004 0.1395 -0.9902
vn 0.0987 0.4595 -0.8827
vn -0.0022 0.4394 -0.8983
vn 0.4136 0.5241 -0.7445
vn 0.7852 0.6192 0.0038
vn 0.9828 0.1365 -0.1244
vn 0.9902 0.1396 0.0068
vn 0.6261 0.6887 -0.3657
vn 0.1174 0.5133 -0.8502
vn 0.4906 0.1300 -0.8616
vn 0.1244 0.1365 -0.9828
vn 0.1151 0.8746 -0.4710
vn 0.4710 0.8746 -0.1151
vn 0.1191 0.9857 -0.1191
vn 0.8616 0.1300 -0.4906
vn 0.8502 0.5133 -0.1174
vn -0.0031 0.9009 -0.4340
vn -0.0022 0.9974 -0.0725
vn -0.0046 0.5236 -0.8520
vn -0.0068 0.1396 -0.9902
vn 0.7547 0.6499 -0.0894
vn 0.7445 0.5241 -0.4136
vn 0.0015 0.5230 -0.8524
vn 0.8827 0.4595 -0.0987
vn 0.4998 -0.0000 -0.8661
vn 0.1009 -0.4614 -0.8814
vn 0.4136 -0.5241 -0.7445
vn 0.8661 -0.0000 -0.4998
vn 0.7445 -0.5241 -0.4136
vn 0.9915 -0.0000 -0.1303
vn 0.8814 -0.4614 -0.1009
vn 0.1293 -0.4423 -0.8875
vn 0.4511 -0.4583 -0.7658
vn 0.4511 0.4583 -0.7658
vn 0.7658 0.4583 -0.4511
vn 0.7658 -0.4583 -0.4511
vn 0.8875 0.4426 -0.1283
vn 0.8875 -0.4423 -0.1293
vn -0.0022 0.4372 -0.8994
vn 0.0021 -0.4225 -0.9064
vn 0.1283 0.4426 -0.8875
vn 0.9064 -0.4225 -0.0021
vn 0.9074 -0.4203 -0.0021
vn -0.8330 0.0354 -0.5521
vn 0.2517 -0.1569 -0.9550
vn -0.6240 -0.6892 -0.3683
vn 0.0350 -0.9905 -0.1327
vn 0.7245 -0.6892 -0.0128
vn 0.9969 0.0354 -0.0697
vn 0.7001 0.6730 -0.2385
vn 0.1109 0.9004 -0.4206
vn -0.4916 0.6730 -0.5527
vn -0.9880 0.0354 -0.1506
vn -0.1732 -0.1569 -0.9723
vn -0.7210 -0.6892 -0.0717
vn -0.0241 -0.9905 -0.1351
vn 0.6519 -0.6892 -0.3163
vn 0.8752 0.0354 -0.4825
vn 0.5349 0.6730 -0.5108
vn -0.0763 0.9004 -0.4282
vn -0.6784 0.6730 -0.2947
vn 0.3215 0.0354 -0.9462
vn 0.9876 -0.1569 -0.0000
vn 0.1971 -0.6892 -0.6973
vn 0.1372 -0.9905 -0.0000
vn 0.1971 -0.6892 0.6973
vn 0.3215 0.0354 0.9462
vn 0.4091 0.6730 0.6162
vn 0.4350 0.9004 -0.0000
vn 0.4091 0.6730 -0.6162
vn -0.1062 0.0354 -0.9937
vn 0.8961 -0.1569 -0.4153
vn -0.1144 -0.6892 -0.7155
vn 0.1245 -0.9905 -0.0577
vn 0.4720 -0.6892 0.5498
vn 0.6896 0.0354 0.7233
vn 0.6303 0.6730 0.3871
vn 0.3947 0.9004 -0.1829
vn 0.1120 0.6730 -0.7311
vn 0.6341 0.0354 -0.7724
vn 0.9244 -0.1569 0.3478
vn 0.4300 -0.6892 -0.5832
vn 0.1284 -0.9905 0.0483
vn -0.0611 -0.6892 0.7220
vn -0.0323 0.0354 0.9989
vn 0.1659 0.6730 0.7208
vn 0.4071 0.9004 0.1532
vn 0.5999 0.6730 -0.4327
vn 0.2505 0.0354 -0.9675
vn 0.9849 -0.1569 -0.0732
vn 0.1449 -0.6892 -0.7100
vn 0.1368 -0.9905 -0.0102
vn 0.2482 -0.6892 0.6808
vn 0.3907 0.0354 0.9198
vn 0.4536 0.6730 0.5842
vn 0.4338 0.9004 -0.0322
vn 0.3623 0.6730 -0.6448
vn 0.0021 -0.4203 -0.9074
vn 0.1303 -0.0000 -0.9915
vn -0.0000 -0.0000 -1.0000
vn -0.0038 0.6192 -0.7852
vn 0.0725 0.9974 0.0022
vn -0.0000 1.0000 -0.0000
vn 0.8524 0.5230 -0.0015
vn 0.4709 0.8822 -0.0019
vn 0.8994 0.4372 0.0022
vn 0.8520 0.5236 0.0046
vn 0.4340 0.9009 0.0031
vn 0.9902 0.1395 -0.0004
vn 0.3657 0.6887 -0.6261
vn 1.0000 -0.0000 -0.0000
vn 0.8983 0.4394 0.0022
vt 0.097817 0.902878
vt 0.098432 0.903681
vt 0.097833 0.902897
vt 0.097796 0.902933
vt 0.096997 0.902213
vt 0.097484 0.902537
vt 0.096880 0.902222
vt 0.097002 0.902260
vt 0.096880 0.902260
vt 0.096997 0.902145
vt 0.097002 0.902109
vt 0.096880 0.902146
vt 0.096880 0.902109
vt 0.096880 0.901731
vt 0.096509 0.902109
vt 0.096509 0.901731
vt 0.096509 0.902146
vt 0.096125 0.642895
vt 0.097115 0.642895
vt 0.096125 0.642895
vt 0.098432 0.903649
vt 0.097223 0.643003
vt 0.097223 0.642949
vt 0.097169 0.643003
vt 0.097223 0.642951
vt 0.097115 0.642949
vt 0.097115 0.643003
vt 0.097167 0.642895
vt 0.097167 0.642951
vt 0.097169 0.642895
vt 0.097115 0.642895
vt 0.097169 0.643993
vt 0.097115 0.643993
vt 0.097223 0.643993
vt 0.097169 0.642895
vt 0.096509 0.902222
vt 0.097002 0.901731
vt 0.096509 0.902260
vt 0.095983 0.902146
vt 0.096354 0.902109
vt 0.096354 0.902146
vt 0.095983 0.902222
vt 0.096354 0.902222
vt 0.095983 0.902260
vt 0.096354 0.902260
vt 0.229236 0.897225
vt 0.229236 0.897187
vt 0.229236 0.897225
vt 0.229392 0.897225
vt 0.229392 0.897301
vt 0.229236 0.897300
vt 0.229392 0.897338
vt 0.229236 0.897338
vt 0.229392 0.896805
vt 0.229236 0.896805
vt 0.229392 0.897225
vt 0.229392 0.897187
vt 0.229392 0.897187
vt 0.229236 0.897300
vt 0.229392 0.897300
vt 0.229392 0.896809
vt 0.229236 0.897338
vt 0.229236 0.897721
vt 0.229236 0.897716
vt 0.108076 0.642786
vt 0.107626 0.644587
vt 0.107626 0.642786
vt 0.107175 0.644587
vt 0.107175 0.642786
vt 0.106725 0.644587
vt 0.106725 0.642786
vt 0.106275 0.644587
vt 0.106275 0.642786
vt 0.105824 0.644587
vt 0.105824 0.642786
vt 0.105374 0.644587
vt 0.105374 0.642786
vt 0.104924 0.644587
vt 0.104924 0.642786
vt 0.104474 0.644587
vt 0.104474 0.642786
vt 0.096354 0.901731
vt 0.095983 0.902109
vt 0.095983 0.901731
vt 0.097223 0.643993
vt 0.096125 0.643003
vt 0.096133 0.643990
vt 0.096354 0.902638
vt 0.097002 0.902638
vt 0.097590 0.903106
vt 0.229392 0.897721
vt 0.229392 0.897338
vt 0.096125 0.642949
vt 0.096880 0.902638
vt 0.098407 0.903644
vt 0.098432 0.904022
vt 0.098432 0.903662
vt 0.229236 0.896809
vt 0.095983 0.902638
vt 0.229392 0.897716
vt 0.096509 0.902638
vt 0.098056 0.903644
s 1
f 105/1/1 16/2/2 8/3/3
f 7/4/4 12/5/5 9/6/6
f 10/7/7 11/8/8 5/9/9
f 10/7/7 15/10/10 12/5/5
f 13/11/11 14/12/12 6/13/13
f 8/3/3 15/10/10 13/11/11
f 9/6/6 12/5/5 15/10/10
f 114/14/14 38/15/15 109/16/16
f 36/17/17 6/13/13 14/12/12
f 122/18/18 22/19/19 120/20/20
f 8/3/3 7/4/4 9/6/6
f 19/21/21 7/4/4 8/3/3
f 23/22/22 24/23/23 20/22/24
f 27/24/25 25/25/10 23/22/22
f 26/26/26 27/24/25 21/27/27
f 26/26/26 31/28/5 28/29/6
f 29/30/28 30/31/29 22/19/19
f 24/23/23 31/28/5 29/30/28
f 25/25/10 28/29/6 31/28/5
f 21/27/27 106/32/30 102/33/31
f 27/24/25 107/34/32 106/32/30
f 23/22/22 108/34/33 107/34/32
f 17/31/34 29/30/28 22/19/19
f 19/35/21 24/23/23 29/30/28
f 24/23/23 16/22/2 20/22/24
f 33/36/35 14/12/12 10/7/7
f 13/11/11 114/14/14 113/37/36
f 32/38/37 10/7/7 5/9/9
f 3/39/38 37/40/39 34/41/40
f 4/42/41 34/41/40 39/43/42
f 2/44/43 39/43/42 35/45/44
f 34/46/40 44/47/45 43/48/46
f 44/47/45 42/49/47 43/48/46
f 43/48/46 46/50/48 47/51/49
f 47/51/49 41/52/50 40/53/51
f 110/54/52 44/47/45 111/55/53
f 36/56/17 45/57/54 38/58/15
f 34/46/40 47/51/49 39/59/42
f 33/60/35 42/49/47 36/56/17
f 38/58/15 110/54/52 109/61/16
f 39/59/42 40/53/51 35/62/44
f 35/62/44 124/63/55 126/64/56
f 33/60/35 41/52/50 46/50/48
f 48/65/57 49/66/58 50/67/59
f 50/67/59 49/68/58 51/69/60
f 51/69/60 49/70/58 52/71/61
f 52/71/61 49/72/58 53/73/62
f 53/73/62 49/74/58 54/75/63
f 54/75/63 49/76/58 55/77/64
f 55/77/64 49/78/58 56/79/65
f 56/79/65 49/80/58 48/81/57
f 57/65/66 58/66/67 59/67/68
f 59/67/68 58/68/67 60/69/69
f 60/69/69 58/70/67 61/71/70
f 61/71/70 58/72/67 62/73/71
f 62/73/71 58/74/67 63/75/72
f 63/75/72 58/76/67 64/77/73
f 64/77/73 58/78/67 65/79/74
f 65/79/74 58/80/67 57/81/66
f 66/65/75 67/66/76 68/67/77
f 68/67/77 67/68/76 69/69/78
f 69/69/78 67/70/76 70/71/79
f 70/71/79 67/72/76 71/73/80
f 71/73/80 67/74/76 72/75/81
f 72/75/81 67/76/76 73/77/82
f 73/77/82 67/78/76 74/79/83
f 74/79/83 67/80/76 66/81/75
f 75/65/84 76/66/85 77/67/86
f 77/67/86 76/68/85 78/69/87
f 78/69/87 76/70/85 79/71/88
f 79/71/88 76/72/85 80/73/89
f 80/73/89 76/74/85 81/75/90
f 81/75/90 76/76/85 82/77/91
f 82/77/91 76/78/85 83/79/92
f 83/79/92 76/80/85 75/81/84
f 84/65/93 85/66/94 86/67/95
f 86/67/95 85/68/94 87/69/96
f 87/69/96 85/70/94 88/71/97
f 88/71/97 85/72/94 89/73/98
f 89/73/98 85/74/94 90/75/99
f 90/75/99 85/76/94 91/77/100
f 91/77/100 85/78/94 92/79/101
f 92/79/101 85/80/94 84/81/93
f 93/65/102 94/66/103 95/67/104
f 95/67/104 94/68/103 96/69/105
f 96/69/105 94/70/103 97/71/106
f 97/71/106 94/72/103 98/73/107
f 98/73/107 94/74/103 99/75/108
f 99/75/108 94/76/103 100/77/109
f 100/77/109 94/78/103 101/79/110
f 101/79/110 94/80/103 93/81/102
f 112/82/111 1/83/112 104/84/113
f 113/37/36 8/3/3 13/11/11
f 37/47/39 111/55/53 44/47/45
f 103/85/114 20/22/24 16/22/2
f 121/86/115 102/33/31 128/87/116
f 126/88/56 2/44/43 35/45/44
f 117/89/117 7/4/4 115/90/118
f 123/91/119 40/53/51 41/52/50
f 32/92/37 123/91/119 41/52/50
f 30/31/29 120/20/20 22/19/19
f 26/26/26 119/18/120 30/31/29
f 21/27/27 118/93/121 26/26/26
f 116/94/122 32/38/37 5/9/9
f 11/8/8 116/94/122 5/9/9
f 17/95/34 115/90/118 7/4/4
f 105/1/1 103/96/114 16/2/2
f 7/4/4 11/8/8 12/5/5
f 10/7/7 12/5/5 11/8/8
f 10/7/7 14/12/12 15/10/10
f 13/11/11 15/10/10 14/12/12
f 8/3/3 9/6/6 15/10/10
f 114/14/14 6/13/13 38/15/15
f 36/17/17 38/15/15 6/13/13
f 122/18/18 17/31/34 22/19/19
f 8/3/3 16/2/2 18/97/123
f 19/21/21 17/95/34 7/4/4
f 8/3/3 18/97/123 19/21/21
f 23/22/22 25/25/10 24/23/23
f 27/24/25 28/29/6 25/25/10
f 26/26/26 28/29/6 27/24/25
f 26/26/26 30/31/29 31/28/5
f 29/30/28 31/28/5 30/31/29
f 24/23/23 25/25/10 31/28/5
f 21/27/27 27/24/25 106/32/30
f 27/24/25 23/22/22 107/34/32
f 23/22/22 20/22/24 108/34/33
f 17/31/34 19/35/21 29/30/28
f 19/35/21 18/23/123 24/23/23
f 24/23/23 18/23/123 16/22/2
f 33/36/35 36/17/17 14/12/12
f 13/11/11 6/13/13 114/14/14
f 32/38/37 33/36/35 10/7/7
f 3/39/38 1/83/112 37/40/39
f 4/42/41 3/39/38 34/41/40
f 2/44/43 4/42/41 39/43/42
f 34/46/40 37/47/39 44/47/45
f 44/47/45 45/57/54 42/49/47
f 43/48/46 42/49/47 46/50/48
f 47/51/49 46/50/48 41/52/50
f 110/54/52 45/57/54 44/47/45
f 36/56/17 42/49/47 45/57/54
f 34/46/40 43/48/46 47/51/49
f 33/60/35 46/50/48 42/49/47
f 38/58/15 45/57/54 110/54/52
f 39/59/42 47/51/49 40/53/51
f 35/62/44 40/53/51 124/63/55
f 33/60/35 32/92/37 41/52/50
f 112/82/111 37/40/39 1/83/112
f 113/37/36 105/1/1 8/3/3
f 37/47/39 112/98/111 111/55/53
f 103/85/114 108/34/33 20/22/24
f 121/86/115 21/27/27 102/33/31
f 126/88/56 127/99/124 2/44/43
f 117/89/117 11/8/8 7/4/4
f 123/91/119 124/63/55 40/53/51
f 32/92/37 125/100/125 123/91/119
f 30/31/29 119/18/120 120/20/20
f 26/26/26 118/93/121 119/18/120
f 21/27/27 121/86/115 118/93/121
f 116/94/122 125/101/125 32/38/37
f 11/8/8 117/89/117 116/94/122
f 17/95/34 122/102/18 115/90/118
