# Blender 4.0.2
# www.blender.org
o GrassMid02
v 0.137255 0.503739 -0.000000
v 0.176044 0.493321 -0.000000
v 0.204557 0.464695 -0.000000
v 0.214934 0.425753 -0.000000
v 0.214934 0.403344 -0.000000
v 0.479000 -0.098009 -0.160595
v 0.479000 -0.148759 -0.160595
v 0.450000 -0.072634 -0.160595
v 0.450000 -0.174135 -0.160595
v 0.219993 0.433457 -0.200481
v 0.351807 0.405630 -0.113159
v 0.216181 0.397962 -0.186341
v 0.206977 0.383260 -0.152204
v 0.197774 0.397962 -0.118068
v 0.193962 0.433457 -0.103928
v 0.197774 0.468953 -0.118068
v 0.206977 0.483655 -0.152204
v 0.216181 0.468953 -0.186341
v 0.195667 0.433457 -0.241381
v 0.351980 0.405630 -0.217583
v 0.198154 0.397962 -0.226949
v 0.204159 0.383260 -0.192107
v 0.210163 0.397962 -0.157265
v 0.212651 0.433457 -0.142833
v 0.210163 0.468953 -0.157265
v 0.204159 0.483655 -0.192107
v 0.198154 0.468953 -0.226949
v 0.215721 0.441073 0.188584
v 0.354942 0.413245 0.263534
v 0.213213 0.405578 0.203013
v 0.207158 0.390875 0.237846
v 0.201103 0.405578 0.272679
v 0.198595 0.441073 0.287107
v 0.201103 0.476568 0.272679
v 0.207158 0.491270 0.237846
v 0.213213 0.476568 0.203013
v 0.187770 0.441073 0.150071
v 0.345600 0.413245 0.159529
v 0.191561 0.405578 0.164216
v 0.200715 0.390875 0.198366
v 0.209869 0.405578 0.232515
v 0.213661 0.441073 0.246661
v 0.209869 0.476568 0.232515
v 0.200715 0.491270 0.198366
v 0.191561 0.476568 0.164216
v 0.389440 0.390208 -0.500000
v 0.470378 -0.497983 -0.500000
v 0.448781 0.334658 -0.500000
v 0.470378 0.259087 -0.500000
v 0.224018 0.502016 -0.500000
v 0.303363 0.410427 -0.500000
v 0.500000 -0.001157 -0.500000
v 0.470378 0.022087 -0.500000
v 0.263639 0.496126 -0.500000
v 0.292763 0.468861 -0.500000
v 0.303363 0.431771 -0.500000
v 0.500000 -0.049494 -0.500000
v 0.470378 -0.074588 -0.500000
v 0.224018 0.500000 0.500000
v 0.303363 0.410427 0.500000
v 0.470378 -0.497984 0.500000
v 0.389440 0.390208 0.500000
v 0.263639 0.496126 0.500000
v 0.292763 0.468861 0.500000
v 0.303363 0.431771 0.500000
v 0.470378 0.022087 0.500000
v 0.500000 -0.001157 0.500000
v 0.500000 -0.049494 0.500000
v 0.470378 -0.074588 0.500000
v 0.448781 0.334658 0.500000
v 0.470378 0.259087 0.500000
v -0.500000 0.500000 -0.500000
v -0.500000 0.500000 0.500000
vn 0.8503 0.5031 -0.1549
vn 0.9914 0.1312 -0.0000
vn 0.8595 0.5111 -0.0000
vn 0.4594 0.8839 0.0870
vn 0.4764 0.8792 0.0012
vn 0.4396 0.8943 -0.0836
vn 0.0834 0.9964 0.0159
vn 0.0562 0.9984 -0.0115
vn 0.1110 0.9938 0.0040
vn 0.7411 0.6628 0.1073
vn 0.7148 0.6993 -0.0000
vn 0.7411 0.6628 -0.1073
vn 0.4720 0.8816 -0.0000
vn 0.8503 0.5031 0.1549
vn 0.8895 -0.4551 0.0406
vn 0.8859 -0.4632 -0.0232
vn 0.9231 -0.3835 0.0283
vn 0.9040 0.4259 0.0364
vn 0.8816 0.4625 -0.0941
vn 0.9288 0.3686 0.0374
vn 0.8772 -0.4676 -0.1088
vn 0.9830 -0.1672 0.0762
vn 0.8581 0.4785 0.1862
vn 0.9140 0.3732 0.1590
vn 0.9362 -0.3487 -0.0441
vn 0.5572 0.0360 -0.8296
vn 0.9520 -0.1666 0.2567
vn 0.3810 -0.6712 -0.6358
vn 0.1424 -0.9891 0.0384
vn 0.0098 -0.6712 0.7412
vn 0.0647 0.0360 0.9973
vn 0.2467 0.6555 0.7137
vn 0.4456 0.8872 0.1201
vn 0.5721 0.6555 -0.4930
vn 0.1567 0.0360 -0.9870
vn 0.9717 -0.1666 -0.1675
vn 0.0783 -0.6712 -0.7371
vn 0.1454 -0.9891 -0.0251
vn 0.3206 -0.6712 0.6684
vn 0.4780 0.0360 0.8776
vn 0.5240 0.6555 0.5438
vn 0.4548 0.8872 -0.0784
vn 0.3117 0.6555 -0.6878
vn 0.4793 0.0360 -0.8769
vn 0.9715 -0.1666 0.1689
vn 0.3215 -0.6712 -0.6679
vn 0.1453 -0.9891 0.0253
vn 0.0773 -0.6712 0.7372
vn 0.1553 0.0360 0.9872
vn 0.3107 0.6555 0.6883
vn 0.4547 0.8872 0.0790
vn 0.5248 0.6555 -0.5430
vn 0.0661 0.0360 -0.9972
vn 0.9524 -0.1666 -0.2553
vn 0.0109 -0.6712 -0.7412
vn 0.1425 -0.9891 -0.0382
vn 0.3801 -0.6712 0.6364
vn 0.5560 0.0360 0.8304
vn 0.5714 0.6555 0.4938
vn 0.4457 0.8872 -0.1195
vn 0.2478 0.6555 -0.7134
vn -0.0036 1.0000 0.0001
vn 0.8534 0.5213 -0.0000
vn 0.9921 0.1249 0.0121
vn 0.9149 0.3975 -0.0709
vn 0.9998 0.0162 -0.0150
vn 0.9753 0.1356 -0.1741
vn 0.9753 0.1356 0.1741
vn -0.0000 1.0000 -0.0000
vn 0.9903 0.1387 -0.0000
vn 1.0000 -0.0000 -0.0000
vt 0.097223 0.643993
vt 0.097223 0.644686
vt 0.097223 0.644686
vt 0.097169 0.645380
vt 0.097169 0.644686
vt 0.097169 0.643993
vt 0.097115 0.645380
vt 0.097115 0.643993
vt 0.097115 0.644686
vt 0.097223 0.645380
vt 0.097223 0.643993
vt 0.098432 0.904022
vt 0.098505 0.904499
vt 0.098432 0.904499
vt 0.229236 0.896809
vt 0.229236 0.896571
vt 0.229236 0.896805
vt 0.229392 0.896571
vt 0.229392 0.896805
vt 0.229236 0.896337
vt 0.229236 0.896571
vt 0.229392 0.896341
vt 0.229392 0.896337
vt 0.229236 0.896341
vt 0.108076 0.642786
vt 0.107626 0.644587
vt 0.107626 0.642786
vt 0.107175 0.644587
vt 0.107175 0.642786
vt 0.106725 0.644587
vt 0.106725 0.642786
vt 0.106275 0.644587
vt 0.106275 0.642786
vt 0.105824 0.644587
vt 0.105824 0.642786
vt 0.105374 0.644587
vt 0.105374 0.642786
vt 0.104924 0.644587
vt 0.104924 0.642786
vt 0.104474 0.644587
vt 0.104474 0.642786
vt 0.096082 0.645398
vt 0.097002 0.901731
vt 0.096880 0.901253
vt 0.097002 0.901253
vt 0.096509 0.901731
vt 0.096509 0.901492
vt 0.097124 0.901253
vt 0.097817 0.902878
vt 0.096354 0.901492
vt 0.095983 0.901731
vt 0.096354 0.901259
vt 0.097223 0.645380
vt 0.098432 0.904261
vt 0.229392 0.896809
vt 0.096133 0.643990
vt 0.096880 0.901731
vt 0.096509 0.901259
vt 0.096354 0.901731
vt 0.095983 0.901253
s 1
f 64/1/1 4/2/2 3/3/3
f 3/3/3 54/4/4 2/5/5
f 63/6/6 3/3/3 2/5/5
f 50/7/7 2/5/5 54/4/4
f 59/8/8 2/5/5 1/9/9
f 51/10/10 4/2/2 5/3/11
f 4/2/2 60/11/12 5/3/11
f 60/12/12 46/13/13 51/14/10
f 4/2/2 55/10/14 3/3/3
f 69/15/15 7/16/16 68/17/17
f 8/18/18 67/19/19 6/18/20
f 58/20/21 7/16/16 9/21/22
f 8/18/18 52/22/23 53/23/24
f 6/18/20 68/17/17 7/16/16
f 6/18/20 57/24/25 52/22/23
f 10/25/26 11/26/27 12/27/28
f 12/27/28 11/28/27 13/29/29
f 13/29/29 11/30/27 14/31/30
f 14/31/30 11/32/27 15/33/31
f 15/33/31 11/34/27 16/35/32
f 16/35/32 11/36/27 17/37/33
f 17/37/33 11/38/27 18/39/34
f 18/39/34 11/40/27 10/41/26
f 19/25/35 20/26/36 21/27/37
f 21/27/37 20/28/36 22/29/38
f 22/29/38 20/30/36 23/31/39
f 23/31/39 20/32/36 24/33/40
f 24/33/40 20/34/36 25/35/41
f 25/35/41 20/36/36 26/37/42
f 26/37/42 20/38/36 27/39/43
f 27/39/43 20/40/36 19/41/35
f 28/25/44 29/26/45 30/27/46
f 30/27/46 29/28/45 31/29/47
f 31/29/47 29/30/45 32/31/48
f 32/31/48 29/32/45 33/33/49
f 33/33/49 29/34/45 34/35/50
f 34/35/50 29/36/45 35/37/51
f 35/37/51 29/38/45 36/39/52
f 36/39/52 29/40/45 28/41/44
f 37/25/53 38/26/54 39/27/55
f 39/27/55 38/28/54 40/29/56
f 40/29/56 38/30/54 41/31/57
f 41/31/57 38/32/54 42/33/58
f 42/33/58 38/34/54 43/35/59
f 43/35/59 38/36/54 44/37/60
f 44/37/60 38/38/54 45/39/61
f 45/39/61 38/40/54 37/41/53
f 59/8/8 1/9/9 72/42/62
f 70/43/63 49/44/64 48/45/63
f 49/44/64 66/46/65 8/47/18
f 70/43/63 46/48/13 62/49/13
f 9/50/22 61/51/66 58/52/21
f 64/1/1 65/1/67 4/2/2
f 3/3/3 55/10/14 54/4/4
f 63/6/6 64/1/1 3/3/3
f 50/7/7 1/9/9 2/5/5
f 59/8/8 63/6/6 2/5/5
f 51/10/10 56/53/68 4/2/2
f 4/2/2 65/1/67 60/11/12
f 51/14/10 5/54/11 60/12/12
f 60/12/12 62/49/13 46/13/13
f 4/2/2 56/53/68 55/10/14
f 69/15/15 9/21/22 7/16/16
f 8/18/18 66/55/65 67/19/19
f 58/20/21 57/24/25 7/16/16
f 8/18/18 6/18/20 52/22/23
f 6/18/20 67/19/19 68/17/17
f 6/18/20 7/16/16 57/24/25
f 72/42/62 73/56/69 59/8/8
f 1/9/9 50/7/7 72/42/62
f 70/43/63 71/57/70 49/44/64
f 8/47/18 53/58/24 49/44/64
f 49/44/64 71/57/70 66/46/65
f 70/43/63 48/45/63 46/48/13
f 9/50/22 69/59/15 61/51/66
f 61/51/66 47/60/71 58/52/21
