# Blender 4.0.2
# www.blender.org
o GrassCorner03
v 0.308715 -0.498326 -0.470378
v 0.470378 -0.498326 -0.308714
v 0.389440 -0.498326 -0.448780
v 0.448781 -0.498326 -0.389440
v 0.470378 0.255416 -0.308715
v 0.308715 0.255416 -0.470378
v 0.389441 0.386011 -0.308715
v 0.308715 0.386011 -0.389440
v 0.386024 0.366450 -0.386024
v 0.448781 0.255416 -0.389440
v 0.448781 0.330683 -0.308715
v 0.427801 0.327498 -0.386024
v 0.308715 0.330683 -0.448781
v 0.389441 0.255416 -0.448781
v 0.386024 0.327498 -0.427801
v 0.229370 0.406148 -0.308715
v 0.308715 0.406148 -0.229369
v 0.269042 0.406148 -0.298084
v 0.298085 0.406148 -0.269042
v 0.229370 0.427406 -0.308715
v 0.229370 0.501386 -0.229369
v 0.308715 0.427406 -0.229369
v 0.229370 0.464348 -0.298114
v 0.268990 0.427406 -0.298114
v 0.267313 0.462784 -0.287818
v 0.268990 0.491503 -0.229369
v 0.229370 0.491503 -0.268990
v 0.267313 0.481902 -0.267313
v 0.298115 0.427406 -0.268990
v 0.298115 0.464348 -0.229369
v 0.287818 0.462784 -0.267313
v 0.470378 0.025720 -0.308715
v 0.448781 0.025720 -0.389440
v 0.389441 -0.070567 -0.448781
v 0.470378 -0.070567 -0.308715
v 0.389441 0.025720 -0.448781
v 0.308715 -0.070567 -0.470378
v 0.308715 0.025720 -0.470378
v 0.448781 -0.070567 -0.389440
v 0.500000 -0.046495 -0.335103
v 0.500000 0.001649 -0.335103
v 0.417444 0.001649 -0.477971
v 0.417444 -0.046495 -0.477971
v 0.335104 -0.046495 -0.500000
v 0.335104 0.001649 -0.500000
v 0.477971 0.001649 -0.417444
v 0.477971 -0.046495 -0.417444
v 0.199119 0.491503 0.183995
v 0.228243 0.464348 0.183995
v 0.238843 0.427406 0.183995
v 0.159498 0.501386 0.183995
v 0.238843 0.406148 0.183995
v -0.313665 0.501386 -0.106510
v 0.500000 0.009852 0.113506
v 0.500000 0.057995 0.113506
v 0.470378 -0.014220 0.131099
v 0.470378 0.082067 0.131099
v -0.313665 0.406148 -0.185855
v -0.313665 0.491503 -0.146131
v -0.313665 0.464348 -0.175255
v -0.313665 0.427406 -0.185855
v 0.210631 0.434715 0.222567
v 0.363848 0.408317 0.273639
v 0.210631 0.401043 0.237526
v 0.210631 0.387096 0.273639
v 0.210631 0.401043 0.309753
v 0.210631 0.434715 0.324712
v 0.210631 0.468387 0.309753
v 0.210631 0.482334 0.273639
v 0.210631 0.468387 0.237526
v 0.175765 0.434715 0.188698
v 0.336254 0.408317 0.170607
v 0.182055 0.401043 0.202270
v 0.197241 0.387096 0.235036
v 0.212427 0.401043 0.267801
v 0.218717 0.434715 0.281373
v 0.212427 0.468387 0.267801
v 0.197241 0.482334 0.235036
v 0.182055 0.468387 0.202270
v -0.477637 0.434715 -0.213534
v -0.375884 0.408317 -0.338954
v -0.463636 0.401043 -0.208266
v -0.429835 0.387096 -0.195550
v -0.396035 0.401043 -0.182833
v -0.382034 0.434715 -0.177566
v -0.396035 0.468387 -0.182833
v -0.429835 0.482334 -0.195550
v -0.463636 0.468387 -0.208266
v -0.495314 0.434715 -0.192827
v -0.482034 0.408317 -0.349407
v -0.470681 0.387096 -0.196611
v -0.434667 0.401043 -0.199287
v -0.419749 0.434715 -0.200395
v -0.434667 0.468387 -0.199287
v -0.470681 0.482334 -0.196611
v -0.493857 0.468387 -0.193935
v -0.004529 0.434715 -0.225684
v 0.046544 0.408317 -0.378902
v 0.010430 0.401043 -0.225684
v 0.046544 0.387096 -0.225684
v 0.082657 0.401043 -0.225684
v 0.097616 0.434715 -0.225684
v 0.082657 0.468387 -0.225684
v 0.046544 0.482334 -0.225684
v 0.010430 0.468387 -0.225684
v -0.038398 0.434715 -0.190818
v -0.056489 0.408317 -0.351307
v -0.024826 0.401043 -0.197109
v 0.007940 0.387096 -0.212295
v 0.040705 0.401043 -0.227481
v 0.054277 0.434715 -0.233771
v 0.040705 0.468387 -0.227481
v 0.007940 0.482334 -0.212295
v -0.024826 0.468387 -0.197109
v -0.500000 -0.498326 -0.470378
v -0.500000 0.388641 -0.389440
v -0.500000 0.333314 -0.448780
v -0.500000 0.258047 -0.470378
v -0.500000 0.494133 -0.263638
v -0.500000 0.466978 -0.292763
v -0.500000 0.430037 -0.303363
v -0.500000 0.021998 -0.470378
v -0.500000 -0.074289 -0.470378
v -0.500000 -0.001152 -0.500000
v -0.500000 -0.049295 -0.500000
v -0.500000 0.500000 -0.224018
v -0.500000 0.408778 -0.303363
v -0.500000 0.398450 -0.194433
v 0.389440 0.388641 0.500000
v 0.470378 -0.498326 0.500000
v 0.448781 0.333314 0.500000
v 0.470378 0.258047 0.500000
v 0.224018 0.500000 0.500000
v 0.303363 0.408778 0.500000
v 0.470378 0.021999 0.500000
v 0.500000 -0.001152 0.500000
v 0.263639 0.494133 0.500000
v 0.292763 0.466978 0.500000
v 0.303363 0.430037 0.500000
v 0.500000 -0.049295 0.500000
v 0.470378 -0.074289 0.500000
v -0.500000 0.500000 0.500000
vn 0.4518 0.8842 -0.1186
vn 0.7626 0.4709 -0.4435
vn 0.4320 0.7917 -0.4320
vn 0.8616 0.1299 -0.4907
vn 0.8497 0.5134 -0.1205
vn 0.9823 0.1365 -0.1280
vn 0.4907 0.1299 -0.8616
vn 0.1205 0.5134 -0.8497
vn 0.1280 0.1365 -0.9823
vn 0.1184 0.8843 -0.4517
vn 0.4435 0.4709 -0.7626
vn 0.7397 0.6718 -0.0401
vn 0.9898 0.1412 -0.0177
vn 0.7364 0.6764 -0.0149
vn 0.4136 0.5241 -0.7445
vn 0.0019 -0.4204 -0.9074
vn 0.1303 -0.0000 -0.9915
vn -0.0000 -0.0000 -1.0000
vn 0.3020 0.7421 -0.5985
vn 0.0230 0.6790 -0.7338
vn 0.6261 0.6887 -0.3657
vn 0.0252 0.5089 -0.8605
vn 0.4906 0.1300 -0.8616
vn 0.0189 0.1364 -0.9905
vn 0.0595 0.8718 -0.4862
vn 0.4825 0.8728 -0.0740
vn 0.1110 0.9868 -0.1175
vn 0.8616 0.1300 -0.4906
vn 0.8586 0.5104 -0.0487
vn 0.9896 0.1366 -0.0457
vn 0.0746 0.9032 -0.4227
vn 0.0093 0.9958 -0.0913
vn 0.1572 0.5462 -0.8228
vn 0.1746 0.1413 -0.9745
vn 0.7445 0.5241 -0.4136
vn 0.0005 0.1395 -0.9902
vn 0.0017 0.5230 -0.8523
vn 0.0988 0.4596 -0.8826
vn -0.0020 0.4393 -0.8983
vn 0.8584 0.4930 -0.1418
vn 0.4998 -0.0000 -0.8661
vn 0.1008 -0.4613 -0.8815
vn 0.4136 -0.5241 -0.7445
vn 0.8661 -0.0000 -0.4998
vn 0.7445 -0.5241 -0.4136
vn 0.9915 -0.0000 -0.1303
vn 0.9012 -0.4284 -0.0658
vn 0.8872 -0.4478 -0.1114
vn 0.7658 0.4583 -0.4511
vn 0.4511 0.4583 -0.7658
vn 0.9191 -0.3939 0.0094
vn 0.8829 -0.4688 -0.0257
vn 0.7658 -0.4583 -0.4511
vn 0.1283 0.4426 -0.8875
vn 0.1292 -0.4423 -0.8875
vn 0.4511 -0.4583 -0.7658
vn 0.8881 0.4361 -0.1451
vn -0.0020 0.4373 -0.8993
vn 0.0019 -0.4224 -0.9064
vn 0.4524 0.8918 -0.0077
vn 0.8438 0.5364 -0.0170
vn 0.7334 0.6685 -0.1234
vn 0.9706 0.1348 -0.1993
vn 0.8854 0.4646 -0.0133
vn 0.8877 -0.4545 -0.0737
vn 0.9213 -0.3838 -0.0625
vn 0.1334 0.6365 -0.7596
vn 0.4871 0.4253 -0.7628
vn 0.5311 0.1136 -0.8396
vn 0.3167 0.8157 -0.4840
vn 0.0718 0.9919 -0.1045
vn 0.8783 0.4718 0.0768
vn 0.9205 0.3903 0.0185
vn 1.0000 -0.0000 -0.0000
vn 0.3215 0.0354 -0.9462
vn 0.9876 -0.1569 -0.0000
vn 0.1971 -0.6892 -0.6973
vn 0.1372 -0.9905 -0.0000
vn 0.1971 -0.6892 0.6973
vn 0.3215 0.0354 0.9462
vn 0.4091 0.6730 0.6162
vn 0.4350 0.9004 -0.0000
vn 0.4091 0.6730 -0.6162
vn -0.1062 0.0354 -0.9937
vn 0.8961 -0.1569 -0.4153
vn -0.1144 -0.6892 -0.7155
vn 0.1245 -0.9905 -0.0577
vn 0.4720 -0.6892 0.5498
vn 0.6896 0.0354 0.7233
vn 0.6303 0.6730 0.3871
vn 0.3947 0.9004 -0.1829
vn 0.1120 0.6730 -0.7311
vn -0.7724 0.0354 -0.6341
vn 0.3478 -0.1569 -0.9244
vn -0.5832 -0.6892 -0.4300
vn 0.0483 -0.9905 -0.1284
vn 0.7220 -0.6892 0.0611
vn 0.9989 0.0354 0.0323
vn 0.7208 0.6730 -0.1659
vn 0.1532 0.9004 -0.4071
vn -0.4327 0.6730 -0.5999
vn -0.1127 0.8975 -0.4264
vn -0.1220 -0.1500 -0.9811
vn -0.8136 0.5189 -0.2623
vn -0.0102 -0.9905 -0.1368
vn -0.8704 -0.4745 -0.1311
vn 0.6808 -0.6892 -0.2482
vn 0.9198 0.0354 -0.3907
vn 0.5842 0.6730 -0.4536
vn -0.9919 0.0812 -0.0978
vn -0.9462 0.0354 -0.3215
vn -0.0000 -0.1569 -0.9876
vn -0.6973 -0.6892 -0.1971
vn -0.0000 -0.9905 -0.1372
vn 0.6973 -0.6892 -0.1971
vn 0.9462 0.0354 -0.3215
vn 0.6162 0.6730 -0.4091
vn -0.0000 0.9004 -0.4350
vn -0.6162 0.6730 -0.4091
vn -0.9937 0.0354 0.1062
vn -0.4153 -0.1569 -0.8961
vn -0.7155 -0.6892 0.1144
vn -0.0577 -0.9905 -0.1245
vn 0.5498 -0.6892 -0.4720
vn 0.7233 0.0354 -0.6896
vn 0.3871 0.6730 -0.6303
vn -0.1829 0.9004 -0.3947
vn -0.7311 0.6730 -0.1120
vn 0.8472 0.5009 -0.1771
vn 0.4607 0.8818 -0.1014
vn 0.9143 0.3997 0.0648
vn 0.0867 0.9960 -0.0199
vn 0.1076 0.9942 0.0005
vn -0.0020 1.0000 0.0023
vn 0.9902 0.1395 -0.0005
vn 0.4709 0.8822 -0.0022
vn 0.8523 0.5230 -0.0017
vn 0.0029 0.8824 -0.4705
vn 0.3657 0.6887 -0.6261
vt 0.097162 0.904988
vt 0.096997 0.904992
vt 0.097145 0.904971
vt 0.096880 0.904990
vt 0.097002 0.905028
vt 0.096880 0.905028
vt 0.096880 0.904915
vt 0.097002 0.904877
vt 0.096880 0.904877
vt 0.097162 0.904877
vt 0.096997 0.904923
vt 0.093748 0.646477
vt 0.094309 0.646477
vt 0.094309 0.646477
vt 0.096509 0.904915
vt 0.096354 0.904499
vt 0.095983 0.904877
vt 0.095983 0.904499
vt 0.097199 0.904520
vt 0.097199 0.904840
vt 0.097199 0.904872
vt 0.093641 0.646370
vt 0.093641 0.646423
vt 0.093641 0.646370
vt 0.093695 0.646370
vt 0.093641 0.646421
vt 0.093748 0.646423
vt 0.093748 0.646370
vt 0.093697 0.646478
vt 0.093697 0.646421
vt 0.093695 0.646477
vt 0.093748 0.646478
vt 0.093695 0.645809
vt 0.093748 0.645809
vt 0.093641 0.645809
vt 0.093694 0.646477
vt 0.096509 0.904990
vt 0.096880 0.904499
vt 0.097002 0.904499
vt 0.096509 0.904877
vt 0.096509 0.904499
vt 0.096509 0.905028
vt 0.095983 0.904915
vt 0.096354 0.904877
vt 0.096354 0.904915
vt 0.095983 0.904990
vt 0.096354 0.904990
vt 0.095983 0.905028
vt 0.096354 0.905028
vt 0.229236 0.900069
vt 0.229236 0.900106
vt 0.229236 0.900107
vt 0.229392 0.899993
vt 0.229392 0.900069
vt 0.229392 0.899993
vt 0.229236 0.900312
vt 0.229236 0.900312
vt 0.229236 0.899993
vt 0.229236 0.900069
vt 0.229392 0.899956
vt 0.229236 0.899956
vt 0.229236 0.899993
vt 0.229392 0.900107
vt 0.229392 0.899573
vt 0.229236 0.899573
vt 0.229392 0.900069
vt 0.229392 0.899577
vt 0.094309 0.646424
vt 0.094309 0.646477
vt 0.094738 0.646477
vt 0.094738 0.646477
vt 0.229392 0.900107
vt 0.229392 0.900312
vt 0.229236 0.900489
vt 0.229236 0.900484
vt 0.093641 0.645440
vt 0.093695 0.645440
vt 0.093748 0.645440
vt 0.096509 0.905406
vt 0.096509 0.905234
vt 0.095983 0.905406
vt 0.096354 0.905234
vt 0.108076 0.642786
vt 0.107626 0.644587
vt 0.107626 0.642786
vt 0.107175 0.644587
vt 0.107175 0.642786
vt 0.106725 0.644587
vt 0.106725 0.642786
vt 0.106275 0.644587
vt 0.106275 0.642786
vt 0.105824 0.644587
vt 0.105824 0.642786
vt 0.105374 0.644587
vt 0.105374 0.642786
vt 0.104924 0.644587
vt 0.104924 0.642786
vt 0.104474 0.644587
vt 0.104474 0.642786
vt 0.107542 0.642786
vt 0.094738 0.646423
vt 0.229392 0.900489
vt 0.229392 0.900312
vt 0.094738 0.646370
vt 0.094309 0.646370
vt 0.094687 0.645423
vt 0.096880 0.905406
vt 0.097225 0.904877
vt 0.097577 0.904877
vt 0.097350 0.905178
vt 0.097002 0.905406
vt 0.097162 0.904499
vt 0.097199 0.904647
vt 0.097199 0.904858
vt 0.093641 0.646424
vt 0.096354 0.905406
vt 0.229236 0.899578
vt 0.229392 0.900484
vt 0.097429 0.904877
s 1
f 7/1/1 12/2/2 9/3/3
f 10/4/4 11/5/5 5/6/6
f 14/7/7 12/2/2 10/4/4
f 13/8/8 14/7/7 6/9/9
f 8/10/10 15/11/11 13/8/8
f 9/3/3 12/2/2 15/11/11
f 17/12/12 50/13/13 52/14/14
f 8/10/10 7/1/1 9/3/3
f 36/15/15 6/9/9 14/7/7
f 123/16/16 1/17/17 115/18/18
f 127/19/19 16/20/20 8/10/10
f 19/21/21 7/1/1 8/10/10
f 23/22/22 24/23/23 20/24/24
f 27/25/25 25/26/11 23/22/22
f 26/27/26 27/25/25 21/28/27
f 26/27/26 31/29/2 28/30/3
f 29/31/28 30/32/29 22/12/30
f 24/23/23 31/29/2 29/31/28
f 25/26/11 28/30/3 31/29/2
f 21/28/27 59/33/31 53/34/32
f 27/25/25 60/35/33 59/33/31
f 23/22/22 61/35/34 60/35/33
f 17/12/12 29/31/28 22/12/30
f 19/36/21 24/23/23 29/31/28
f 24/23/23 16/24/20 20/24/24
f 33/37/35 14/7/7 10/4/4
f 13/8/8 118/38/36 117/39/37
f 117/39/37 8/10/10 13/8/8
f 118/38/36 38/40/38 122/41/39
f 32/42/40 10/4/4 5/6/6
f 3/43/41 37/44/42 34/45/43
f 4/46/44 34/45/43 39/47/45
f 2/48/46 39/47/45 35/49/47
f 39/50/45 40/51/48 35/52/47
f 36/53/15 46/54/49 42/55/50
f 35/52/47 54/56/51 56/57/52
f 34/58/43 47/59/53 39/50/45
f 36/53/15 45/60/54 38/60/38
f 34/58/43 44/61/55 43/62/56
f 44/61/55 42/55/50 43/62/56
f 43/62/56 46/54/49 47/59/53
f 47/59/53 41/63/57 40/51/48
f 124/64/58 44/61/55 125/65/59
f 33/66/35 41/63/57 46/54/49
f 38/60/38 124/64/58 122/67/39
f 21/28/27 48/68/60 26/27/26
f 26/27/26 49/69/61 30/32/29
f 30/32/29 50/13/13 22/12/30
f 134/70/62 50/13/13 139/71/63
f 41/63/57 54/56/51 40/51/48
f 32/72/40 55/73/64 41/63/57
f 56/57/52 140/74/65 141/75/66
f 58/35/67 20/24/24 16/24/20
f 120/76/68 61/35/34 121/76/69
f 119/77/70 60/35/33 120/76/68
f 126/78/71 59/33/31 119/77/70
f 135/79/72 57/80/73 5/6/6
f 130/81/74 35/49/47 56/82/52
f 62/83/75 63/84/76 64/85/77
f 64/85/77 63/86/76 65/87/78
f 65/87/78 63/88/76 66/89/79
f 66/89/79 63/90/76 67/91/80
f 67/91/80 63/92/76 68/93/81
f 68/93/81 63/94/76 69/95/82
f 69/95/82 63/96/76 70/97/83
f 70/97/83 63/98/76 62/99/75
f 71/83/84 72/84/85 73/85/86
f 73/85/86 72/86/85 74/87/87
f 74/87/87 72/88/85 75/89/88
f 75/89/88 72/90/85 76/91/89
f 76/91/89 72/92/85 77/93/90
f 77/93/90 72/94/85 78/95/91
f 78/95/91 72/96/85 79/97/92
f 79/97/92 72/98/85 71/99/84
f 80/83/93 81/84/94 82/85/95
f 82/85/95 81/86/94 83/87/96
f 83/87/96 81/88/94 84/89/97
f 84/89/97 81/90/94 85/91/98
f 85/91/98 81/92/94 86/93/99
f 86/93/99 81/94/94 87/95/100
f 87/95/100 81/96/94 88/97/101
f 88/97/101 81/98/94 80/99/93
f 95/95/102 90/96/103 96/97/104
f 90/86/103 91/87/105 128/100/106
f 91/87/105 90/88/103 92/89/107
f 92/89/107 90/90/103 93/91/108
f 93/91/108 90/92/103 94/93/109
f 94/93/109 90/94/103 95/95/102
f 96/97/104 90/98/103 89/99/110
f 89/83/110 90/84/103 128/100/106
f 97/83/111 98/84/112 99/85/113
f 99/85/113 98/86/112 100/87/114
f 100/87/114 98/88/112 101/89/115
f 101/89/115 98/90/112 102/91/116
f 102/91/116 98/92/112 103/93/117
f 103/93/117 98/94/112 104/95/118
f 104/95/118 98/96/112 105/97/119
f 105/97/119 98/98/112 97/99/111
f 106/83/120 107/84/121 108/85/122
f 108/85/122 107/86/121 109/87/123
f 109/87/123 107/88/121 110/89/124
f 110/89/124 107/90/121 111/91/125
f 111/91/125 107/92/121 112/93/126
f 112/93/126 107/94/121 113/95/127
f 113/95/127 107/96/121 114/97/128
f 114/97/128 107/98/121 106/99/120
f 37/61/42 125/65/59 44/61/55
f 127/76/19 61/35/34 58/35/67
f 138/70/129 50/13/13 49/69/61
f 137/101/130 49/69/61 48/68/60
f 136/102/131 54/56/51 55/73/64
f 57/103/73 136/102/131 55/73/64
f 133/104/132 48/68/60 51/105/133
f 142/106/134 51/105/133 53/34/32
f 11/5/5 132/107/135 5/6/6
f 17/108/12 134/109/62 129/110/136
f 7/1/1 131/111/137 11/5/5
f 7/1/1 11/5/5 12/2/2
f 10/4/4 12/2/2 11/5/5
f 14/7/7 15/11/11 12/2/2
f 13/8/8 15/11/11 14/7/7
f 8/10/10 9/3/3 15/11/11
f 17/12/12 22/12/30 50/13/13
f 36/15/15 38/40/38 6/9/9
f 123/16/16 37/44/42 1/17/17
f 8/10/10 116/112/138 127/19/19
f 127/19/19 58/113/67 16/20/20
f 8/10/10 16/20/20 18/114/139
f 19/21/21 17/108/12 7/1/1
f 8/10/10 18/114/139 19/21/21
f 23/22/22 25/26/11 24/23/23
f 27/25/25 28/30/3 25/26/11
f 26/27/26 28/30/3 27/25/25
f 26/27/26 30/32/29 31/29/2
f 29/31/28 31/29/2 30/32/29
f 24/23/23 25/26/11 31/29/2
f 21/28/27 27/25/25 59/33/31
f 27/25/25 23/22/22 60/35/33
f 23/22/22 20/24/24 61/35/34
f 17/12/12 19/36/21 29/31/28
f 19/36/21 18/115/139 24/23/23
f 24/23/23 18/115/139 16/24/20
f 33/37/35 36/15/15 14/7/7
f 13/8/8 6/9/9 118/38/36
f 117/39/37 116/112/138 8/10/10
f 118/38/36 6/9/9 38/40/38
f 32/42/40 33/37/35 10/4/4
f 3/43/41 1/17/17 37/44/42
f 4/46/44 3/43/41 34/45/43
f 2/48/46 4/46/44 39/47/45
f 39/50/45 47/59/53 40/51/48
f 36/53/15 33/66/35 46/54/49
f 35/52/47 40/51/48 54/56/51
f 34/58/43 43/62/56 47/59/53
f 36/53/15 42/55/50 45/60/54
f 34/58/43 37/61/42 44/61/55
f 44/61/55 45/60/54 42/55/50
f 43/62/56 42/55/50 46/54/49
f 47/59/53 46/54/49 41/63/57
f 124/64/58 45/60/54 44/61/55
f 33/66/35 32/72/40 41/63/57
f 38/60/38 45/60/54 124/64/58
f 21/28/27 51/105/133 48/68/60
f 26/27/26 48/68/60 49/69/61
f 30/32/29 49/69/61 50/13/13
f 134/70/62 52/14/14 50/13/13
f 41/63/57 55/73/64 54/56/51
f 32/72/40 57/103/73 55/73/64
f 56/57/52 54/56/51 140/74/65
f 58/35/67 61/35/34 20/24/24
f 120/76/68 60/35/33 61/35/34
f 119/77/70 59/33/31 60/35/33
f 126/78/71 53/34/32 59/33/31
f 5/6/6 132/107/135 135/79/72
f 57/80/73 32/42/40 5/6/6
f 56/82/52 141/116/66 130/81/74
f 130/81/74 2/48/46 35/49/47
f 37/61/42 123/117/16 125/65/59
f 127/76/19 121/76/69 61/35/34
f 138/70/129 139/71/63 50/13/13
f 137/101/130 138/70/129 49/69/61
f 136/102/131 140/74/65 54/56/51
f 57/103/73 135/118/72 136/102/131
f 133/104/132 137/101/130 48/68/60
f 53/34/32 126/78/71 142/106/134
f 142/106/134 133/104/132 51/105/133
f 51/105/133 21/28/27 53/34/32
f 11/5/5 131/111/137 132/107/135
f 129/110/136 7/1/1 17/108/12
f 17/108/12 52/119/14 134/109/62
f 7/1/1 129/110/136 131/111/137
