# Blender 4.0.2
# www.blender.org
o GrassMid03
v 0.447595 -0.048520 0.001995
v 0.476595 -0.023143 0.001995
v 0.476595 0.027612 0.001995
v 0.447595 0.052989 0.001995
v 0.269445 0.433190 -0.073427
v 0.401259 0.405360 0.013895
v 0.265633 0.397692 -0.059287
v 0.256430 0.382988 -0.025150
v 0.247227 0.397692 0.008986
v 0.243415 0.433190 0.023126
v 0.247227 0.468688 0.008986
v 0.256430 0.483392 -0.025150
v 0.265633 0.468688 -0.059287
v 0.245119 0.433190 -0.114327
v 0.401432 0.405360 -0.090529
v 0.247606 0.397692 -0.099895
v 0.253611 0.382988 -0.065053
v 0.259616 0.397692 -0.030211
v 0.262103 0.433190 -0.015779
v 0.259616 0.468688 -0.030211
v 0.253611 0.483392 -0.065053
v 0.247606 0.468688 -0.099895
v 0.262967 0.397692 -0.208878
v 0.262967 0.397692 -0.138168
v 0.412967 0.398261 -0.166452
v 0.262967 0.468688 -0.138168
v 0.228833 0.433190 -0.256681
v 0.381747 0.405360 -0.283465
v 0.249858 0.483392 -0.211316
v 0.470378 -0.497984 0.500000
v 0.389440 0.390208 0.500000
v 0.448781 0.334658 0.500000
v 0.470378 0.259087 0.500000
v 0.263639 0.496126 0.500000
v 0.292763 0.468861 0.500000
v 0.303363 0.431771 0.500000
v 0.470378 0.022087 0.500000
v 0.470378 -0.074588 0.500000
v 0.500000 -0.001157 0.500000
v 0.500000 -0.049494 0.500000
v 0.224018 0.500000 0.500000
v 0.303363 0.410427 0.500000
v 0.389440 0.390208 -0.500000
v 0.448781 0.334657 -0.500000
v 0.470378 0.259087 -0.500000
v 0.224018 0.500000 -0.500000
v 0.303363 0.410427 -0.500000
v 0.500000 -0.001157 -0.500000
v 0.500000 -0.049494 -0.500000
v 0.470378 0.022087 -0.500000
v 0.470378 -0.074588 -0.500000
v 0.263639 0.496126 -0.500000
v 0.292763 0.468861 -0.500000
v 0.303363 0.431771 -0.500000
v 0.470378 -0.497983 -0.500000
v -0.500000 0.500000 0.500000
v -0.500000 0.500000 -0.500000
vn 0.8534 0.5213 -0.0000
vn 0.4123 0.9111 -0.0000
vn 0.0487 0.9988 -0.0000
vn 0.7838 0.6210 -0.0000
vn 0.4720 0.8816 -0.0000
vn 0.9903 0.1387 -0.0000
vn 0.8903 0.4552 -0.0152
vn 0.0806 0.9967 -0.0000
vn 0.8968 0.4424 -0.0053
vn 0.9961 -0.0884 -0.0002
vn 0.9025 -0.4259 0.0638
vn 0.6881 -0.7256 -0.0002
vn 0.5572 0.0360 -0.8296
vn 0.9520 -0.1666 0.2567
vn 0.3810 -0.6712 -0.6359
vn 0.1424 -0.9891 0.0384
vn 0.0098 -0.6712 0.7412
vn 0.0647 0.0360 0.9973
vn 0.2468 0.6555 0.7137
vn 0.4456 0.8871 0.1201
vn 0.5721 0.6555 -0.4930
vn 0.1567 0.0360 -0.9870
vn 0.9717 -0.1666 -0.1675
vn 0.0783 -0.6712 -0.7371
vn 0.1454 -0.9891 -0.0251
vn 0.3206 -0.6712 0.6684
vn 0.4780 0.0360 0.8776
vn 0.5240 0.6555 0.5438
vn 0.4548 0.8871 -0.0784
vn 0.3117 0.6555 -0.6878
vn 0.0438 -0.8922 -0.4495
vn 0.9741 -0.2217 0.0443
vn 0.4245 -0.5762 0.6984
vn 0.6110 0.5796 0.5392
vn 0.4192 0.8191 -0.3916
vn -0.1635 0.0497 -0.9853
vn 0.8159 -0.1924 -0.5452
vn 0.9920 0.1257 -0.0142
vn 0.9816 0.1894 0.0256
vn 0.9158 -0.3999 0.0376
vn 0.9158 -0.3997 -0.0379
vn 1.0000 -0.0000 -0.0000
vn 0.9077 0.4193 -0.0167
vn 0.9076 0.4194 0.0166
vn -0.0000 1.0000 -0.0000
vn 0.9025 -0.4259 -0.0643
vt 0.093641 0.645440
vt 0.093695 0.643981
vt 0.093695 0.645440
vt 0.093748 0.645440
vt 0.093748 0.643981
vt 0.097199 0.904520
vt 0.097162 0.904022
vt 0.097199 0.904018
vt 0.093641 0.643981
vt 0.093641 0.643981
vt 0.229392 0.899577
vt 0.229392 0.899339
vt 0.229392 0.899100
vt 0.229236 0.899339
vt 0.229236 0.899105
vt 0.108076 0.642786
vt 0.107626 0.644587
vt 0.107626 0.642786
vt 0.107175 0.644587
vt 0.107175 0.642786
vt 0.106725 0.644587
vt 0.106725 0.642786
vt 0.106275 0.644587
vt 0.106275 0.642786
vt 0.105824 0.644587
vt 0.105824 0.642786
vt 0.105374 0.644587
vt 0.105374 0.642786
vt 0.104924 0.644587
vt 0.104924 0.642786
vt 0.104474 0.644587
vt 0.104474 0.642786
vt 0.096880 0.904499
vt 0.096509 0.904261
vt 0.096509 0.904022
vt 0.097002 0.904499
vt 0.096880 0.904022
vt 0.097002 0.904022
vt 0.096354 0.904022
vt 0.096354 0.904499
vt 0.095983 0.904499
vt 0.229392 0.899573
vt 0.229392 0.899105
vt 0.097162 0.904499
vt 0.094758 0.643985
vt 0.093641 0.643981
vt 0.229236 0.899573
vt 0.229236 0.899578
vt 0.229236 0.899100
vt 0.096509 0.904499
vt 0.095983 0.904022
vt 0.096354 0.904261
vt 0.094687 0.645423
s 1
f 35/1/1 52/2/2 34/3/2
f 41/4/3 52/2/2 46/5/3
f 42/6/4 43/7/5 47/8/4
f 42/1/4 54/9/6 36/1/6
f 36/1/6 53/10/1 35/1/1
f 37/11/7 3/12/8 50/13/9
f 1/14/10 49/15/11 2/14/12
f 5/16/13 6/17/14 7/18/15
f 7/18/15 6/19/14 8/20/16
f 8/20/16 6/21/14 9/22/17
f 9/22/17 6/23/14 10/24/18
f 10/24/18 6/25/14 11/26/19
f 11/26/19 6/27/14 12/28/20
f 12/28/20 6/29/14 13/30/21
f 13/30/21 6/31/14 5/32/13
f 14/16/22 15/17/23 16/18/24
f 16/18/24 15/19/23 17/20/25
f 17/20/25 15/21/23 18/22/26
f 18/22/26 15/23/23 19/24/27
f 19/24/27 15/25/23 20/26/28
f 20/26/28 15/27/23 21/28/29
f 21/28/29 15/29/23 22/30/30
f 22/30/30 15/31/23 14/32/22
f 23/18/31 25/19/32 24/20/33
f 24/24/33 25/25/32 26/26/34
f 26/28/34 25/29/32 29/30/35
f 29/30/35 25/31/32 23/32/31
f 27/16/36 28/17/37 23/18/31
f 23/20/31 28/21/37 24/22/33
f 24/24/33 28/25/37 26/26/34
f 26/26/34 28/27/37 29/28/35
f 29/28/35 28/29/37 27/30/36
f 33/33/38 4/34/39 50/35/9
f 32/36/1 45/37/6 44/38/1
f 51/39/40 38/40/41 30/41/42
f 39/42/43 2/14/12 48/43/44
f 32/36/1 43/7/5 31/44/5
f 57/45/45 41/4/3 46/5/3
f 35/1/1 53/10/1 52/2/2
f 41/4/3 34/3/2 52/2/2
f 42/6/4 31/44/5 43/7/5
f 42/1/4 47/46/4 54/9/6
f 36/1/6 54/9/6 53/10/1
f 50/13/9 4/12/39 37/11/7
f 37/11/7 39/42/43 3/12/8
f 3/12/8 48/43/44 50/13/9
f 40/47/46 38/48/41 1/14/10
f 1/14/10 51/49/40 49/15/11
f 2/14/12 40/47/46 1/14/10
f 50/35/9 45/37/6 33/33/38
f 33/33/38 37/50/7 4/34/39
f 32/36/1 33/33/38 45/37/6
f 30/41/42 55/51/42 51/39/40
f 51/39/40 1/52/10 38/40/41
f 48/43/44 3/12/8 39/42/43
f 39/42/43 40/47/46 2/14/12
f 2/14/12 49/15/11 48/43/44
f 32/36/1 44/38/1 43/7/5
f 57/45/45 56/53/45 41/4/3
l 3 4
l 2 3
