# Blender 4.0.2
# www.blender.org
o GrassCorner02
v 0.308715 -0.498326 -0.470378
v 0.470378 -0.498326 -0.308714
v 0.389440 -0.498326 -0.448780
v 0.448781 -0.498326 -0.389440
v 0.450000 0.245949 -0.297989
v 0.291732 0.245949 -0.459653
v 0.370762 0.383073 -0.297989
v 0.291732 0.383073 -0.378715
v 0.367418 0.362534 -0.375299
v 0.428856 0.245949 -0.378715
v 0.428856 0.324979 -0.297989
v 0.408318 0.321635 -0.375299
v 0.291732 0.324979 -0.438055
v 0.370762 0.245949 -0.438055
v 0.367418 0.321635 -0.417076
v 0.214053 0.404217 -0.297989
v 0.291732 0.404217 -0.218644
v 0.252892 0.404217 -0.287359
v 0.281325 0.404217 -0.258317
v 0.214053 0.426538 -0.297989
v 0.214053 0.504217 -0.218644
v 0.291732 0.426538 -0.218644
v 0.214053 0.465327 -0.287389
v 0.252841 0.426538 -0.287389
v 0.251200 0.463685 -0.277092
v 0.252841 0.493840 -0.218644
v 0.214053 0.493840 -0.258265
v 0.251200 0.483759 -0.256588
v 0.281354 0.426538 -0.258265
v 0.281354 0.465327 -0.218644
v 0.271274 0.463685 -0.256588
v 0.450000 -0.096333 -0.297989
v 0.291732 0.004768 -0.459653
v 0.450000 0.004768 -0.297989
v 0.370762 0.004768 -0.438055
v 0.370762 -0.096333 -0.438055
v 0.291732 -0.096333 -0.459653
v 0.428856 0.004768 -0.378715
v 0.428856 -0.096333 -0.378715
v 0.479000 -0.071058 -0.324378
v 0.479000 -0.020507 -0.324378
v 0.398178 -0.020507 -0.467245
v 0.398178 -0.071058 -0.467245
v 0.317566 -0.071058 -0.489275
v 0.317566 -0.020507 -0.489275
v 0.457433 -0.020507 -0.406718
v 0.457433 -0.071058 -0.406718
v 0.294414 0.480717 0.228325
v 0.333202 0.470340 0.228324
v 0.361715 0.441827 0.228324
v 0.372093 0.403038 0.228324
v 0.372093 0.380717 0.228325
v 0.000282 0.404217 -0.264550
v 0.000282 0.426538 -0.264550
v 0.000282 0.465327 -0.253950
v 0.000282 0.493840 -0.224826
v 0.000282 0.504217 -0.185205
v -0.219060 -0.028893 -0.459653
v -0.201837 -0.054168 -0.489275
v -0.219060 -0.129994 -0.459653
v -0.201837 -0.104719 -0.489275
v -0.005785 0.434212 -0.257079
v 0.044216 0.406494 -0.410296
v 0.008860 0.398857 -0.257079
v 0.044216 0.384212 -0.257079
v 0.079571 0.398857 -0.257079
v 0.094216 0.434212 -0.257079
v 0.079571 0.469567 -0.257079
v 0.044216 0.484212 -0.257079
v 0.008860 0.469567 -0.257079
v -0.038942 0.434212 -0.222213
v -0.056653 0.406494 -0.382702
v -0.025655 0.398857 -0.228503
v 0.006422 0.384212 -0.243689
v 0.038500 0.398857 -0.258875
v 0.051787 0.434212 -0.265166
v 0.038500 0.469567 -0.258875
v 0.006422 0.484212 -0.243689
v -0.025655 0.469567 -0.228503
v -0.468957 0.434212 -0.244928
v -0.369341 0.406494 -0.370349
v -0.455250 0.398857 -0.239661
v -0.422159 0.384212 -0.226944
v -0.389069 0.398857 -0.214228
v -0.375362 0.434212 -0.208961
v -0.389069 0.469567 -0.214228
v -0.422159 0.484212 -0.226944
v -0.455250 0.469567 -0.239661
v -0.493125 0.434212 -0.224222
v -0.473262 0.406494 -0.380802
v -0.484934 0.398857 -0.225330
v -0.462148 0.384212 -0.228006
v -0.426890 0.398857 -0.230682
v -0.412285 0.434212 -0.231790
v -0.426890 0.469567 -0.230682
v -0.462148 0.484212 -0.228006
v -0.482201 0.469567 -0.225330
v 0.293143 0.434212 0.320025
v 0.415930 0.406494 0.421778
v 0.287987 0.398857 0.334026
v 0.275537 0.384212 0.367826
v 0.263088 0.398857 0.401627
v 0.257931 0.434212 0.415628
v 0.263088 0.469567 0.401627
v 0.275537 0.484212 0.367826
v 0.287987 0.469567 0.334026
v 0.272871 0.434212 0.276048
v 0.426164 0.406494 0.315627
v 0.273956 0.398857 0.290966
v 0.276576 0.384212 0.326980
v 0.279196 0.398857 0.362995
v 0.280281 0.434212 0.377912
v 0.279196 0.469567 0.362995
v 0.276576 0.484212 0.326980
v 0.273956 0.469567 0.290966
v 0.288585 0.434212 -0.051072
v 0.438585 0.406494 0.000000
v 0.288585 0.398857 -0.036114
v 0.288585 0.384212 0.000000
v 0.288585 0.398857 0.036114
v 0.288585 0.434212 0.051073
v 0.288585 0.469567 0.036114
v 0.288585 0.484212 0.000000
v 0.288585 0.469567 -0.036114
v 0.254451 0.434212 -0.084942
v 0.411570 0.406494 -0.103033
v 0.260610 0.398857 -0.071370
v 0.275477 0.384212 -0.038604
v 0.290344 0.398857 -0.005838
v 0.296502 0.434212 0.007734
v 0.290344 0.469567 -0.005838
v 0.275477 0.484212 -0.038604
v 0.260610 0.469567 -0.071370
v 0.389440 0.388641 0.500000
v 0.448781 0.333314 0.500000
v 0.470378 0.258047 0.500000
v 0.224018 0.500000 0.500000
v 0.303363 0.408778 0.500000
v 0.500000 -0.001152 0.500000
v 0.500000 -0.049295 0.500000
v 0.470378 0.021999 0.500000
v 0.470378 -0.074289 0.500000
v 0.263639 0.494133 0.500000
v 0.292763 0.466978 0.500000
v 0.303363 0.430037 0.500000
v 0.470378 -0.498326 0.500000
v -0.500000 0.258047 -0.470378
v -0.500000 0.333314 -0.448780
v -0.500000 0.388641 -0.389440
v -0.500000 -0.498326 -0.470378
v -0.500000 0.494133 -0.263638
v -0.500000 0.466978 -0.292763
v -0.500000 0.430037 -0.303363
v -0.500000 -0.049295 -0.500000
v -0.500000 -0.074289 -0.470378
v -0.500000 0.408778 -0.303363
v -0.500000 0.500000 -0.224018
v -0.500000 0.021998 -0.470378
v -0.500000 -0.001152 -0.500000
v -0.500000 0.500000 0.500000
vn 0.1292 0.8763 -0.4641
vn 0.4688 0.8742 -0.1265
vn 0.4504 0.7756 -0.4422
vn 0.1363 0.1279 -0.9824
vn 0.3197 0.8703 -0.3746
vn 0.0948 0.3911 -0.9154
vn 0.0549 0.6377 -0.7684
vn 0.0484 0.6680 -0.7426
vn 0.4413 0.8970 0.0267
vn 0.9692 0.1293 -0.2094
vn 0.9920 0.1222 0.0318
vn 0.8605 0.4920 -0.1321
vn 0.8660 0.1222 -0.4849
vn 0.9821 0.1273 -0.1390
vn 0.4539 0.4539 -0.7668
vn 0.7756 0.4504 -0.4422
vn 0.1316 0.4978 -0.8572
vn 0.4980 0.1235 -0.8583
vn 0.4237 0.5126 -0.7468
vn -0.0714 -0.4561 -0.8870
vn 0.1571 -0.3529 -0.9224
vn 0.1357 0.0321 -0.9902
vn 0.6342 0.6825 -0.3633
vn 0.0570 0.4954 -0.8668
vn 0.4979 0.1235 -0.8584
vn 0.0544 0.1305 -0.9900
vn 0.0827 0.8641 -0.4965
vn 0.4772 0.8678 -0.1385
vn 0.1117 0.9867 -0.1179
vn 0.8661 0.1222 -0.4848
vn 0.8484 0.4972 -0.1819
vn 0.0027 0.9948 -0.1018
vn -0.0177 0.8782 -0.4780
vn -0.0327 0.5150 -0.8565
vn -0.0384 0.1339 -0.9902
vn 0.3733 0.6845 -0.6262
vn 0.7737 0.6165 -0.1458
vn 0.0149 0.1400 -0.9900
vn 0.0170 0.5228 -0.8523
vn 0.0138 0.8811 -0.4726
vn 0.7563 0.5088 -0.4112
vn 0.8843 0.4515 -0.1186
vn 0.4271 -0.4929 -0.7580
vn 0.1218 -0.4523 -0.8835
vn 0.7680 -0.4848 -0.4184
vn 0.5036 0.0474 -0.8626
vn 0.9899 0.0532 -0.1314
vn 0.9028 -0.4184 -0.0998
vn 0.9108 -0.4127 -0.0118
vn 0.9027 -0.4301 -0.0112
vn 0.8918 0.4301 -0.1406
vn 0.7738 0.4474 -0.4484
vn 0.8917 -0.4324 -0.1339
vn 0.4594 0.4483 -0.7668
vn 0.7738 -0.4474 -0.4484
vn 0.1408 -0.4288 -0.8924
vn 0.4594 -0.4483 -0.7668
vn 0.4467 0.5281 -0.7222
vn -0.0410 -0.3733 -0.9268
vn 0.1240 0.4350 -0.8918
vn 0.1107 0.4705 -0.8754
vn 0.0846 0.4335 -0.8972
vn 0.8645 -0.0000 0.5026
vn -0.9482 0.0354 -0.3158
vn -0.0000 -0.1633 -0.9866
vn -0.7125 -0.6731 -0.1980
vn -0.0000 -0.9896 -0.1439
vn 0.7125 -0.6731 -0.1980
vn 0.9482 0.0354 -0.3158
vn 0.6270 0.6587 -0.4159
vn -0.0000 0.8918 -0.4524
vn -0.6270 0.6587 -0.4159
vn -0.9940 0.0351 0.1036
vn -0.4089 -0.1637 -0.8978
vn -0.7331 -0.6704 0.1142
vn -0.0651 -0.9895 -0.1290
vn 0.5629 -0.6770 -0.4743
vn 0.7302 0.0361 -0.6822
vn 0.3912 0.6630 -0.6383
vn -0.1966 0.8911 -0.4090
vn -0.7468 0.6546 -0.1176
vn -0.7787 0.0360 -0.6264
vn 0.3421 -0.1636 -0.9253
vn -0.5968 -0.6763 -0.4318
vn 0.0547 -0.9895 -0.1336
vn 0.7392 -0.6707 0.0606
vn 0.9989 0.0351 0.0312
vn 0.7357 0.6552 -0.1717
vn 0.1648 0.8913 -0.4224
vn -0.4381 0.6624 -0.6077
vn -0.8274 -0.5544 -0.0894
vn -0.1189 -0.1609 -0.9798
vn -0.1029 -0.9853 -0.1362
vn 0.6957 -0.6738 -0.2492
vn 0.9226 0.0355 -0.3841
vn 0.5940 0.6595 -0.4606
vn -0.1435 0.8863 -0.4404
vn -0.7742 0.5698 -0.2757
vn -0.9888 0.0615 -0.1363
vn 0.6424 0.0358 -0.7655
vn 0.9210 -0.1657 0.3526
vn 0.4452 -0.6731 -0.5905
vn 0.1386 -0.9892 0.0477
vn -0.0625 -0.6788 0.7317
vn -0.0324 0.0366 0.9988
vn 0.1776 0.6628 0.7274
vn 0.4316 0.8884 0.1565
vn 0.6194 0.6555 -0.4320
vn 0.2560 0.0364 -0.9660
vn 0.9833 -0.1661 -0.0743
vn 0.1507 -0.6770 -0.7204
vn 0.1466 -0.9891 -0.0100
vn 0.2577 -0.6757 0.6907
vn 0.3982 0.0362 0.9166
vn 0.4716 0.6584 0.5866
vn 0.4588 0.8879 -0.0329
vn 0.3786 0.6600 -0.6489
vn 0.3281 0.0363 -0.9439
vn 0.9861 -0.1661 -0.0000
vn 0.2048 -0.6763 -0.7075
vn 0.1469 -0.9891 -0.0000
vn 0.2048 -0.6763 0.7075
vn 0.3281 0.0363 0.9439
vn 0.4263 0.6592 0.6194
vn 0.4600 0.8879 -0.0000
vn 0.4263 0.6592 -0.6194
vn -0.1079 0.0367 -0.9935
vn 0.8920 -0.1656 -0.4207
vn -0.1176 -0.6791 -0.7246
vn 0.1349 -0.9892 -0.0572
vn 0.4883 -0.6725 0.5562
vn 0.6975 0.0356 0.7157
vn 0.6499 0.6549 0.3856
vn 0.4188 0.8886 -0.1871
vn 0.1223 0.6633 -0.7383
vn 0.4654 0.8845 -0.0343
vn 0.8787 0.4769 0.0220
vn 0.9621 0.1461 0.2302
vn 0.5298 0.8481 0.0051
vn 0.8230 0.5447 0.1612
vn 0.9997 0.0151 -0.0179
vn 0.8974 0.4401 -0.0324
vn 0.1537 0.9881 -0.0056
vn 0.3928 0.9192 0.0295
vn 0.8994 0.4360 -0.0324
vn 0.9898 0.1396 -0.0265
vn 0.0103 0.9999 -0.0025
vn 0.3609 -0.5575 -0.7476
vn -0.0250 0.6961 -0.7175
vn 0.0771 0.1382 -0.9874
vn 0.8236 0.5464 0.1519
vn -0.0000 -0.0000 -1.0000
vn 0.0310 0.8936 -0.4478
vn -0.0024 0.9970 -0.0771
vn 0.0670 0.5155 -0.8542
vn 0.8649 0.0562 -0.4988
vn 0.8526 0.5218 -0.0267
vn 0.0614 0.9966 -0.0548
vt 0.097162 0.903533
vt 0.097162 0.903644
vt 0.097145 0.903550
vt 0.096880 0.903493
vt 0.096509 0.903287
vt 0.096509 0.903123
vt 0.097592 0.903644
vt 0.097236 0.903644
vt 0.093641 0.643564
vt 0.093641 0.643003
vt 0.097002 0.903644
vt 0.096880 0.903606
vt 0.096880 0.903644
vt 0.096997 0.903529
vt 0.096997 0.903598
vt 0.097002 0.903493
vt 0.096880 0.903531
vt 0.096509 0.903531
vt 0.096354 0.903123
vt 0.096354 0.903287
vt 0.095983 0.903493
vt 0.097204 0.903644
vt 0.093748 0.642895
vt 0.093695 0.642895
vt 0.093748 0.642895
vt 0.093748 0.642949
vt 0.093697 0.642895
vt 0.093695 0.643003
vt 0.093748 0.643003
vt 0.093641 0.642951
vt 0.093697 0.642951
vt 0.093641 0.642949
vt 0.093641 0.643003
vt 0.094309 0.643003
vt 0.094309 0.642949
vt 0.094309 0.642895
vt 0.093694 0.642895
vt 0.093641 0.642949
vt 0.096880 0.903115
vt 0.097002 0.903115
vt 0.097350 0.903342
vt 0.096509 0.903606
vt 0.096509 0.903644
vt 0.096354 0.903531
vt 0.096354 0.903493
vt 0.096354 0.903606
vt 0.095983 0.903531
vt 0.095983 0.903644
vt 0.096354 0.903644
vt 0.229236 0.898722
vt 0.229236 0.899105
vt 0.229236 0.899100
vt 0.229392 0.898685
vt 0.229392 0.898722
vt 0.229392 0.898685
vt 0.229236 0.898685
vt 0.229236 0.898722
vt 0.229392 0.898609
vt 0.229392 0.898609
vt 0.229236 0.898609
vt 0.229236 0.898685
vt 0.229236 0.898571
vt 0.229236 0.898609
vt 0.229392 0.898366
vt 0.229236 0.898195
vt 0.229392 0.898571
vt 0.229392 0.898195
vt 0.229392 0.898571
vt 0.000000 0.000000
vt 0.108076 0.642786
vt 0.107626 0.644587
vt 0.107626 0.642786
vt 0.107175 0.644587
vt 0.107175 0.642786
vt 0.106725 0.644587
vt 0.106725 0.642786
vt 0.106275 0.644587
vt 0.106275 0.642786
vt 0.105824 0.644587
vt 0.105824 0.642786
vt 0.105374 0.644587
vt 0.105374 0.642786
vt 0.104924 0.644587
vt 0.104924 0.642786
vt 0.104474 0.644587
vt 0.104474 0.642786
vt 0.097162 0.904022
vt 0.093641 0.643981
vt 0.093695 0.643564
vt 0.093641 0.643981
vt 0.095983 0.904022
vt 0.229392 0.898722
vt 0.229392 0.899105
vt 0.093748 0.643564
vt 0.093695 0.643981
vt 0.096509 0.904022
vt 0.096880 0.904022
vt 0.094758 0.643985
vt 0.097199 0.903874
vt 0.229236 0.898366
vt 0.094781 0.642895
vt 0.096509 0.903493
vt 0.097429 0.903644
vt 0.093641 0.643981
vt 0.095983 0.903115
vt 0.097218 0.903644
vt 0.097199 0.903669
vt 0.094781 0.642949
vt 0.094781 0.643003
vt 0.094781 0.642895
vt 0.095983 0.903606
vt 0.229392 0.898201
vt 0.097002 0.904022
vt 0.096354 0.904022
vt 0.229392 0.899100
vt 0.093748 0.643981
vt 0.097199 0.904018
vt 0.229236 0.898201
vt 0.094781 0.642895
s 1
f 8/1/1 7/2/2 9/3/3
f 6/4/4 58/5/5 158/6/6
f 156/7/7 16/8/8 8/1/1
f 52/9/9 22/10/10 51/9/11
f 11/11/12 9/3/3 7/2/2
f 10/12/13 11/11/12 5/13/14
f 10/12/13 15/14/15 12/15/16
f 13/16/17 14/17/18 6/4/4
f 8/1/1 15/14/15 13/16/17
f 9/3/3 12/15/16 15/14/15
f 35/18/19 6/4/4 14/17/18
f 155/19/20 60/20/21 1/21/22
f 19/22/23 7/2/2 8/1/1
f 23/23/24 24/24/25 20/25/26
f 27/26/27 25/27/15 23/23/24
f 26/28/28 27/26/27 21/29/29
f 26/28/28 31/30/16 28/31/3
f 29/32/30 30/33/31 22/10/10
f 29/32/30 25/27/15 31/30/16
f 25/27/15 28/31/3 31/30/16
f 57/34/32 27/26/27 56/35/33
f 56/35/33 23/23/24 55/36/34
f 55/36/34 20/25/26 54/36/35
f 16/25/8 24/24/25 18/37/36
f 24/24/25 19/38/23 18/37/36
f 29/32/30 17/33/37 19/38/23
f 13/16/17 147/39/38 148/40/39
f 149/41/40 13/16/17 148/40/39
f 38/42/41 14/17/18 10/12/13
f 34/43/42 10/12/13 5/13/14
f 36/44/43 1/21/22 37/45/44
f 39/46/45 3/47/46 36/44/43
f 2/48/47 39/46/45 32/49/48
f 32/50/48 140/51/49 142/52/50
f 38/53/41 41/54/51 46/55/52
f 39/56/45 40/57/53 32/50/48
f 35/58/19 46/55/52 42/59/54
f 36/60/43 47/61/55 39/56/45
f 44/62/56 42/59/54 43/63/57
f 43/63/57 46/55/52 47/61/55
f 47/61/55 41/54/51 40/57/53
f 59/64/58 44/62/56 154/65/59
f 58/64/5 45/66/60 159/67/61
f 36/60/43 44/62/56 43/63/57
f 35/58/19 45/66/60 33/68/62
s 0
f 60/69/63 59/69/63 58/69/63
s 1
f 62/70/64 63/71/65 64/72/66
f 64/72/66 63/73/65 65/74/67
f 65/74/67 63/75/65 66/76/68
f 66/76/68 63/77/65 67/78/69
f 67/78/69 63/79/65 68/80/70
f 68/80/70 63/81/65 69/82/71
f 69/82/71 63/83/65 70/84/72
f 70/84/72 63/85/65 62/86/64
f 71/70/73 72/71/74 73/72/75
f 73/72/75 72/73/74 74/74/76
f 74/74/76 72/75/74 75/76/77
f 75/76/77 72/77/74 76/78/78
f 76/78/78 72/79/74 77/80/79
f 77/80/79 72/81/74 78/82/80
f 78/82/80 72/83/74 79/84/81
f 79/84/81 72/85/74 71/86/73
f 80/70/82 81/71/83 82/72/84
f 82/72/84 81/73/83 83/74/85
f 83/74/85 81/75/83 84/76/86
f 84/76/86 81/77/83 85/78/87
f 85/78/87 81/79/83 86/80/88
f 86/80/88 81/81/83 87/82/89
f 87/82/89 81/83/83 88/84/90
f 88/84/90 81/85/83 80/86/82
f 91/72/91 90/73/92 92/74/93
f 92/74/93 90/75/92 93/76/94
f 93/76/94 90/77/92 94/78/95
f 94/78/95 90/79/92 95/80/96
f 95/80/96 90/81/92 96/82/97
f 96/82/97 90/83/92 97/84/98
f 89/70/99 90/71/92 91/72/91
f 98/70/100 99/71/101 100/72/102
f 100/72/102 99/73/101 101/74/103
f 101/74/103 99/75/101 102/76/104
f 102/76/104 99/77/101 103/78/105
f 103/78/105 99/79/101 104/80/106
f 104/80/106 99/81/101 105/82/107
f 105/82/107 99/83/101 106/84/108
f 106/84/108 99/85/101 98/86/100
f 107/70/109 108/71/110 109/72/111
f 109/72/111 108/73/110 110/74/112
f 110/74/112 108/75/110 111/76/113
f 111/76/113 108/77/110 112/78/114
f 112/78/114 108/79/110 113/80/115
f 113/80/115 108/81/110 114/82/116
f 114/82/116 108/83/110 115/84/117
f 115/84/117 108/85/110 107/86/109
f 116/70/118 117/71/119 118/72/120
f 118/72/120 117/73/119 119/74/121
f 119/74/121 117/75/119 120/76/122
f 120/76/122 117/77/119 121/78/123
f 121/78/123 117/79/119 122/80/124
f 122/80/124 117/81/119 123/82/125
f 123/82/125 117/83/119 124/84/126
f 124/84/126 117/85/119 116/86/118
f 125/70/127 126/71/128 127/72/129
f 127/72/129 126/73/128 128/74/130
f 128/74/130 126/75/128 129/76/131
f 129/76/131 126/77/128 130/78/132
f 130/78/132 126/79/128 131/80/133
f 131/80/133 126/81/128 132/82/134
f 132/82/134 126/83/128 133/84/135
f 133/84/135 126/85/128 125/86/127
f 134/87/136 11/11/12 7/2/2
f 50/9/137 145/88/138 51/9/11
f 49/89/139 144/90/140 50/9/137
f 32/49/48 146/91/141 2/48/47
f 34/92/42 139/93/142 41/54/51
f 41/54/51 140/51/49 40/57/53
f 48/94/143 143/95/144 49/89/139
f 5/13/14 141/96/145 34/43/42
f 11/11/12 136/97/146 5/13/14
f 160/98/147 48/94/143 57/34/32
f 7/2/2 52/99/9 134/87/136
f 60/100/21 154/65/59 61/100/148
f 53/36/149 153/101/150 54/36/35
f 97/84/98 90/85/92 89/86/99
f 158/6/6 147/39/38 6/4/4
f 6/4/4 33/102/62 58/5/5
f 8/1/1 149/41/40 156/7/7
f 156/7/7 53/103/149 16/8/8
f 145/88/138 138/104/151 52/9/9
f 52/9/9 17/33/37 22/10/10
f 51/9/11 145/88/138 52/9/9
f 11/11/12 12/15/16 9/3/3
f 10/12/13 12/15/16 11/11/12
f 10/12/13 14/17/18 15/14/15
f 13/16/17 15/14/15 14/17/18
f 8/1/1 9/3/3 15/14/15
f 35/18/19 33/102/62 6/4/4
f 1/21/22 150/105/152 155/19/20
f 60/20/21 37/45/44 1/21/22
f 8/1/1 16/8/8 18/106/36
f 19/22/23 17/107/37 7/2/2
f 8/1/1 18/106/36 19/22/23
f 23/23/24 25/27/15 24/24/25
f 27/26/27 28/31/3 25/27/15
f 26/28/28 28/31/3 27/26/27
f 26/28/28 30/33/31 31/30/16
f 29/32/30 31/30/16 30/33/31
f 29/32/30 24/24/25 25/27/15
f 151/108/153 157/109/154 57/34/32
f 57/34/32 21/29/29 27/26/27
f 56/35/33 151/108/153 57/34/32
f 152/110/155 151/108/153 56/35/33
f 56/35/33 27/26/27 23/23/24
f 55/36/34 152/110/155 56/35/33
f 153/101/150 152/110/155 55/36/34
f 55/36/34 23/23/24 20/25/26
f 54/36/35 153/101/150 55/36/34
f 16/25/8 20/25/26 24/24/25
f 24/24/25 29/32/30 19/38/23
f 29/32/30 22/10/10 17/33/37
f 13/16/17 6/4/4 147/39/38
f 149/41/40 8/1/1 13/16/17
f 38/42/41 35/18/19 14/17/18
f 34/43/42 38/42/41 10/12/13
f 36/44/43 3/47/46 1/21/22
f 39/46/45 4/111/156 3/47/46
f 2/48/47 4/111/156 39/46/45
f 32/50/48 40/57/53 140/51/49
f 38/53/41 34/92/42 41/54/51
f 39/56/45 47/61/55 40/57/53
f 35/58/19 38/53/41 46/55/52
f 36/60/43 43/63/57 47/61/55
f 44/62/56 45/66/60 42/59/54
f 43/63/57 42/59/54 46/55/52
f 47/61/55 46/55/52 41/54/51
f 154/65/59 159/67/61 59/64/58
f 59/64/58 45/66/60 44/62/56
f 44/62/56 61/100/148 154/65/59
f 159/67/61 158/112/6 58/64/5
f 58/64/5 33/68/62 45/66/60
f 45/66/60 59/64/58 159/67/61
f 36/60/43 37/62/44 44/62/56
f 35/58/19 42/59/54 45/66/60
s 0
f 60/69/63 61/69/63 59/69/63
s 1
f 134/87/136 135/113/157 11/11/12
f 22/10/10 30/33/31 50/9/137
f 50/9/137 144/90/140 145/88/138
f 51/9/11 22/10/10 50/9/137
f 30/33/31 26/28/28 49/89/139
f 49/89/139 143/95/144 144/90/140
f 50/9/137 30/33/31 49/89/139
f 32/49/48 142/114/50 146/91/141
f 34/92/42 141/115/145 139/93/142
f 41/54/51 139/93/142 140/51/49
f 26/28/28 21/29/29 48/94/143
f 48/94/143 137/116/158 143/95/144
f 49/89/139 26/28/28 48/94/143
f 5/13/14 136/97/146 141/96/145
f 11/11/12 135/113/157 136/97/146
f 57/34/32 157/109/154 160/98/147
f 160/98/147 137/116/158 48/94/143
f 48/94/143 21/29/29 57/34/32
f 7/2/2 17/107/37 52/99/9
f 52/99/9 138/117/151 134/87/136
f 44/62/56 37/62/44 60/100/21
f 60/100/21 155/118/20 154/65/59
f 61/100/148 44/62/56 60/100/21
f 20/25/26 16/25/8 53/36/149
f 53/36/149 156/119/7 153/101/150
f 54/36/35 20/25/26 53/36/149
