# Blender 4.0.2
# www.blender.org
o GrassCorner01
v 0.308715 -0.498326 -0.470378
v 0.470378 -0.498326 -0.308714
v 0.389440 -0.498326 -0.448780
v 0.448781 -0.498326 -0.389440
v 0.291732 0.245350 -0.450000
v 0.450000 0.245350 -0.291732
v 0.291732 0.324381 -0.428856
v 0.370762 0.245351 -0.428856
v 0.367418 0.321036 -0.408317
v 0.370762 0.382475 -0.291732
v 0.291732 0.382475 -0.370762
v 0.367418 0.361936 -0.367418
v 0.428856 0.245351 -0.370762
v 0.428856 0.324381 -0.291732
v 0.408318 0.321036 -0.367418
v 0.214053 0.403619 -0.291732
v 0.291732 0.403619 -0.214053
v 0.252892 0.403619 -0.281325
v 0.281325 0.403619 -0.252892
v 0.291732 0.425940 -0.214053
v 0.214053 0.425940 -0.291732
v 0.214053 0.503619 -0.214053
v 0.281354 0.425940 -0.252841
v 0.281354 0.464729 -0.214053
v 0.271274 0.463087 -0.251200
v 0.214053 0.464729 -0.281354
v 0.252841 0.425940 -0.281354
v 0.251200 0.463087 -0.271273
v 0.252841 0.493241 -0.214053
v 0.214053 0.493241 -0.252841
v 0.251200 0.483161 -0.251200
v 0.370762 0.004170 -0.428856
v 0.450000 -0.096932 -0.291732
v 0.450000 0.004170 -0.291732
v 0.428856 -0.096932 -0.370762
v 0.428856 0.004170 -0.370762
v 0.370762 -0.096932 -0.428856
v 0.291732 -0.096932 -0.450000
v 0.291732 0.004170 -0.450000
v 0.479000 -0.071656 -0.317566
v 0.479000 -0.021106 -0.317566
v 0.457433 -0.071656 -0.398177
v 0.457433 -0.021106 -0.398177
v 0.398178 -0.071656 -0.457433
v 0.398178 -0.021106 -0.457433
v 0.317566 -0.071656 -0.479000
v 0.317566 -0.021106 -0.479000
v 0.364494 0.485859 0.190632
v 0.393007 0.457346 0.190632
v 0.403384 0.418558 0.190632
v 0.325705 0.496237 0.190632
v 0.403384 0.396237 0.190632
v 0.479000 0.039784 0.040929
v 0.479000 -0.010766 0.040929
v 0.450000 0.065060 0.058152
v 0.450000 -0.036042 0.058152
v -0.329121 0.495365 -0.294956
v -0.329121 0.395365 -0.372635
v -0.329121 0.484988 -0.333744
v -0.329121 0.456475 -0.362257
v -0.329121 0.417686 -0.372635
v -0.138845 -0.088534 -0.450000
v -0.138845 -0.189635 -0.450000
v -0.121622 -0.113809 -0.479000
v -0.121622 -0.164360 -0.479000
v 0.305473 0.395417 0.378086
v 0.280365 0.383079 0.443027
v 0.429575 0.396237 0.472417
v 0.272499 0.452611 0.453196
v 0.286831 0.436779 0.326687
v 0.441358 0.422012 0.354462
v 0.284676 0.479105 0.383290
v 0.279989 0.433614 -0.122651
v 0.429989 0.405896 -0.072651
v 0.279989 0.398259 -0.108007
v 0.279989 0.383614 -0.072652
v 0.279989 0.398259 -0.037296
v 0.279989 0.433614 -0.022651
v 0.279989 0.468969 -0.037296
v 0.279989 0.483614 -0.072652
v 0.279989 0.468969 -0.108007
v 0.245855 0.433614 -0.155809
v 0.402974 0.405896 -0.173520
v 0.252013 0.398259 -0.142522
v 0.266880 0.383614 -0.110445
v 0.281747 0.398259 -0.078367
v 0.287906 0.433614 -0.065080
v 0.281747 0.468969 -0.078367
v 0.266880 0.483614 -0.110445
v 0.252013 0.468969 -0.142522
v 0.091909 0.433614 -0.271257
v 0.178492 0.405896 -0.403557
v 0.106070 0.398259 -0.267524
v 0.140258 0.383614 -0.258512
v 0.174445 0.398259 -0.249500
v 0.188606 0.433614 -0.245767
v 0.174445 0.468969 -0.249500
v 0.140258 0.483614 -0.258512
v 0.106070 0.468969 -0.267524
v 0.051146 0.433614 -0.246703
v 0.074070 0.405896 -0.403146
v 0.065564 0.398259 -0.249270
v 0.100372 0.383614 -0.255470
v 0.135179 0.398259 -0.261669
v 0.149597 0.433614 -0.264237
v 0.135179 0.468969 -0.261669
v 0.100372 0.483614 -0.255470
v 0.065564 0.468969 -0.249270
v -0.092389 0.419248 -0.290880
v 0.007227 0.391530 -0.413666
v -0.078682 0.383892 -0.285723
v -0.045591 0.369248 -0.273273
v -0.012501 0.383892 -0.260824
v 0.001206 0.419248 -0.255667
v -0.012501 0.454603 -0.260824
v -0.045591 0.469248 -0.273273
v -0.078682 0.454603 -0.285723
v -0.135442 0.419248 -0.270608
v -0.096694 0.391530 -0.423900
v -0.120838 0.383892 -0.271693
v -0.085580 0.369248 -0.274312
v -0.050322 0.383892 -0.276932
v -0.035717 0.419248 -0.278017
v -0.050322 0.454603 -0.276932
v -0.085580 0.469248 -0.274312
v -0.120838 0.454603 -0.271693
v 0.389440 0.388641 0.500000
v 0.470378 -0.498326 0.500000
v 0.448781 0.333314 0.500000
v 0.470378 0.258047 0.500000
v 0.224018 0.500000 0.500000
v 0.303363 0.408778 0.500000
v 0.500000 -0.001152 0.500000
v 0.470378 0.021999 0.500000
v 0.263639 0.494133 0.500000
v 0.292763 0.466978 0.500000
v 0.303363 0.430037 0.500000
v 0.500000 -0.049295 0.500000
v 0.470378 -0.074289 0.500000
v -0.500000 -0.498326 -0.470378
v -0.500000 0.388641 -0.389440
v -0.500000 0.494133 -0.263638
v -0.500000 0.466978 -0.292763
v -0.500000 0.430037 -0.303363
v -0.500000 -0.074289 -0.470378
v -0.500000 -0.049295 -0.500000
v -0.500000 0.500000 -0.224018
v -0.500000 0.408778 -0.303363
v -0.500000 0.021998 -0.470378
v -0.500000 -0.001152 -0.500000
v -0.500000 0.333314 -0.448780
v -0.500000 0.258047 -0.470378
v -0.500000 0.500000 0.500000
vn 0.4249 -0.4797 -0.7677
vn 0.8630 0.0661 -0.5009
vn 0.5009 0.0661 -0.8630
vn 0.9994 0.0233 -0.0238
vn 0.9242 -0.3775 -0.0584
vn 0.9031 -0.4292 -0.0143
vn 0.1348 0.4917 -0.8603
vn 0.4916 0.1216 -0.8623
vn 0.1417 0.1272 -0.9817
vn 0.4488 0.7727 -0.4488
vn 0.4488 0.4488 -0.7727
vn 0.8603 0.4917 -0.1348
vn 0.4691 0.8733 -0.1314
vn 0.8623 0.1216 -0.4916
vn 0.9826 0.1237 -0.1382
vn 0.7727 0.4488 -0.4488
vn 0.7677 -0.4797 -0.4249
vn 0.9895 0.0559 -0.1330
vn 0.0268 0.1397 -0.9898
vn 0.0273 0.5219 -0.8526
vn 0.1324 0.8731 -0.4693
vn 0.7689 0.6119 -0.1856
vn 0.9919 0.1253 0.0201
vn 0.7686 -0.6398 0.0002
vn 0.6310 0.6826 -0.3687
vn 0.8624 0.1217 -0.4914
vn 0.8383 0.4930 -0.2327
vn 0.9575 0.1268 -0.2590
vn 0.4914 0.1217 -0.8624
vn 0.1812 0.4936 -0.8506
vn 0.1997 0.1279 -0.9715
vn 0.1505 0.8646 -0.4795
vn 0.4691 0.8652 -0.1771
vn 0.1226 0.9835 -0.1329
vn -0.0114 0.9837 -0.1793
vn -0.0535 0.8452 -0.5318
vn -0.0942 0.4764 -0.8741
vn -0.1125 0.1237 -0.9859
vn 0.1483 0.6295 -0.7627
vn 0.3687 0.6826 -0.6310
vn 0.0060 0.8760 -0.4822
vn -0.0494 0.5615 -0.8260
vn 0.0626 0.9979 0.0162
vn -0.0145 0.9979 -0.0635
vn 0.4873 0.8732 0.0030
vn 0.7528 0.5083 -0.4181
vn 0.8593 0.4868 -0.1569
vn 0.4181 0.5083 -0.7528
vn 0.1354 0.0565 -0.9892
vn 0.0579 0.3903 -0.9189
vn 0.7712 -0.4459 -0.4544
vn 0.7712 0.4459 -0.4544
vn 0.4544 0.4459 -0.7712
vn 0.8940 -0.4352 -0.1068
vn 0.0167 0.3587 -0.9333
vn 0.0833 0.4434 -0.8925
vn 0.8951 0.4195 -0.1511
vn 0.4544 -0.4459 -0.7712
vn 0.1559 -0.4171 -0.8954
vn 0.1011 0.4365 -0.8940
vn 0.0328 -0.4775 -0.8780
vn 0.9253 -0.3791 0.0086
vn 0.1723 0.9850 0.0032
vn 0.5352 0.8447 0.0089
vn 0.8784 0.4777 0.0161
vn 0.8056 0.5424 0.2385
vn 0.9435 0.1389 0.3010
vn 0.8975 -0.4340 -0.0787
vn 0.9109 -0.4054 -0.0771
vn 0.8869 0.4586 -0.0553
vn -0.3651 0.1386 -0.9206
vn -0.2938 0.5339 -0.7928
vn -0.1186 0.9206 -0.3721
vn -0.0536 -0.3473 -0.9362
vn 0.1957 0.4844 -0.8527
vn 0.1454 0.3592 -0.9219
vn 0.1708 -0.4742 -0.8637
vn 0.2995 -0.7969 -0.5246
vn 0.9132 -0.1752 0.3680
vn 0.2101 -0.6668 0.7150
vn 0.3103 0.5073 0.8039
vn 0.4357 0.8958 -0.0876
vn 0.1925 0.2127 -0.9580
vn 0.9724 -0.0517 -0.2275
vn 0.3220 0.0359 -0.9461
vn 0.9861 -0.1661 -0.0000
vn 0.2021 -0.6722 -0.7123
vn 0.1469 -0.9891 -0.0000
vn 0.2021 -0.6722 0.7123
vn 0.3220 0.0359 0.9461
vn 0.4232 0.6565 0.6244
vn 0.4600 0.8879 -0.0000
vn 0.4232 0.6565 -0.6244
vn -0.1057 0.0359 -0.9938
vn 0.8947 -0.1661 -0.4147
vn -0.1161 -0.6722 -0.7312
vn 0.1333 -0.9891 -0.0618
vn 0.4829 -0.6722 0.5613
vn 0.6900 0.0359 0.7229
vn 0.6466 0.6565 0.3886
vn 0.4174 0.8879 -0.1934
vn 0.1214 0.6565 -0.7445
vn -0.8327 0.0359 -0.5525
vn 0.2514 -0.1661 -0.9535
vn -0.6372 -0.6722 -0.3770
vn 0.0375 -0.9891 -0.1421
vn 0.7403 -0.6722 -0.0139
vn 0.9969 0.0359 -0.0702
vn 0.7117 0.6565 -0.2501
vn 0.1173 0.8879 -0.4448
vn -0.4959 0.6565 -0.5684
vn -0.9879 0.0359 -0.1511
vn -0.1729 -0.1661 -0.9708
vn -0.7367 -0.6722 -0.0741
vn -0.0258 -0.9891 -0.1447
vn 0.6658 -0.6722 -0.3239
vn 0.8749 0.0359 -0.4829
vn 0.5406 0.6565 -0.5262
vn -0.0807 0.8879 -0.4529
vn -0.6890 0.6565 -0.3072
vn -0.7721 0.0359 -0.6345
vn 0.3472 -0.1661 -0.9230
vn -0.5955 -0.6722 -0.4400
vn 0.0517 -0.9891 -0.1375
vn 0.7378 -0.6722 0.0616
vn 0.9988 0.0359 0.0318
vn 0.7335 0.6565 -0.1762
vn 0.1620 0.8879 -0.4306
vn -0.4354 0.6565 -0.6160
vn -0.9673 0.0359 -0.2510
vn -0.0731 -0.1661 -0.9834
vn -0.7253 -0.6722 -0.1488
vn -0.0109 -0.9891 -0.1465
vn 0.6953 -0.6722 -0.2543
vn 0.9196 0.0359 -0.3912
vn 0.5914 0.6565 -0.4683
vn -0.0341 0.8879 -0.4588
vn -0.6541 0.6565 -0.3758
vn 0.8091 0.5329 0.2480
vn 0.9115 0.4113 -0.0019
vn 0.9386 0.3425 -0.0408
vn 0.3832 0.9172 0.1089
vn 0.8881 0.4594 0.0132
vn 0.9898 0.1397 -0.0268
vn -0.1168 -0.4717 -0.8740
vn 0.0442 -0.2211 -0.9742
vn -0.2864 0.5170 -0.8066
vn -0.0000 1.0000 -0.0000
vn 0.8526 0.5219 -0.0273
vn -0.0000 -0.0000 -1.0000
vt 0.096354 0.900800
vt 0.095983 0.900838
vt 0.095983 0.900800
vt 0.095983 0.901253
vt 0.096354 0.900876
vt 0.096354 0.901081
vt 0.097002 0.906261
vt 0.096880 0.906337
vt 0.096880 0.906261
vt 0.097786 0.905656
vt 0.096997 0.906337
vt 0.097002 0.900876
vt 0.097124 0.900839
vt 0.097124 0.900876
vt 0.096880 0.900838
vt 0.096880 0.900876
vt 0.096880 0.900800
vt 0.096997 0.900840
vt 0.096997 0.900800
vt 0.096354 0.900838
vt 0.095983 0.900875
vt 0.096880 0.905883
vt 0.097002 0.905883
vt 0.097796 0.905588
vt 0.098505 0.904877
vt 0.097223 0.646370
vt 0.097223 0.645809
vt 0.098427 0.904877
vt 0.097223 0.646423
vt 0.097223 0.646370
vt 0.097169 0.646477
vt 0.097223 0.646421
vt 0.097115 0.646477
vt 0.097115 0.646423
vt 0.097167 0.646477
vt 0.097169 0.646370
vt 0.097115 0.646370
vt 0.097167 0.646421
vt 0.096554 0.646370
vt 0.096554 0.646424
vt 0.096554 0.646477
vt 0.096554 0.646477
vt 0.097115 0.646477
vt 0.097169 0.646477
vt 0.097223 0.646424
vt 0.097590 0.905416
vt 0.098202 0.904877
vt 0.097115 0.645380
vt 0.096194 0.646370
vt 0.097124 0.901253
vt 0.096509 0.900838
vt 0.096509 0.900876
vt 0.096509 0.900800
vt 0.095983 0.906261
vt 0.096354 0.906337
vt 0.095983 0.906337
vt 0.096509 0.906337
vt 0.096509 0.906261
vt 0.229236 0.895878
vt 0.229236 0.895916
vt 0.229236 0.895916
vt 0.229392 0.895878
vt 0.229392 0.895916
vt 0.229392 0.895879
vt 0.229236 0.895954
vt 0.229236 0.895954
vt 0.229392 0.901340
vt 0.229392 0.901134
vt 0.229392 0.901134
vt 0.229392 0.895916
vt 0.229392 0.895954
vt 0.229236 0.895879
vt 0.229392 0.901415
vt 0.229236 0.901340
vt 0.229236 0.901134
vt 0.229236 0.901415
vt 0.229236 0.896160
vt 0.097115 0.645809
vt 0.097169 0.645809
vt 0.097223 0.645809
vt 0.097223 0.645380
vt 0.097223 0.645380
vt 0.229236 0.896341
vt 0.229236 0.896337
vt 0.229392 0.896160
vt 0.096194 0.646477
vt 0.096194 0.646477
vt 0.096194 0.646424
vt 0.229236 0.900957
vt 0.229392 0.900957
vt 0.229392 0.900962
vt 0.229236 0.901340
vt 0.107626 0.642786
vt 0.107175 0.644587
vt 0.107175 0.642786
vt 0.106275 0.642786
vt 0.105824 0.644587
vt 0.105824 0.642786
vt 0.105374 0.642786
vt 0.104924 0.644587
vt 0.104924 0.642786
vt 0.104474 0.644587
vt 0.104474 0.642786
vt 0.108076 0.642786
vt 0.107626 0.644587
vt 0.106725 0.644587
vt 0.106725 0.642786
vt 0.105374 0.644587
vt 0.106275 0.644587
vt 0.229392 0.896341
vt 0.229392 0.896160
vt 0.097169 0.645380
vt 0.096509 0.901259
vt 0.096509 0.901081
vt 0.096880 0.901253
vt 0.098432 0.904853
vt 0.098432 0.904647
vt 0.098505 0.904499
vt 0.096354 0.905883
vt 0.096354 0.906056
vt 0.096509 0.905883
vt 0.229236 0.900962
vt 0.096194 0.646477
vt 0.096554 0.646478
vt 0.096354 0.901259
vt 0.098395 0.904877
vt 0.098414 0.904877
vt 0.098078 0.904877
vt 0.096082 0.645398
vt 0.097002 0.901253
vt 0.096354 0.906261
vt 0.229392 0.896337
vt 0.098432 0.904499
vt 0.095983 0.905883
vt 0.096509 0.906056
s 1
f 37/1/1 4/2/2 3/3/3
f 128/4/4 33/5/5 56/6/6
f 7/7/7 8/8/8 5/9/9
f 7/7/7 12/10/10 9/11/11
f 14/12/12 12/13/10 10/14/13
f 13/15/14 14/12/12 6/16/15
f 8/17/8 15/18/16 13/15/14
f 9/19/11 12/13/10 15/18/16
f 35/20/17 2/21/18 4/2/2
f 7/7/7 152/22/19 151/23/20
f 11/24/21 10/25/13 12/10/10
f 17/26/22 50/27/23 52/27/24
f 19/28/25 10/25/13 11/24/21
f 23/29/26 24/30/27 20/26/28
f 27/31/29 25/32/16 23/29/26
f 26/33/30 27/31/29 21/33/31
f 30/34/32 28/35/11 26/33/30
f 29/36/33 30/34/32 22/37/34
f 24/30/27 31/38/10 29/36/33
f 25/32/16 28/35/11 31/38/10
f 57/39/35 30/34/32 59/40/36
f 59/40/36 26/33/30 60/41/37
f 60/41/37 21/33/31 61/42/38
f 16/43/39 27/31/29 18/44/40
f 27/31/29 19/45/25 18/44/40
f 23/29/26 17/26/22 19/45/25
f 141/46/41 58/47/42 11/24/21
f 141/46/41 7/7/7 151/23/20
f 131/48/43 22/37/34 147/49/44
f 127/50/45 14/12/12 10/14/13
f 36/51/46 6/16/15 34/52/47
f 8/17/8 36/51/46 32/53/48
f 1/54/49 37/55/1 3/56/3
f 5/9/9 32/57/48 39/58/50
f 37/59/1 42/60/51 35/61/17
f 32/62/48 43/63/52 45/64/53
f 35/61/17 40/65/54 33/66/5
f 39/67/50 64/68/55 62/69/56
f 36/70/46 41/71/57 43/63/52
f 41/71/57 42/60/51 43/63/52
f 43/63/52 44/72/58 45/64/53
f 45/73/53 46/74/59 47/67/60
f 64/68/55 46/74/59 65/75/61
f 32/73/48 47/67/60 39/67/50
f 37/76/1 46/74/59 44/76/58
f 33/66/5 54/77/62 56/77/6
f 51/78/63 29/36/33 22/37/34
f 48/79/64 24/30/27 29/36/33
f 49/80/65 20/26/28 24/30/27
f 132/81/66 50/27/23 137/82/67
f 56/77/6 138/83/68 139/84/69
f 34/71/47 53/85/70 41/71/57
f 41/71/57 54/77/62 40/65/54
f 16/43/39 61/42/38 21/33/31
f 60/41/37 144/86/71 143/87/72
f 59/40/36 143/87/72 142/88/73
f 64/68/55 146/89/74 150/90/75
f 62/69/56 150/90/75 149/91/76
f 38/92/77 65/75/61 46/74/59
f 57/39/35 142/88/73 147/49/44
f 66/93/78 68/94/79 67/95/80
f 67/96/80 68/97/79 69/98/81
f 69/99/81 68/100/79 72/101/82
f 72/101/82 68/102/79 66/103/78
f 70/104/83 71/105/84 66/93/78
f 66/95/78 71/106/84 67/107/80
f 67/96/80 71/97/84 69/98/81
f 69/98/81 71/108/84 72/99/82
f 72/99/82 71/100/84 70/101/83
f 73/104/85 74/105/86 75/93/87
f 75/93/87 74/94/86 76/95/88
f 76/95/88 74/106/86 77/107/89
f 77/107/89 74/109/86 78/96/90
f 78/96/90 74/97/86 79/98/91
f 79/98/91 74/108/86 80/99/92
f 80/99/92 74/100/86 81/101/93
f 81/101/93 74/102/86 73/103/85
f 82/104/94 83/105/95 84/93/96
f 84/93/96 83/94/95 85/95/97
f 85/95/97 83/106/95 86/107/98
f 86/107/98 83/109/95 87/96/99
f 87/96/99 83/97/95 88/98/100
f 88/98/100 83/108/95 89/99/101
f 89/99/101 83/100/95 90/101/102
f 90/101/102 83/102/95 82/103/94
f 91/104/103 92/105/104 93/93/105
f 93/93/105 92/94/104 94/95/106
f 94/95/106 92/106/104 95/107/107
f 95/107/107 92/109/104 96/96/108
f 96/96/108 92/97/104 97/98/109
f 97/98/109 92/108/104 98/99/110
f 98/99/110 92/100/104 99/101/111
f 99/101/111 92/102/104 91/103/103
f 100/104/112 101/105/113 102/93/114
f 102/93/114 101/94/113 103/95/115
f 103/95/115 101/106/113 104/107/116
f 104/107/116 101/109/113 105/96/117
f 105/96/117 101/97/113 106/98/118
f 106/98/118 101/108/113 107/99/119
f 107/99/119 101/100/113 108/101/120
f 108/101/120 101/102/113 100/103/112
f 109/104/121 110/105/122 111/93/123
f 111/93/123 110/94/122 112/95/124
f 112/95/124 110/106/122 113/107/125
f 113/107/125 110/109/122 114/96/126
f 114/96/126 110/97/122 115/98/127
f 115/98/127 110/108/122 116/99/128
f 116/99/128 110/100/122 117/101/129
f 117/101/129 110/102/122 109/103/121
f 118/104/130 119/105/131 120/93/132
f 120/93/132 119/94/131 121/95/133
f 121/95/133 119/106/131 122/107/134
f 122/107/134 119/109/131 123/96/135
f 123/96/135 119/97/131 124/98/136
f 124/98/136 119/108/131 125/99/137
f 125/99/137 119/100/131 126/101/138
f 126/101/138 119/102/131 118/103/130
f 49/80/65 137/82/67 50/27/23
f 48/79/64 136/81/139 49/80/65
f 133/110/140 54/77/62 53/85/70
f 55/111/141 133/110/140 53/85/70
f 51/78/63 135/112/142 48/79/64
f 6/16/15 134/113/143 55/114/141
f 14/12/12 130/115/144 6/16/15
f 17/116/22 52/117/24 127/118/45
f 145/119/145 63/120/146 1/54/49
f 39/58/50 149/121/76 152/22/19
f 145/122/145 65/75/61 63/75/146
f 148/123/147 61/42/38 58/124/42
f 37/1/1 35/20/17 4/2/2
f 56/6/6 139/125/69 128/4/4
f 128/4/4 2/21/18 33/5/5
f 7/7/7 9/11/11 8/8/8
f 7/7/7 11/24/21 12/10/10
f 14/12/12 15/18/16 12/13/10
f 13/15/14 15/18/16 14/12/12
f 8/17/8 9/19/11 15/18/16
f 35/20/17 33/5/5 2/21/18
f 7/7/7 5/9/9 152/22/19
f 17/26/22 20/26/28 50/27/23
f 11/24/21 16/126/39 18/127/40
f 19/28/25 17/116/22 10/25/13
f 11/24/21 18/127/40 19/28/25
f 23/29/26 25/32/16 24/30/27
f 27/31/29 28/35/11 25/32/16
f 26/33/30 28/35/11 27/31/29
f 30/34/32 31/38/10 28/35/11
f 29/36/33 31/38/10 30/34/32
f 24/30/27 25/32/16 31/38/10
f 57/39/35 22/37/34 30/34/32
f 59/40/36 30/34/32 26/33/30
f 60/41/37 26/33/30 21/33/31
f 16/43/39 21/33/31 27/31/29
f 27/31/29 23/29/26 19/45/25
f 23/29/26 20/26/28 17/26/22
f 141/46/41 148/128/147 58/47/42
f 58/47/42 16/126/39 11/24/21
f 141/46/41 11/24/21 7/7/7
f 147/49/44 153/129/148 131/48/43
f 131/48/43 51/78/63 22/37/34
f 22/37/34 57/39/35 147/49/44
f 127/50/45 129/130/149 14/12/12
f 36/51/46 13/15/14 6/16/15
f 8/17/8 13/15/14 36/51/46
f 1/54/49 38/131/77 37/55/1
f 5/9/9 8/8/8 32/57/48
f 37/59/1 44/72/58 42/60/51
f 32/62/48 36/70/46 43/63/52
f 35/61/17 42/60/51 40/65/54
f 39/67/50 47/67/60 64/68/55
f 36/70/46 34/71/47 41/71/57
f 41/71/57 40/65/54 42/60/51
f 43/63/52 42/60/51 44/72/58
f 45/73/53 44/76/58 46/74/59
f 64/68/55 47/67/60 46/74/59
f 32/73/48 45/73/53 47/67/60
f 37/76/1 38/92/77 46/74/59
f 33/66/5 40/65/54 54/77/62
f 51/78/63 48/79/64 29/36/33
f 48/79/64 49/80/65 24/30/27
f 49/80/65 50/27/23 20/26/28
f 132/81/66 52/27/24 50/27/23
f 56/77/6 54/77/62 138/83/68
f 34/71/47 55/111/141 53/85/70
f 41/71/57 53/85/70 54/77/62
f 16/43/39 58/124/42 61/42/38
f 60/41/37 61/42/38 144/86/71
f 59/40/36 60/41/37 143/87/72
f 64/68/55 65/75/61 146/89/74
f 62/69/56 64/68/55 150/90/75
f 38/92/77 63/75/146 65/75/61
f 57/39/35 59/40/36 142/88/73
f 49/80/65 136/81/139 137/82/67
f 48/79/64 135/112/142 136/81/139
f 133/110/140 138/83/68 54/77/62
f 55/111/141 134/132/143 133/110/140
f 51/78/63 131/48/43 135/112/142
f 55/114/141 34/52/47 6/16/15
f 6/16/15 130/115/144 134/113/143
f 14/12/12 129/130/149 130/115/144
f 127/118/45 10/25/13 17/116/22
f 52/117/24 132/133/66 127/118/45
f 1/54/49 140/134/150 145/119/145
f 63/120/146 38/131/77 1/54/49
f 152/22/19 5/9/9 39/58/50
f 39/58/50 62/135/56 149/121/76
f 145/122/145 146/89/74 65/75/61
f 148/123/147 144/86/71 61/42/38
