# Blender 4.0.2
# www.blender.org
o GrassMid01
v 0.296738 0.499265 -0.163924
v 0.335527 0.488804 -0.163924
v 0.364039 0.460061 -0.163924
v 0.374417 0.420959 -0.163924
v 0.374417 0.398457 -0.163924
v 0.295526 0.396431 -0.309847
v 0.313059 0.383993 -0.242465
v 0.451355 0.397258 -0.305723
v 0.312610 0.454087 -0.229617
v 0.250382 0.438128 -0.340691
v 0.392052 0.423241 -0.408365
v 0.281681 0.480795 -0.293479
v 0.293425 0.434937 0.241549
v 0.458265 0.406995 0.328871
v 0.289613 0.399296 0.255689
v 0.280410 0.384533 0.289825
v 0.271207 0.399296 0.323962
v 0.267395 0.434937 0.338102
v 0.271207 0.470578 0.323962
v 0.280410 0.478492 0.289825
v 0.289613 0.470578 0.255689
v 0.269099 0.434937 0.200649
v 0.458438 0.406995 0.224447
v 0.271586 0.399296 0.215081
v 0.277591 0.384533 0.249923
v 0.283596 0.399296 0.284765
v 0.286083 0.434937 0.299196
v 0.283596 0.470578 0.284765
v 0.277591 0.475644 0.249923
v 0.271586 0.470578 0.215081
v 0.389440 0.390208 -0.500000
v 0.470378 -0.500000 -0.500000
v 0.448781 0.334657 -0.500000
v 0.470378 0.259087 -0.500000
v 0.224018 0.502016 -0.500000
v 0.303363 0.410427 -0.500000
v 0.470378 0.022087 -0.500000
v 0.500000 -0.001157 -0.500000
v 0.263639 0.496126 -0.500000
v 0.292763 0.468861 -0.500000
v 0.303363 0.431771 -0.500000
v 0.500000 -0.049494 -0.500000
v 0.470378 -0.074588 -0.500000
v -0.500000 0.500000 -0.500000
v 0.470378 -0.500000 0.500000
v 0.389440 0.390208 0.500000
v 0.263639 0.496126 0.500000
v 0.292763 0.468861 0.500000
v 0.303363 0.431771 0.500000
v 0.470378 -0.074588 0.500000
v 0.500000 -0.049494 0.500000
v 0.224018 0.500000 0.500000
v 0.303363 0.410427 0.500000
v 0.470378 0.022087 0.500000
v 0.500000 -0.001157 0.500000
v 0.448781 0.334657 0.500000
v 0.470378 0.259087 0.500000
v -0.500000 0.500000 0.500000
vn 0.8740 0.4841 -0.0412
vn 0.9694 0.1404 -0.2015
vn 0.8304 0.5323 -0.1645
vn 0.9847 0.1403 0.1037
vn 0.8446 0.5286 0.0848
vn 0.5218 0.8528 -0.0231
vn 0.4029 0.9123 -0.0739
vn 0.3954 0.9177 0.0381
vn 0.1431 0.9897 -0.0030
vn 0.0647 0.9979 -0.0085
vn 0.9909 0.1257 -0.0490
vn 0.8001 0.5952 0.0749
vn 0.8322 0.5538 -0.0280
vn 0.8085 0.5688 -0.1507
vn 0.4739 0.8805 0.0035
vn 0.4758 0.8795 -0.0068
vn 0.9073 -0.4205 -0.0000
vn 0.8993 0.4374 -0.0000
vn -0.0633 -0.7960 -0.6020
vn 0.9560 -0.1764 -0.2344
vn 0.5884 -0.6668 0.4573
vn 0.7222 0.5066 0.4709
vn 0.3049 0.8948 -0.3263
vn -0.4031 0.2114 -0.8904
vn 0.6566 -0.0521 -0.7525
vn 0.4722 0.0325 -0.8809
vn 0.9671 -0.1353 0.2154
vn 0.3155 -0.6867 -0.6549
vn 0.1160 -0.9923 0.0426
vn 0.0080 -0.6687 0.7435
vn 0.0527 0.0301 0.9982
vn 0.2236 0.7095 0.6682
vn 0.3520 0.9306 0.1004
vn 0.4836 0.7343 -0.4764
vn 0.1291 0.0304 -0.9912
vn 0.9813 -0.1321 -0.1402
vn 0.0647 -0.6722 -0.7376
vn 0.1194 -0.9925 -0.0278
vn 0.2647 -0.6838 0.6799
vn 0.4020 0.0320 0.9151
vn 0.4423 0.7506 0.4908
vn 0.3466 0.9360 -0.0621
vn 0.2809 0.7344 -0.6178
vn 0.9903 0.1387 -0.0000
vn 0.8534 0.5213 -0.0000
vn -0.0001 1.0000 0.0006
vn 1.0000 -0.0000 -0.0000
vn -0.0028 1.0000 -0.0000
vn 0.0453 0.9990 0.0039
vt 0.095432 0.646477
vt 0.094738 0.646477
vt 0.094738 0.646477
vt 0.096194 0.646477
vt 0.096194 0.646477
vt 0.095432 0.646424
vt 0.094738 0.646423
vt 0.096194 0.646424
vt 0.095432 0.646370
vt 0.094738 0.646370
vt 0.095432 0.646478
vt 0.096194 0.646477
vt 0.095432 0.646477
vt 0.097816 0.904877
vt 0.097590 0.905416
vt 0.097350 0.905178
vt 0.229236 0.900957
vt 0.229236 0.900484
vt 0.229236 0.900489
vt 0.229392 0.900962
vt 0.229392 0.900489
vt 0.229392 0.900484
vt 0.107626 0.642786
vt 0.107175 0.644587
vt 0.107175 0.642786
vt 0.106275 0.642786
vt 0.105824 0.644587
vt 0.105824 0.642786
vt 0.105374 0.642786
vt 0.104924 0.644587
vt 0.104924 0.642786
vt 0.104474 0.644587
vt 0.104474 0.642786
vt 0.108076 0.642786
vt 0.107626 0.644587
vt 0.106725 0.644587
vt 0.106725 0.642786
vt 0.105374 0.644587
vt 0.106275 0.644587
vt 0.229392 0.900957
vt 0.096509 0.905883
vt 0.096880 0.905406
vt 0.096880 0.905883
vt 0.097002 0.905883
vt 0.097002 0.905406
vt 0.096082 0.645398
vt 0.096354 0.905406
vt 0.095983 0.905883
vt 0.095983 0.905406
vt 0.098078 0.904877
vt 0.097577 0.904877
vt 0.229236 0.900962
vt 0.096509 0.905406
vt 0.094687 0.645423
vt 0.096194 0.646370
vt 0.096354 0.905883
s 1
f 3/1/1 41/2/2 40/3/3
f 49/4/4 3/1/1 48/5/5
f 2/6/6 40/3/3 39/7/7
f 48/5/5 2/6/6 47/8/8
f 1/9/9 39/7/7 35/10/10
f 4/11/11 53/12/12 5/13/13
f 36/3/14 4/11/11 5/13/13
f 5/14/13 46/15/15 31/16/16
f 51/17/17 43/18/17 42/19/17
f 54/20/18 38/21/18 37/22/18
f 6/23/19 8/24/20 7/25/21
f 7/26/21 8/27/20 9/28/22
f 9/29/22 8/30/20 12/31/23
f 12/31/23 8/32/20 6/33/19
f 10/34/24 11/35/25 6/23/19
f 6/25/19 11/36/25 7/37/21
f 7/26/21 11/27/25 9/28/22
f 9/28/22 11/38/25 12/29/23
f 12/29/23 11/30/25 10/31/24
f 13/34/26 14/35/27 15/23/28
f 15/23/28 14/24/27 16/25/29
f 16/25/29 14/36/27 17/37/30
f 17/37/30 14/39/27 18/26/31
f 18/26/31 14/27/27 19/28/32
f 19/28/32 14/38/27 20/29/33
f 20/29/33 14/30/27 21/31/34
f 21/31/34 14/32/27 13/33/26
f 22/34/35 23/35/36 24/23/37
f 24/23/37 23/24/36 25/25/38
f 25/25/38 23/36/36 26/37/39
f 26/37/39 23/39/36 27/26/40
f 27/26/40 23/27/36 28/28/41
f 28/28/41 23/38/36 29/29/42
f 29/29/42 23/30/36 30/31/43
f 30/31/43 23/32/36 22/33/35
f 55/40/18 42/19/17 38/21/18
f 54/41/18 34/42/44 57/43/44
f 56/44/45 34/42/44 33/45/45
f 58/46/46 1/9/9 35/10/10
f 1/9/9 47/8/8 2/6/6
f 46/15/15 33/45/45 31/16/16
f 43/47/17 45/48/47 32/49/47
f 3/1/1 4/11/11 41/2/2
f 49/4/4 4/11/11 3/1/1
f 2/6/6 3/1/1 40/3/3
f 48/5/5 3/1/1 2/6/6
f 1/9/9 2/6/6 39/7/7
f 4/11/11 49/4/4 53/12/12
f 36/3/14 41/2/2 4/11/11
f 5/14/13 53/50/12 46/15/15
f 31/16/16 36/51/14 5/14/13
f 51/17/17 50/52/17 43/18/17
f 54/20/18 55/40/18 38/21/18
f 55/40/18 51/17/17 42/19/17
f 54/41/18 37/53/18 34/42/44
f 56/44/45 57/43/44 34/42/44
f 35/10/10 44/54/48 58/46/46
f 58/46/46 52/55/49 1/9/9
f 1/9/9 52/55/49 47/8/8
f 46/15/15 56/44/45 33/45/45
f 43/47/17 50/56/17 45/48/47
