# Blender 4.0.2
# www.blender.org
o GrassInCorner
v 0.500000 -0.001157 -0.500000
v 0.500000 -0.049494 -0.500000
v 0.500000 0.334658 -0.448780
v 0.470378 0.259087 -0.500000
v 0.389440 0.390208 -0.500000
v 0.263639 0.496126 -0.500000
v 0.303363 0.410427 -0.500000
v 0.500000 -0.074588 -0.470378
v 0.500000 -0.497983 -0.470378
v 0.470378 -0.497983 -0.500000
v 0.470378 -0.074588 -0.500000
v 0.500000 0.500000 0.500000
v 0.224018 0.500000 -0.500000
v -0.500000 0.500000 0.500000
v -0.500000 0.500000 -0.500000
v 0.500000 0.500000 -0.224018
v 0.268814 0.500000 -0.371768
v 0.351686 0.500000 -0.264673
v 0.384572 0.494133 -0.300216
v 0.403764 0.466978 -0.325076
v 0.405279 0.430037 -0.339992
v 0.397928 0.408778 -0.342860
v 0.412297 0.396677 -0.428439
v 0.500000 0.259087 -0.470378
v 0.500000 0.022087 -0.470378
v 0.470378 0.022087 -0.500000
v 0.448781 0.334658 -0.500000
v 0.338817 0.408778 -0.409188
v 0.333698 0.430037 -0.407481
v 0.318457 0.466978 -0.406570
v 0.297249 0.494133 -0.400067
v 0.303363 0.431771 -0.500000
v 0.292763 0.468861 -0.500000
v 0.500000 0.496126 -0.263639
v 0.500000 0.468861 -0.292763
v 0.500000 0.431771 -0.303363
v 0.500000 0.410427 -0.303363
v 0.500000 0.390208 -0.389440
vn 0.6819 -0.2644 -0.6819
vn 0.5428 -0.6408 -0.5428
vn 0.7071 -0.0000 -0.7071
vn -0.0000 1.0000 -0.0000
vn 0.0279 0.9988 -0.0395
vn 0.0079 0.9990 -0.0438
vn 0.1929 0.9283 -0.3178
vn 0.0991 0.9307 -0.3520
vn 0.4093 0.5747 -0.7087
vn 0.3375 0.1505 -0.9292
vn 0.5170 0.1476 -0.8432
vn 0.2983 0.5305 -0.7934
vn 0.4740 0.5711 -0.6703
vn 0.2013 0.9012 -0.3838
vn 0.2766 0.9263 -0.2560
vn 0.6285 0.5663 -0.5332
vn 0.4055 0.8960 -0.1808
vn 0.0435 0.9990 -0.0089
vn 0.4045 0.8904 -0.2087
vn 0.3513 0.9309 -0.0996
vn 0.8223 0.5185 -0.2344
vn 0.7483 0.5066 -0.4282
vn 0.9455 0.1531 -0.2874
vn 0.8114 0.2701 -0.5184
vn 0.7946 0.5467 -0.2639
vn 0.6086 0.6960 -0.3810
vn 0.5398 0.5540 -0.6338
vn 0.0560 0.9978 -0.0341
vn 0.7032 0.1054 -0.7032
vn 0.6799 0.2746 -0.6799
vn 0.5253 0.6694 -0.5253
vn 0.2605 0.5304 -0.8067
vt 0.230940 0.913041
vt 0.230940 0.913044
vt 0.230940 0.913048
vt 0.098058 0.917970
vt 0.098058 0.917962
vt 0.096133 0.643990
vt 0.094687 0.645423
vt 0.094735 0.644464
vt 0.094723 0.644704
vt 0.094723 0.644704
vt 0.094735 0.644464
vt 0.098057 0.917977
vt 0.098059 0.917955
vt 0.094758 0.643985
vt 0.094746 0.644225
vt 0.094758 0.643985
vt 0.094747 0.644225
vt 0.094747 0.644224
vt 0.098058 0.917962
vt 0.228013 0.893138
vt 0.096082 0.645398
s 1
f 11/1/1 2/2/2 8/3/1
f 8/4/1 10/5/3 11/5/1
f 15/6/4 12/7/4 18/8/5
f 16/9/6 19/8/7 18/8/5
f 34/9/8 20/8/9 19/8/7
f 20/8/9 36/9/10 21/8/11
f 21/8/11 37/10/12 22/11/13
f 22/4/13 38/12/14 23/4/15
f 23/5/15 27/5/16 5/13/17
f 13/14/18 31/15/19 6/16/20
f 31/15/19 33/16/21 6/16/20
f 30/17/22 32/16/23 33/16/21
f 29/17/24 7/16/25 32/16/23
f 28/5/26 5/13/17 7/13/25
f 23/4/15 38/12/14 3/4/27
f 17/18/28 19/8/7 31/15/19
f 19/8/7 30/17/22 31/15/19
f 20/8/9 29/17/24 30/17/22
f 29/17/24 22/11/13 28/17/26
f 28/5/26 22/4/13 23/5/15
f 23/4/15 3/4/27 27/5/16
f 3/4/27 4/5/29 27/5/16
f 24/4/29 26/19/30 4/5/29
f 1/20/31 26/1/30 25/3/30
f 8/4/1 9/4/3 10/5/3
f 17/18/28 13/14/18 15/6/4
f 15/6/4 14/21/4 12/7/4
f 12/7/4 16/9/6 18/8/5
f 18/8/5 17/18/28 15/6/4
f 16/9/6 34/9/8 19/8/7
f 34/9/8 35/9/32 20/8/9
f 20/8/9 35/9/32 36/9/10
f 21/8/11 36/9/10 37/10/12
f 22/4/13 37/12/12 38/12/14
f 13/14/18 17/18/28 31/15/19
f 31/15/19 30/17/22 33/16/21
f 30/17/22 29/17/24 32/16/23
f 29/17/24 28/17/26 7/16/25
f 28/5/26 23/5/15 5/13/17
f 17/18/28 18/8/5 19/8/7
f 19/8/7 20/8/9 30/17/22
f 20/8/9 21/8/11 29/17/24
f 29/17/24 21/8/11 22/11/13
f 3/4/27 24/4/29 4/5/29
f 24/4/29 25/4/30 26/19/30
