# Blender 4.0.2
# www.blender.org
o ?.001
v 0.058112 0.000000 0.040000
v -0.052999 0.000000 0.040000
v -0.052999 0.111111 0.040000
v 0.058112 0.111111 0.040000
v 0.169223 0.222222 0.040000
v -0.052999 0.222222 0.040000
v -0.052999 0.333333 0.040000
v 0.169223 0.333333 0.040000
v 0.169223 0.444444 0.040000
v -0.164110 0.444444 0.040000
v -0.164110 0.333333 0.040000
v -0.275221 0.333333 0.040000
v -0.275221 0.444444 0.040000
v -0.274998 0.452016 0.040000
v -0.274329 0.459394 0.040000
v -0.273214 0.466580 0.040000
v -0.271652 0.473573 0.040000
v -0.269645 0.480372 0.040000
v -0.267192 0.486979 0.040000
v -0.264292 0.493393 0.040000
v -0.260946 0.499614 0.040000
v -0.257155 0.505642 0.040000
v -0.252917 0.511478 0.040000
v -0.248233 0.517120 0.040000
v -0.243103 0.522569 0.040000
v -0.237515 0.527838 0.040000
v -0.231746 0.532649 0.040000
v -0.225796 0.537001 0.040000
v -0.219666 0.540895 0.040000
v -0.213354 0.544331 0.040000
v -0.206862 0.547309 0.040000
v -0.200189 0.549829 0.040000
v -0.193335 0.551890 0.040000
v -0.186300 0.553494 0.040000
v -0.179084 0.554639 0.040000
v -0.171687 0.555327 0.040000
v -0.164110 0.555556 0.040000
v 0.169223 0.555556 0.040000
v 0.176795 0.555327 0.040000
v 0.184173 0.554639 0.040000
v 0.191359 0.553494 0.040000
v 0.198351 0.551890 0.040000
v 0.205151 0.549829 0.040000
v 0.211758 0.547309 0.040000
v 0.218172 0.544331 0.040000
v 0.224393 0.540895 0.040000
v 0.230421 0.537001 0.040000
v 0.236257 0.532649 0.040000
v 0.241899 0.527838 0.040000
v 0.247348 0.522569 0.040000
v 0.252617 0.516987 0.040000
v 0.257427 0.511236 0.040000
v 0.261780 0.505317 0.040000
v 0.265674 0.499228 0.040000
v 0.269110 0.492971 0.040000
v 0.272088 0.486545 0.040000
v 0.274608 0.479950 0.040000
v 0.276669 0.473187 0.040000
v 0.278273 0.466254 0.040000
v 0.279418 0.459153 0.040000
v 0.280105 0.451883 0.040000
v 0.280335 0.444444 0.040000
v 0.280335 0.333333 0.040000
v 0.280105 0.325623 0.040000
v 0.279418 0.318118 0.040000
v 0.278273 0.310818 0.040000
v 0.276669 0.303723 0.040000
v 0.274608 0.296833 0.040000
v 0.272088 0.290148 0.040000
v 0.269110 0.283667 0.040000
v 0.265674 0.277392 0.040000
v 0.261780 0.271322 0.040000
v 0.257427 0.265456 0.040000
v 0.252617 0.259796 0.040000
v 0.247348 0.254340 0.040000
v 0.241766 0.249210 0.040000
v 0.236015 0.244526 0.040000
v 0.230096 0.240289 0.040000
v 0.224007 0.236497 0.040000
v 0.217750 0.233151 0.040000
v 0.211324 0.230252 0.040000
v 0.204729 0.227798 0.040000
v 0.197966 0.225791 0.040000
v 0.191033 0.224230 0.040000
v 0.183932 0.223114 0.040000
v 0.176662 0.222445 0.040000
v 0.058112 -0.000000 -0.040000
v -0.052999 -0.000000 -0.040000
v -0.052999 0.111111 -0.040000
v 0.058112 0.111111 -0.040000
v 0.169223 0.222222 -0.040000
v -0.052999 0.222222 -0.040000
v -0.052999 0.333333 -0.040000
v 0.169223 0.333333 -0.040000
v 0.169223 0.444444 -0.040000
v -0.164110 0.444444 -0.040000
v -0.164110 0.333333 -0.040000
v -0.275221 0.333333 -0.040000
v -0.275221 0.444444 -0.040000
v -0.274998 0.452016 -0.040000
v -0.274329 0.459394 -0.040000
v -0.273214 0.466580 -0.040000
v -0.271652 0.473573 -0.040000
v -0.269645 0.480372 -0.040000
v -0.267192 0.486979 -0.040000
v -0.264292 0.493393 -0.040000
v -0.260946 0.499614 -0.040000
v -0.257155 0.505642 -0.040000
v -0.252917 0.511478 -0.040000
v -0.248233 0.517120 -0.040000
v -0.243103 0.522569 -0.040000
v -0.237515 0.527838 -0.040000
v -0.231746 0.532649 -0.040000
v -0.225796 0.537001 -0.040000
v -0.219666 0.540895 -0.040000
v -0.213354 0.544331 -0.040000
v -0.206862 0.547309 -0.040000
v -0.200189 0.549829 -0.040000
v -0.193335 0.551890 -0.040000
v -0.186300 0.553494 -0.040000
v -0.179084 0.554639 -0.040000
v -0.171687 0.555327 -0.040000
v -0.164110 0.555556 -0.040000
v 0.169223 0.555556 -0.040000
v 0.176795 0.555327 -0.040000
v 0.184173 0.554639 -0.040000
v 0.191359 0.553494 -0.040000
v 0.198351 0.551890 -0.040000
v 0.205151 0.549829 -0.040000
v 0.211758 0.547309 -0.040000
v 0.218172 0.544331 -0.040000
v 0.224393 0.540895 -0.040000
v 0.230421 0.537001 -0.040000
v 0.236257 0.532649 -0.040000
v 0.241899 0.527838 -0.040000
v 0.247348 0.522569 -0.040000
v 0.252617 0.516987 -0.040000
v 0.257427 0.511236 -0.040000
v 0.261780 0.505317 -0.040000
v 0.265674 0.499228 -0.040000
v 0.269110 0.492971 -0.040000
v 0.272088 0.486545 -0.040000
v 0.274608 0.479950 -0.040000
v 0.276669 0.473187 -0.040000
v 0.278273 0.466254 -0.040000
v 0.279418 0.459153 -0.040000
v 0.280105 0.451883 -0.040000
v 0.280335 0.444444 -0.040000
v 0.280335 0.333333 -0.040000
v 0.280105 0.325623 -0.040000
v 0.279418 0.318118 -0.040000
v 0.278273 0.310818 -0.040000
v 0.276669 0.303723 -0.040000
v 0.274608 0.296833 -0.040000
v 0.272088 0.290148 -0.040000
v 0.269110 0.283667 -0.040000
v 0.265674 0.277392 -0.040000
v 0.261780 0.271322 -0.040000
v 0.257427 0.265456 -0.040000
v 0.252617 0.259796 -0.040000
v 0.247348 0.254340 -0.040000
v 0.241766 0.249210 -0.040000
v 0.236015 0.244526 -0.040000
v 0.230096 0.240289 -0.040000
v 0.224007 0.236497 -0.040000
v 0.217750 0.233151 -0.040000
v 0.211324 0.230252 -0.040000
v 0.204729 0.227798 -0.040000
v 0.197966 0.225791 -0.040000
v 0.191033 0.224230 -0.040000
v 0.183932 0.223114 -0.040000
v 0.176662 0.222445 -0.040000
v 0.058112 -0.000000 -0.040000
v 0.058112 0.000000 0.040000
v -0.052999 -0.000000 -0.040000
v -0.052999 0.000000 0.040000
v -0.052999 0.111111 -0.040000
v -0.052999 0.111111 0.040000
v 0.058112 0.111111 -0.040000
v 0.058112 0.111111 0.040000
v 0.169223 0.222222 -0.040000
v 0.169223 0.222222 0.040000
v -0.052999 0.222222 -0.040000
v -0.052999 0.222222 0.040000
v -0.052999 0.333333 -0.040000
v -0.052999 0.333333 0.040000
v 0.169223 0.333333 -0.040000
v 0.169223 0.333333 0.040000
v 0.169223 0.444444 -0.040000
v 0.169223 0.444444 0.040000
v -0.164110 0.444444 -0.040000
v -0.164110 0.444444 0.040000
v -0.164110 0.333333 -0.040000
v -0.164110 0.333333 0.040000
v -0.275221 0.333333 -0.040000
v -0.275221 0.333333 0.040000
v -0.275221 0.444444 -0.040000
v -0.275221 0.444444 0.040000
v -0.274998 0.452016 -0.040000
v -0.274998 0.452016 0.040000
v -0.274329 0.459394 -0.040000
v -0.274329 0.459394 0.040000
v -0.273214 0.466580 -0.040000
v -0.273214 0.466580 0.040000
v -0.271652 0.473573 -0.040000
v -0.271652 0.473573 0.040000
v -0.269645 0.480372 -0.040000
v -0.269645 0.480372 0.040000
v -0.267192 0.486979 -0.040000
v -0.267192 0.486979 0.040000
v -0.264292 0.493393 -0.040000
v -0.264292 0.493393 0.040000
v -0.260946 0.499614 -0.040000
v -0.260946 0.499614 0.040000
v -0.257155 0.505642 -0.040000
v -0.257155 0.505642 0.040000
v -0.252917 0.511478 -0.040000
v -0.252917 0.511478 0.040000
v -0.248233 0.517120 -0.040000
v -0.248233 0.517120 0.040000
v -0.243103 0.522569 -0.040000
v -0.243103 0.522569 0.040000
v -0.237515 0.527838 -0.040000
v -0.237515 0.527838 0.040000
v -0.231746 0.532649 -0.040000
v -0.231746 0.532649 0.040000
v -0.225796 0.537001 -0.040000
v -0.225796 0.537001 0.040000
v -0.219666 0.540895 -0.040000
v -0.219666 0.540895 0.040000
v -0.213354 0.544331 -0.040000
v -0.213354 0.544331 0.040000
v -0.206862 0.547309 -0.040000
v -0.206862 0.547309 0.040000
v -0.200189 0.549829 -0.040000
v -0.200189 0.549829 0.040000
v -0.193335 0.551890 -0.040000
v -0.193335 0.551890 0.040000
v -0.186300 0.553494 -0.040000
v -0.186300 0.553494 0.040000
v -0.179084 0.554639 -0.040000
v -0.179084 0.554639 0.040000
v -0.171687 0.555327 -0.040000
v -0.171687 0.555327 0.040000
v -0.164110 0.555556 -0.040000
v -0.164110 0.555556 0.040000
v 0.169223 0.555556 -0.040000
v 0.169223 0.555556 0.040000
v 0.176795 0.555327 -0.040000
v 0.176795 0.555327 0.040000
v 0.184173 0.554639 -0.040000
v 0.184173 0.554639 0.040000
v 0.191359 0.553494 -0.040000
v 0.191359 0.553494 0.040000
v 0.198351 0.551890 -0.040000
v 0.198351 0.551890 0.040000
v 0.205151 0.549829 -0.040000
v 0.205151 0.549829 0.040000
v 0.211758 0.547309 -0.040000
v 0.211758 0.547309 0.040000
v 0.218172 0.544331 -0.040000
v 0.218172 0.544331 0.040000
v 0.224393 0.540895 -0.040000
v 0.224393 0.540895 0.040000
v 0.230421 0.537001 -0.040000
v 0.230421 0.537001 0.040000
v 0.236257 0.532649 -0.040000
v 0.236257 0.532649 0.040000
v 0.241899 0.527838 -0.040000
v 0.241899 0.527838 0.040000
v 0.247348 0.522569 -0.040000
v 0.247348 0.522569 0.040000
v 0.252617 0.516987 -0.040000
v 0.252617 0.516987 0.040000
v 0.257427 0.511236 -0.040000
v 0.257427 0.511236 0.040000
v 0.261780 0.505317 -0.040000
v 0.261780 0.505317 0.040000
v 0.265674 0.499228 -0.040000
v 0.265674 0.499228 0.040000
v 0.269110 0.492971 -0.040000
v 0.269110 0.492971 0.040000
v 0.272088 0.486545 -0.040000
v 0.272088 0.486545 0.040000
v 0.274608 0.479950 -0.040000
v 0.274608 0.479950 0.040000
v 0.276669 0.473187 -0.040000
v 0.276669 0.473187 0.040000
v 0.278273 0.466254 -0.040000
v 0.278273 0.466254 0.040000
v 0.279418 0.459153 -0.040000
v 0.279418 0.459153 0.040000
v 0.280105 0.451883 -0.040000
v 0.280105 0.451883 0.040000
v 0.280335 0.444444 -0.040000
v 0.280335 0.444444 0.040000
v 0.280335 0.333333 -0.040000
v 0.280335 0.333333 0.040000
v 0.280105 0.325623 -0.040000
v 0.280105 0.325623 0.040000
v 0.279418 0.318118 -0.040000
v 0.279418 0.318118 0.040000
v 0.278273 0.310818 -0.040000
v 0.278273 0.310818 0.040000
v 0.276669 0.303723 -0.040000
v 0.276669 0.303723 0.040000
v 0.274608 0.296833 -0.040000
v 0.274608 0.296833 0.040000
v 0.272088 0.290148 -0.040000
v 0.272088 0.290148 0.040000
v 0.269110 0.283667 -0.040000
v 0.269110 0.283667 0.040000
v 0.265674 0.277392 -0.040000
v 0.265674 0.277392 0.040000
v 0.261780 0.271322 -0.040000
v 0.261780 0.271322 0.040000
v 0.257427 0.265456 -0.040000
v 0.257427 0.265456 0.040000
v 0.252617 0.259796 -0.040000
v 0.252617 0.259796 0.040000
v 0.247348 0.254340 -0.040000
v 0.247348 0.254340 0.040000
v 0.241766 0.249210 -0.040000
v 0.241766 0.249210 0.040000
v 0.236015 0.244526 -0.040000
v 0.236015 0.244526 0.040000
v 0.230096 0.240289 -0.040000
v 0.230096 0.240289 0.040000
v 0.224007 0.236497 -0.040000
v 0.224007 0.236497 0.040000
v 0.217750 0.233151 -0.040000
v 0.217750 0.233151 0.040000
v 0.211324 0.230252 -0.040000
v 0.211324 0.230252 0.040000
v 0.204729 0.227798 -0.040000
v 0.204729 0.227798 0.040000
v 0.197966 0.225791 -0.040000
v 0.197966 0.225791 0.040000
v 0.191033 0.224230 -0.040000
v 0.191033 0.224230 0.040000
v 0.183932 0.223114 -0.040000
v 0.183932 0.223114 0.040000
v 0.176662 0.222445 -0.040000
v 0.176662 0.222445 0.040000
vn -0.0000 -0.0000 1.0000
vn -0.0000 -0.0000 -1.0000
vn -0.7071 -0.7071 -0.0000
vn 0.7071 -0.7071 -0.0000
vn -0.7071 0.7071 -0.0000
vn 0.7071 0.7071 -0.0000
vn 0.0150 -0.9999 -0.0000
vn -0.9999 0.0147 -0.0000
vn -0.9982 0.0599 -0.0000
vn -0.9925 0.1219 -0.0000
vn -0.9826 0.1858 -0.0000
vn -0.9681 0.2507 -0.0000
vn -0.9488 0.3158 -0.0000
vn -0.9249 0.3803 -0.0000
vn -0.8965 0.4431 -0.0000
vn -0.9249 0.3802 -0.0000
vn -0.8641 0.5033 -0.0000
vn -0.8283 0.5603 -0.0000
vn -0.7897 0.6135 -0.0000
vn -0.7491 0.6624 -0.0000
vn -0.7074 0.7068 -0.0000
vn -0.6636 0.7481 -0.0000
vn -0.6157 0.7880 -0.0000
vn -0.5636 0.8261 -0.0000
vn -0.5074 0.8617 -0.0000
vn -0.4478 0.8941 -0.0000
vn -0.3853 0.9228 -0.0000
vn -0.3208 0.9471 -0.0000
vn -0.2553 0.9669 -0.0000
vn -0.1896 0.9819 -0.0000
vn -0.1247 0.9922 -0.0000
vn -0.0614 0.9981 -0.0000
vn -0.0151 0.9999 -0.0000
vn 0.0151 0.9999 -0.0000
vn 0.0616 0.9981 -0.0000
vn 0.1252 0.9921 -0.0000
vn 0.1906 0.9817 -0.0000
vn 0.2570 0.9664 -0.0000
vn 0.3234 0.9463 -0.0000
vn 0.3890 0.9212 -0.0000
vn 0.4526 0.8917 -0.0000
vn 0.5134 0.8582 -0.0000
vn 0.5705 0.8213 -0.0000
vn 0.6237 0.7817 -0.0000
vn 0.6723 0.7403 -0.0000
vn 0.7114 0.7028 -0.0000
vn 0.7475 0.6643 -0.0000
vn 0.7867 0.6173 -0.0000
vn 0.8245 0.5659 -0.0000
vn 0.8600 0.5103 -0.0000
vn 0.8924 0.4512 -0.0000
vn 0.9213 0.3889 -0.0000
vn 0.9459 0.3244 -0.0000
vn 0.9660 0.2586 -0.0000
vn 0.9813 0.1924 -0.0000
vn 0.9919 0.1267 -0.0000
vn 0.9980 0.0625 -0.0000
vn 0.9999 0.0155 -0.0000
vn 0.9999 -0.0149 -0.0000
vn 0.9982 -0.0605 -0.0000
vn 0.9924 -0.1231 -0.0000
vn 0.9822 -0.1878 -0.0000
vn 0.9673 -0.2537 -0.0000
vn 0.9475 -0.3199 -0.0000
vn 0.9228 -0.3854 -0.0000
vn 0.8934 -0.4492 -0.0000
vn 0.8599 -0.5104 -0.0000
vn 0.8228 -0.5683 -0.0000
vn 0.7830 -0.6221 -0.0000
vn 0.7410 -0.6715 -0.0000
vn 0.6983 -0.7158 -0.0000
vn 0.6544 -0.7562 -0.0000
vn 0.6071 -0.7946 -0.0000
vn 0.5556 -0.8314 -0.0000
vn 0.5004 -0.8658 -0.0000
vn 0.4416 -0.8972 -0.0000
vn 0.3802 -0.9249 -0.0000
vn 0.3168 -0.9485 -0.0000
vn 0.2522 -0.9677 -0.0000
vn 0.1876 -0.9823 -0.0000
vn 0.1235 -0.9923 -0.0000
vn 0.0608 -0.9981 -0.0000
vt 0.726329 0.779035
s 0
f 36/1/1 38/1/1 37/1/1
f 36/1/1 39/1/1 38/1/1
f 35/1/1 39/1/1 36/1/1
f 35/1/1 40/1/1 39/1/1
f 34/1/1 40/1/1 35/1/1
f 34/1/1 41/1/1 40/1/1
f 33/1/1 41/1/1 34/1/1
f 33/1/1 42/1/1 41/1/1
f 32/1/1 42/1/1 33/1/1
f 32/1/1 43/1/1 42/1/1
f 31/1/1 43/1/1 32/1/1
f 31/1/1 44/1/1 43/1/1
f 30/1/1 44/1/1 31/1/1
f 30/1/1 45/1/1 44/1/1
f 29/1/1 45/1/1 30/1/1
f 29/1/1 46/1/1 45/1/1
f 28/1/1 46/1/1 29/1/1
f 28/1/1 47/1/1 46/1/1
f 27/1/1 47/1/1 28/1/1
f 27/1/1 48/1/1 47/1/1
f 26/1/1 48/1/1 27/1/1
f 26/1/1 49/1/1 48/1/1
f 25/1/1 49/1/1 26/1/1
f 25/1/1 50/1/1 49/1/1
f 24/1/1 50/1/1 25/1/1
f 24/1/1 51/1/1 50/1/1
f 23/1/1 51/1/1 24/1/1
f 23/1/1 52/1/1 51/1/1
f 22/1/1 52/1/1 23/1/1
f 22/1/1 53/1/1 52/1/1
f 21/1/1 53/1/1 22/1/1
f 21/1/1 54/1/1 53/1/1
f 20/1/1 54/1/1 21/1/1
f 20/1/1 55/1/1 54/1/1
f 19/1/1 55/1/1 20/1/1
f 19/1/1 56/1/1 55/1/1
f 18/1/1 56/1/1 19/1/1
f 18/1/1 57/1/1 56/1/1
f 17/1/1 57/1/1 18/1/1
f 17/1/1 58/1/1 57/1/1
f 16/1/1 58/1/1 17/1/1
f 16/1/1 59/1/1 58/1/1
f 15/1/1 59/1/1 16/1/1
f 15/1/1 60/1/1 59/1/1
f 14/1/1 60/1/1 15/1/1
f 14/1/1 61/1/1 60/1/1
f 13/1/1 61/1/1 14/1/1
f 13/1/1 62/1/1 61/1/1
f 12/1/1 10/1/1 13/1/1
f 10/1/1 62/1/1 13/1/1
f 12/1/1 11/1/1 10/1/1
f 9/1/1 62/1/1 10/1/1
f 8/1/1 62/1/1 9/1/1
f 8/1/1 63/1/1 62/1/1
f 6/1/1 8/1/1 7/1/1
f 6/1/1 63/1/1 8/1/1
f 6/1/1 64/1/1 63/1/1
f 6/1/1 65/1/1 64/1/1
f 6/1/1 66/1/1 65/1/1
f 6/1/1 67/1/1 66/1/1
f 6/1/1 68/1/1 67/1/1
f 6/1/1 69/1/1 68/1/1
f 6/1/1 70/1/1 69/1/1
f 6/1/1 71/1/1 70/1/1
f 6/1/1 72/1/1 71/1/1
f 6/1/1 73/1/1 72/1/1
f 6/1/1 74/1/1 73/1/1
f 6/1/1 75/1/1 74/1/1
f 6/1/1 76/1/1 75/1/1
f 6/1/1 77/1/1 76/1/1
f 6/1/1 78/1/1 77/1/1
f 6/1/1 79/1/1 78/1/1
f 6/1/1 80/1/1 79/1/1
f 6/1/1 81/1/1 80/1/1
f 6/1/1 82/1/1 81/1/1
f 6/1/1 83/1/1 82/1/1
f 6/1/1 84/1/1 83/1/1
f 6/1/1 85/1/1 84/1/1
f 6/1/1 86/1/1 85/1/1
f 6/1/1 5/1/1 86/1/1
f 2/1/1 4/1/1 3/1/1
f 2/1/1 1/1/1 4/1/1
f 122/1/2 123/1/2 124/1/2
f 122/1/2 124/1/2 125/1/2
f 121/1/2 122/1/2 125/1/2
f 121/1/2 125/1/2 126/1/2
f 120/1/2 121/1/2 126/1/2
f 120/1/2 126/1/2 127/1/2
f 119/1/2 120/1/2 127/1/2
f 119/1/2 127/1/2 128/1/2
f 118/1/2 119/1/2 128/1/2
f 118/1/2 128/1/2 129/1/2
f 117/1/2 118/1/2 129/1/2
f 117/1/2 129/1/2 130/1/2
f 116/1/2 117/1/2 130/1/2
f 116/1/2 130/1/2 131/1/2
f 115/1/2 116/1/2 131/1/2
f 115/1/2 131/1/2 132/1/2
f 114/1/2 115/1/2 132/1/2
f 114/1/2 132/1/2 133/1/2
f 113/1/2 114/1/2 133/1/2
f 113/1/2 133/1/2 134/1/2
f 112/1/2 113/1/2 134/1/2
f 112/1/2 134/1/2 135/1/2
f 111/1/2 112/1/2 135/1/2
f 111/1/2 135/1/2 136/1/2
f 110/1/2 111/1/2 136/1/2
f 110/1/2 136/1/2 137/1/2
f 109/1/2 110/1/2 137/1/2
f 109/1/2 137/1/2 138/1/2
f 108/1/2 109/1/2 138/1/2
f 108/1/2 138/1/2 139/1/2
f 107/1/2 108/1/2 139/1/2
f 107/1/2 139/1/2 140/1/2
f 106/1/2 107/1/2 140/1/2
f 106/1/2 140/1/2 141/1/2
f 105/1/2 106/1/2 141/1/2
f 105/1/2 141/1/2 142/1/2
f 104/1/2 105/1/2 142/1/2
f 104/1/2 142/1/2 143/1/2
f 103/1/2 104/1/2 143/1/2
f 103/1/2 143/1/2 144/1/2
f 102/1/2 103/1/2 144/1/2
f 102/1/2 144/1/2 145/1/2
f 101/1/2 102/1/2 145/1/2
f 101/1/2 145/1/2 146/1/2
f 100/1/2 101/1/2 146/1/2
f 100/1/2 146/1/2 147/1/2
f 99/1/2 100/1/2 147/1/2
f 99/1/2 147/1/2 148/1/2
f 98/1/2 99/1/2 96/1/2
f 96/1/1 99/1/1 148/1/1
f 98/1/2 96/1/2 97/1/2
f 95/1/1 96/1/1 148/1/1
f 94/1/2 95/1/2 148/1/2
f 94/1/2 148/1/2 149/1/2
f 92/1/2 93/1/2 94/1/2
f 92/1/2 94/1/2 149/1/2
f 92/1/2 149/1/2 150/1/2
f 92/1/2 150/1/2 151/1/2
f 92/1/2 151/1/2 152/1/2
f 92/1/2 152/1/2 153/1/2
f 92/1/2 153/1/2 154/1/2
f 92/1/2 154/1/2 155/1/2
f 92/1/2 155/1/2 156/1/2
f 92/1/2 156/1/2 157/1/2
f 92/1/2 157/1/2 158/1/2
f 92/1/2 158/1/2 159/1/2
f 92/1/2 159/1/2 160/1/2
f 92/1/2 160/1/2 161/1/2
f 92/1/2 161/1/2 162/1/2
f 92/1/2 162/1/2 163/1/2
f 92/1/2 163/1/2 164/1/2
f 92/1/2 164/1/2 165/1/2
f 92/1/2 165/1/2 166/1/2
f 92/1/2 166/1/2 167/1/2
f 92/1/2 167/1/2 168/1/2
f 92/1/2 168/1/2 169/1/2
f 92/1/2 169/1/2 170/1/2
f 92/1/2 170/1/2 171/1/2
f 92/1/2 171/1/2 172/1/2
f 92/1/2 172/1/2 91/1/2
f 88/1/2 89/1/2 90/1/2
f 88/1/2 90/1/2 87/1/2
s 1
f 176/1/3 173/1/4 174/1/4
f 178/1/5 175/1/3 176/1/3
f 180/1/6 177/1/5 178/1/5
f 174/1/4 179/1/6 180/1/6
f 184/1/3 181/1/7 182/1/7
f 186/1/5 183/1/3 184/1/3
f 188/1/5 185/1/5 186/1/5
f 190/1/3 187/1/5 188/1/5
f 192/1/4 189/1/3 190/1/3
f 194/1/4 191/1/4 192/1/4
f 196/1/3 193/1/4 194/1/4
f 198/1/8 195/1/3 196/1/3
f 200/1/9 197/1/8 198/1/8
f 202/1/10 199/1/9 200/1/9
f 204/1/11 201/1/10 202/1/10
f 206/1/12 203/1/11 204/1/11
f 208/1/13 205/1/12 206/1/12
f 210/1/14 207/1/13 208/1/13
f 212/1/15 209/1/16 210/1/14
f 214/1/17 211/1/15 212/1/15
f 216/1/18 213/1/17 214/1/17
f 218/1/19 215/1/18 216/1/18
f 220/1/20 217/1/19 218/1/19
f 222/1/21 219/1/20 220/1/20
f 224/1/22 221/1/21 222/1/21
f 226/1/23 223/1/22 224/1/22
f 228/1/24 225/1/23 226/1/23
f 230/1/25 227/1/24 228/1/24
f 232/1/26 229/1/25 230/1/25
f 234/1/27 231/1/26 232/1/26
f 236/1/28 233/1/27 234/1/27
f 238/1/29 235/1/28 236/1/28
f 240/1/30 237/1/29 238/1/29
f 242/1/31 239/1/30 240/1/30
f 244/1/32 241/1/31 242/1/31
f 246/1/33 243/1/32 244/1/32
f 248/1/34 245/1/33 246/1/33
f 250/1/35 247/1/34 248/1/34
f 252/1/36 249/1/35 250/1/35
f 254/1/37 251/1/36 252/1/36
f 256/1/38 253/1/37 254/1/37
f 258/1/39 255/1/38 256/1/38
f 260/1/40 257/1/39 258/1/39
f 262/1/41 259/1/40 260/1/40
f 264/1/42 261/1/41 262/1/41
f 266/1/43 263/1/42 264/1/42
f 268/1/44 265/1/43 266/1/43
f 270/1/45 267/1/44 268/1/44
f 272/1/46 269/1/45 270/1/45
f 274/1/47 271/1/46 272/1/46
f 276/1/48 273/1/47 274/1/47
f 278/1/49 275/1/48 276/1/48
f 280/1/50 277/1/49 278/1/49
f 282/1/51 279/1/50 280/1/50
f 284/1/52 281/1/51 282/1/51
f 286/1/53 283/1/52 284/1/52
f 288/1/54 285/1/53 286/1/53
f 290/1/55 287/1/54 288/1/54
f 292/1/56 289/1/55 290/1/55
f 294/1/57 291/1/56 292/1/56
f 296/1/58 293/1/57 294/1/57
f 298/1/59 295/1/58 296/1/58
f 300/1/60 297/1/59 298/1/59
f 302/1/61 299/1/60 300/1/60
f 304/1/62 301/1/61 302/1/61
f 306/1/63 303/1/62 304/1/62
f 308/1/64 305/1/63 306/1/63
f 310/1/65 307/1/64 308/1/64
f 312/1/66 309/1/65 310/1/65
f 314/1/67 311/1/66 312/1/66
f 316/1/68 313/1/67 314/1/67
f 318/1/69 315/1/68 316/1/68
f 320/1/70 317/1/69 318/1/69
f 322/1/71 319/1/70 320/1/70
f 324/1/72 321/1/71 322/1/71
f 326/1/73 323/1/72 324/1/72
f 328/1/74 325/1/73 326/1/73
f 330/1/75 327/1/74 328/1/74
f 332/1/76 329/1/75 330/1/75
f 334/1/77 331/1/76 332/1/76
f 336/1/78 333/1/77 334/1/77
f 338/1/79 335/1/78 336/1/78
f 340/1/80 337/1/79 338/1/79
f 342/1/81 339/1/80 340/1/80
f 344/1/82 341/1/81 342/1/81
f 182/1/7 343/1/82 344/1/82
f 176/1/3 175/1/3 173/1/4
f 178/1/5 177/1/5 175/1/3
f 180/1/6 179/1/6 177/1/5
f 174/1/4 173/1/4 179/1/6
f 184/1/3 183/1/3 181/1/7
f 186/1/5 185/1/5 183/1/3
f 188/1/5 187/1/5 185/1/5
f 190/1/3 189/1/3 187/1/5
f 192/1/4 191/1/4 189/1/3
f 194/1/4 193/1/4 191/1/4
f 196/1/3 195/1/3 193/1/4
f 198/1/8 197/1/8 195/1/3
f 200/1/9 199/1/9 197/1/8
f 202/1/10 201/1/10 199/1/9
f 204/1/11 203/1/11 201/1/10
f 206/1/12 205/1/12 203/1/11
f 208/1/13 207/1/13 205/1/12
f 210/1/14 209/1/16 207/1/13
f 212/1/15 211/1/15 209/1/16
f 214/1/17 213/1/17 211/1/15
f 216/1/18 215/1/18 213/1/17
f 218/1/19 217/1/19 215/1/18
f 220/1/20 219/1/20 217/1/19
f 222/1/21 221/1/21 219/1/20
f 224/1/22 223/1/22 221/1/21
f 226/1/23 225/1/23 223/1/22
f 228/1/24 227/1/24 225/1/23
f 230/1/25 229/1/25 227/1/24
f 232/1/26 231/1/26 229/1/25
f 234/1/27 233/1/27 231/1/26
f 236/1/28 235/1/28 233/1/27
f 238/1/29 237/1/29 235/1/28
f 240/1/30 239/1/30 237/1/29
f 242/1/31 241/1/31 239/1/30
f 244/1/32 243/1/32 241/1/31
f 246/1/33 245/1/33 243/1/32
f 248/1/34 247/1/34 245/1/33
f 250/1/35 249/1/35 247/1/34
f 252/1/36 251/1/36 249/1/35
f 254/1/37 253/1/37 251/1/36
f 256/1/38 255/1/38 253/1/37
f 258/1/39 257/1/39 255/1/38
f 260/1/40 259/1/40 257/1/39
f 262/1/41 261/1/41 259/1/40
f 264/1/42 263/1/42 261/1/41
f 266/1/43 265/1/43 263/1/42
f 268/1/44 267/1/44 265/1/43
f 270/1/45 269/1/45 267/1/44
f 272/1/46 271/1/46 269/1/45
f 274/1/47 273/1/47 271/1/46
f 276/1/48 275/1/48 273/1/47
f 278/1/49 277/1/49 275/1/48
f 280/1/50 279/1/50 277/1/49
f 282/1/51 281/1/51 279/1/50
f 284/1/52 283/1/52 281/1/51
f 286/1/53 285/1/53 283/1/52
f 288/1/54 287/1/54 285/1/53
f 290/1/55 289/1/55 287/1/54
f 292/1/56 291/1/56 289/1/55
f 294/1/57 293/1/57 291/1/56
f 296/1/58 295/1/58 293/1/57
f 298/1/59 297/1/59 295/1/58
f 300/1/60 299/1/60 297/1/59
f 302/1/61 301/1/61 299/1/60
f 304/1/62 303/1/62 301/1/61
f 306/1/63 305/1/63 303/1/62
f 308/1/64 307/1/64 305/1/63
f 310/1/65 309/1/65 307/1/64
f 312/1/66 311/1/66 309/1/65
f 314/1/67 313/1/67 311/1/66
f 316/1/68 315/1/68 313/1/67
f 318/1/69 317/1/69 315/1/68
f 320/1/70 319/1/70 317/1/69
f 322/1/71 321/1/71 319/1/70
f 324/1/72 323/1/72 321/1/71
f 326/1/73 325/1/73 323/1/72
f 328/1/74 327/1/74 325/1/73
f 330/1/75 329/1/75 327/1/74
f 332/1/76 331/1/76 329/1/75
f 334/1/77 333/1/77 331/1/76
f 336/1/78 335/1/78 333/1/77
f 338/1/79 337/1/79 335/1/78
f 340/1/80 339/1/80 337/1/79
f 342/1/81 341/1/81 339/1/80
f 344/1/82 343/1/82 341/1/81
f 182/1/7 181/1/7 343/1/82
