# Blender 3.6.0
# www.blender.org
o ice_crystals
v -0.250000 0.580625 -0.022097
v -0.250000 0.580625 0.022097
v -0.227903 0.580625 0.000000
v -0.272097 0.580625 0.000000
v -0.272097 0.306875 0.000000
v -0.227903 0.306875 0.000000
v -0.250000 0.306875 0.022097
v -0.250000 0.306875 -0.022097
v -0.338388 0.381875 0.000000
v -0.250000 0.505625 -0.088388
v -0.250000 0.381875 -0.088388
v -0.338388 0.505625 0.000000
v -0.250000 0.505625 0.088388
v -0.250000 0.381875 0.088388
v -0.161612 0.381875 0.000000
v -0.161612 0.505625 0.000000
v 0.250000 0.580625 -0.022097
v 0.250000 0.580625 0.022097
v 0.272097 0.580625 0.000000
v 0.227903 0.580625 0.000000
v 0.227903 0.306875 0.000000
v 0.272097 0.306875 0.000000
v 0.250000 0.306875 0.022097
v 0.250000 0.306875 -0.022097
v 0.161612 0.381875 0.000000
v 0.250000 0.505625 -0.088388
v 0.250000 0.381875 -0.088388
v 0.161612 0.505625 0.000000
v 0.250000 0.505625 0.088388
v 0.250000 0.381875 0.088388
v 0.338388 0.381875 0.000000
v 0.338388 0.505625 0.000000
v 0.000000 0.580625 0.227903
v -0.000000 0.580625 0.272097
v 0.022097 0.580625 0.250000
v -0.022097 0.580625 0.250000
v -0.022097 0.306875 0.250000
v 0.022097 0.306875 0.250000
v -0.000000 0.306875 0.272097
v 0.000000 0.306875 0.227903
v -0.088388 0.381875 0.250000
v 0.000000 0.505625 0.161612
v 0.000000 0.381875 0.161612
v -0.088388 0.505625 0.250000
v -0.000000 0.505625 0.338388
v -0.000000 0.381875 0.338388
v 0.088388 0.381875 0.250000
v 0.088388 0.505625 0.250000
v 0.000000 0.580625 -0.272097
v -0.000000 0.580625 -0.227903
v 0.022097 0.580625 -0.250000
v -0.022097 0.580625 -0.250000
v -0.022097 0.306875 -0.250000
v 0.022097 0.306875 -0.250000
v -0.000000 0.306875 -0.227903
v 0.000000 0.306875 -0.272097
v -0.088388 0.381875 -0.250000
v 0.000000 0.505625 -0.338388
v 0.000000 0.381875 -0.338388
v -0.088388 0.505625 -0.250000
v -0.000000 0.505625 -0.161612
v -0.000000 0.381875 -0.161612
v 0.088388 0.381875 -0.250000
v 0.088388 0.505625 -0.250000
vn -0.0000 1.0000 -0.0000
vn -0.0000 -1.0000 -0.0000
vn -0.7071 -0.0000 -0.7071
vn -0.7071 -0.0000 0.7071
vn 0.7071 -0.0000 -0.7071
vn 0.7071 -0.0000 0.7071
vn 0.6671 0.3317 -0.6671
vn 0.6671 0.3317 0.6671
vn -0.6671 0.3317 0.6671
vn -0.6671 0.3317 -0.6671
vn -0.6671 -0.3317 -0.6671
vn 0.6671 -0.3317 0.6671
vn 0.6671 -0.3317 -0.6671
vn -0.6671 -0.3317 0.6671
vt 0.865371 0.624041
vt 0.867766 0.620653
s 1
f 1/1/1 2/1/1 3/1/1
f 2/1/1 1/1/1 4/1/1
f 5/2/2 6/2/2 7/2/2
f 6/2/2 5/2/2 8/2/2
f 9/2/3 10/2/3 11/2/3
f 10/2/3 9/2/3 12/2/3
f 13/1/4 9/1/4 14/1/4
f 9/1/4 13/1/4 12/1/4
f 10/2/5 15/2/5 11/2/5
f 15/2/5 10/2/5 16/2/5
f 13/1/6 15/1/6 16/1/6
f 15/1/6 13/1/6 14/1/6
f 1/1/7 16/1/7 10/1/7
f 16/1/7 1/1/7 3/1/7
f 3/1/8 13/1/8 16/1/8
f 13/1/8 3/1/8 2/1/8
f 2/1/9 12/1/9 13/1/9
f 12/1/9 2/1/9 4/1/9
f 12/2/10 1/2/10 10/2/10
f 1/2/10 12/2/10 4/2/10
f 8/2/11 9/2/11 11/2/11
f 9/2/11 8/2/11 5/2/11
f 14/2/12 6/2/12 15/2/12
f 6/2/12 14/2/12 7/2/12
f 11/2/13 6/2/13 8/2/13
f 6/2/13 11/2/13 15/2/13
f 14/2/14 5/2/14 7/2/14
f 5/2/14 14/2/14 9/2/14
f 17/1/1 18/1/1 19/1/1
f 18/1/1 17/1/1 20/1/1
f 21/2/2 22/2/2 23/2/2
f 22/2/2 21/2/2 24/2/2
f 25/2/3 26/2/3 27/2/3
f 26/2/3 25/2/3 28/2/3
f 29/1/4 25/1/4 30/1/4
f 25/1/4 29/1/4 28/1/4
f 26/2/5 31/2/5 27/2/5
f 31/2/5 26/2/5 32/2/5
f 29/1/6 31/1/6 32/1/6
f 31/1/6 29/1/6 30/1/6
f 17/2/7 32/2/7 26/2/7
f 32/2/7 17/2/7 19/2/7
f 19/1/8 29/1/8 32/1/8
f 29/1/8 19/1/8 18/1/8
f 18/1/9 28/1/9 29/1/9
f 28/1/9 18/1/9 20/1/9
f 28/2/10 17/2/10 26/2/10
f 17/1/10 28/1/10 20/1/10
f 24/2/11 25/2/11 27/2/11
f 25/2/11 24/2/11 21/2/11
f 30/2/12 22/2/12 31/2/12
f 22/2/12 30/2/12 23/2/12
f 27/2/13 22/2/13 24/2/13
f 22/2/13 27/2/13 31/2/13
f 30/2/14 21/2/14 23/2/14
f 21/2/14 30/2/14 25/2/14
f 33/1/1 34/1/1 35/1/1
f 34/1/1 33/1/1 36/1/1
f 37/2/2 38/2/2 39/2/2
f 38/2/2 37/2/2 40/2/2
f 41/2/3 42/2/3 43/2/3
f 42/2/3 41/2/3 44/2/3
f 45/1/4 41/1/4 46/1/4
f 41/1/4 45/1/4 44/1/4
f 42/2/5 47/2/5 43/2/5
f 47/2/5 42/2/5 48/2/5
f 45/1/6 47/1/6 48/1/6
f 47/1/6 45/1/6 46/1/6
f 33/1/7 48/1/7 42/1/7
f 48/1/7 33/1/7 35/1/7
f 35/1/8 45/1/8 48/1/8
f 45/1/8 35/1/8 34/1/8
f 34/1/9 44/1/9 45/1/9
f 44/1/9 34/1/9 36/1/9
f 44/1/10 33/1/10 42/1/10
f 33/1/10 44/1/10 36/1/10
f 40/2/11 41/2/11 43/2/11
f 41/2/11 40/2/11 37/2/11
f 46/2/12 38/2/12 47/2/12
f 38/2/12 46/2/12 39/2/12
f 43/2/13 38/2/13 40/2/13
f 38/2/13 43/2/13 47/2/13
f 46/2/14 37/2/14 39/2/14
f 37/2/14 46/2/14 41/2/14
f 49/2/1 50/2/1 51/2/1
f 50/2/1 49/2/1 52/2/1
f 53/2/2 54/2/2 55/2/2
f 54/2/2 53/2/2 56/2/2
f 57/2/3 58/2/3 59/2/3
f 58/2/3 57/2/3 60/2/3
f 61/2/4 57/2/4 62/2/4
f 57/2/4 61/2/4 60/2/4
f 58/2/5 63/2/5 59/2/5
f 63/2/5 58/2/5 64/2/5
f 61/2/6 63/2/6 64/2/6
f 63/2/6 61/2/6 62/2/6
f 49/2/7 64/2/7 58/2/7
f 64/2/7 49/2/7 51/2/7
f 51/2/8 61/2/8 64/2/8
f 61/2/8 51/2/8 50/2/8
f 50/2/9 60/2/9 61/2/9
f 60/2/9 50/2/9 52/2/9
f 60/2/10 49/2/10 58/2/10
f 49/2/10 60/2/10 52/2/10
f 56/2/11 57/2/11 59/2/11
f 57/2/11 56/2/11 53/2/11
f 62/2/12 54/2/12 63/2/12
f 54/2/12 62/2/12 55/2/12
f 59/2/13 54/2/13 56/2/13
f 54/2/13 59/2/13 63/2/13
f 62/2/14 53/2/14 55/2/14
f 53/2/14 62/2/14 57/2/14
