# Blender 4.2.3 LTS
# www.blender.org
o javelin
v 0.008719 -0.013056 0.588878
v 0.008719 0.004381 0.588878
v -0.008719 -0.013056 0.588878
v -0.008719 0.004381 0.588878
v 0.008719 -0.013056 -0.587301
v 0.008719 0.004381 -0.587301
v -0.008719 -0.013056 -0.587301
v -0.008719 0.004381 -0.587301
v -0.014678 0.010341 -0.605936
v -0.014678 -0.019015 -0.605936
v 0.014678 -0.019015 -0.605936
v 0.014678 0.010341 -0.605936
v 0.000000 -0.004337 -0.680128
vn -0.0000 -0.0000 1.0000
vn -1.0000 -0.0000 -0.0000
vn -0.0000 0.9525 0.3046
vn 1.0000 -0.0000 -0.0000
vn -0.0000 -1.0000 -0.0000
vn -0.0000 1.0000 -0.0000
vn -0.0000 0.9810 -0.1941
vn -0.9525 -0.0000 0.3046
vn 0.9525 -0.0000 0.3046
vn -0.0000 -0.9525 0.3046
vn -0.9810 -0.0000 -0.1941
vn 0.9810 -0.0000 -0.1941
vn -0.0000 -0.9810 -0.1941
vt 0.236339 0.889057
vt 0.231852 0.893544
vt 0.231852 0.889057
vt 0.236339 0.893544
vt 0.231852 0.898031
vt 0.487941 0.614593
vt 0.487941 0.599073
vt 0.236339 0.902519
vt 0.231852 0.907006
vt 0.231852 0.902519
vt 0.227364 0.902519
vt 0.227364 0.898031
vt 0.240826 0.898031
vt 0.236339 0.898031
vt 0.480181 0.606833
vt 0.472421 0.599073
vt 0.472421 0.614593
vt 0.236339 0.907006
vt 0.240826 0.902519
s 0
f 2/1/1 3/2/1 1/3/1
f 4/4/2 7/5/2 3/2/2
f 6/6/3 9/7/3 8/7/3
f 6/8/4 1/9/4 5/10/4
f 7/5/5 1/11/5 3/12/5
f 4/13/6 6/8/6 8/14/6
f 9/7/7 12/6/7 13/15/7
f 8/7/8 10/16/8 7/16/8
f 5/17/9 12/6/9 6/6/9
f 7/16/10 11/17/10 5/17/10
f 10/16/11 9/7/11 13/15/11
f 12/6/12 11/17/12 13/15/12
f 11/17/13 10/16/13 13/15/13
f 2/1/1 4/4/1 3/2/1
f 4/4/2 8/14/2 7/5/2
f 6/6/3 12/6/3 9/7/3
f 6/8/4 2/18/4 1/9/4
f 7/5/5 5/10/5 1/11/5
f 4/13/6 2/19/6 6/8/6
f 8/7/8 9/7/8 10/16/8
f 5/17/9 11/17/9 12/6/9
f 7/16/10 10/16/10 11/17/10
