# Blender 4.2.3 LTS
# www.blender.org
o desert_rock_1
v 0.274238 0.003478 0.259126
v 0.214327 0.419464 0.193694
v -0.274238 0.003478 0.259126
v -0.205098 0.402247 0.203633
v 0.274238 0.003478 -0.259126
v 0.182194 0.384405 -0.181859
v -0.274238 0.003478 -0.259126
v -0.214327 0.363877 -0.193694
v 0.239031 0.192936 0.228762
v -0.242813 0.242559 0.228314
v -0.239031 0.271224 -0.228762
v 0.242813 0.221601 -0.228314
v -0.255693 0.156755 0.240943
v -0.253461 0.173671 -0.241207
v 0.255693 0.144388 -0.240943
v 0.253461 0.097732 0.241207
v -0.000000 0.003478 0.259126
v 0.004615 0.414257 0.198664
v 0.000000 0.003478 -0.259126
v -0.004615 0.393484 -0.198664
v -0.070385 0.324842 -0.228605
v 0.070385 0.288851 0.228605
v 0.053674 0.195662 0.241115
v -0.053674 0.215786 -0.241115
v -0.274238 0.003478 -0.000000
v -0.209713 0.385229 0.004970
v 0.274238 0.003478 0.000000
v 0.209713 0.417173 -0.004970
v 0.241300 0.257465 -0.045484
v -0.239976 0.315508 -0.114493
v -0.254019 0.207395 -0.086680
v 0.254800 0.172534 -0.034487
v -0.049534 0.394605 -0.089011
v 0.263917 0.140009 0.249416
v 0.248116 0.198532 0.238326
v 0.255050 0.255603 -0.045378
v -0.070377 0.315447 -0.241668
v 0.252275 0.223926 -0.237628
v -0.253797 0.307113 -0.114701
v -0.248765 0.267940 -0.237931
v 0.070724 0.283488 0.241628
v -0.252659 0.242571 0.237298
v -0.265294 0.165829 0.250160
v -0.263193 0.180687 -0.250379
v 0.265801 0.154871 -0.249629
v 0.054005 0.200137 0.254138
v -0.267839 0.210425 -0.086785
v -0.053559 0.217929 -0.254174
v 0.268544 0.179670 -0.034306
vn -0.0328 0.2158 0.9759
vn -0.9462 0.2991 -0.1237
vn 0.1038 0.3124 -0.9443
vn 0.9929 0.1137 0.0350
vn -0.0689 0.9961 -0.0551
vn 0.3062 0.6658 -0.6804
vn -0.4886 0.8122 -0.3188
vn -0.6514 -0.7496 0.1178
vn -0.3691 0.9179 -0.1459
vn -0.0000 0.1178 0.9930
vn -0.9951 0.0987 -0.0000
vn -0.0000 0.1280 -0.9918
vn 0.9766 0.2153 -0.0000
vn -0.0000 0.1047 -0.9945
vn -0.0000 0.1868 0.9824
vn -0.2581 0.9635 -0.0711
vn 0.2590 0.7842 -0.5638
vn -0.0883 0.9948 -0.0513
vn -0.1197 0.3792 -0.9175
vn 0.0913 0.1621 0.9826
vn -0.1410 0.9877 -0.0679
vn 0.9915 0.1305 -0.0000
vn -0.9928 0.1201 -0.0000
vn 0.0636 -0.6773 0.7330
vn 0.1289 0.9651 0.2281
vn 0.0477 0.9988 0.0093
vn 0.9292 0.3642 -0.0637
vn -0.9484 0.3115 0.0584
vn 0.9615 0.2697 0.0534
vn 0.0496 0.1804 -0.9823
vn -0.9835 0.1710 -0.0590
vn -0.0305 0.1701 0.9850
vn 0.0811 0.2067 0.9750
vn -0.0442 0.1483 -0.9880
vn -0.9855 0.1672 0.0296
vn 0.9796 0.1980 -0.0353
vn 0.1631 0.9705 0.1774
vn -0.1019 -0.5746 -0.8121
vn -0.1356 0.9149 0.3803
vn -0.2542 -0.9127 0.3200
vn -0.2106 -0.9659 -0.1504
vn 0.9717 -0.2292 -0.0575
vn 0.2038 -0.9664 -0.1569
vn 0.4561 -0.8815 0.1222
vn 0.0149 0.1493 0.9887
vn -0.9001 0.4350 -0.0258
vn 0.1001 0.3073 -0.9463
vn 0.9795 0.2001 -0.0251
vn -0.0251 0.9996 -0.0109
vn 0.4671 0.8218 0.3263
vn -0.0348 0.9520 -0.3041
vn -0.2110 -0.9552 0.2077
vn 0.1331 0.9728 -0.1897
vn -0.0127 0.0968 0.9952
vn -0.9918 0.1243 -0.0307
vn 0.0213 0.0899 -0.9957
vn 0.9918 0.1218 0.0379
vn -0.0165 0.0804 -0.9966
vn 0.0398 0.0822 0.9958
vn -0.2494 0.7861 -0.5655
vn 0.2377 0.8579 0.4555
vn -0.0590 0.9947 -0.0838
vn -0.0868 0.4670 -0.8800
vn 0.0170 0.2406 0.9705
vn -0.1185 0.9876 -0.1034
vn 0.9936 0.1120 -0.0110
vn -0.9946 0.1032 0.0109
vn 0.1180 -0.9400 0.3200
vn -0.6218 0.7706 0.1398
vn -0.0280 0.9837 -0.1779
vn 0.9523 0.2371 -0.1921
vn -0.9731 0.2303 0.0029
vn 0.9812 0.1832 0.0608
vn 0.0509 0.1357 -0.9894
vn -0.9895 0.1210 -0.0789
vn -0.0328 0.1548 0.9874
vn 0.0816 0.1319 0.9879
vn -0.0522 0.1182 -0.9916
vn -0.9878 0.1525 0.0311
vn 0.9847 0.1689 -0.0420
vn -0.5131 0.8404 0.1746
vn -0.2219 -0.9619 -0.1599
vn -0.1226 0.9831 -0.1357
vn -0.0838 -0.1699 0.9819
vn -0.7262 -0.6822 -0.0848
vn 0.4589 -0.8809 -0.1157
vn 0.1166 -0.7253 -0.6785
vn 0.7454 -0.6633 0.0669
vt 0.350253 0.766742
vt 0.349195 0.761170
vt 0.352922 0.765267
vt 0.342783 0.760232
vt 0.340806 0.761378
vt 0.341062 0.758758
vt 0.359329 0.778175
vt 0.361143 0.772735
vt 0.361524 0.778518
vt 0.358534 0.770487
vt 0.352910 0.769284
vt 0.356325 0.765768
vt 0.461639 0.773701
vt 0.475795 0.759525
vt 0.482297 0.776905
vt 0.359975 0.887140
vt 0.356573 0.886639
vt 0.344713 0.880129
vt 0.346433 0.881604
vt 0.370148 0.881712
vt 0.366862 0.883481
vt 0.364794 0.894107
vt 0.362184 0.891858
vt 0.475642 0.898280
vt 0.479961 0.892414
vt 0.481162 0.895916
vt 0.485431 0.885560
vt 0.490798 0.887119
vt 0.485979 0.891517
vt 0.453269 0.896279
vt 0.459211 0.895950
vt 0.458602 0.899350
vt 0.464364 0.899998
vt 0.469904 0.897663
vt 0.470125 0.900656
vt 0.449553 0.889435
vt 0.447933 0.893217
vt 0.367173 0.902271
vt 0.365174 0.899890
vt 0.475852 0.787893
vt 0.360953 0.781474
vt 0.363523 0.780900
vt 0.490101 0.788015
vt 0.490067 0.773719
vt 0.361392 0.890334
vt 0.354909 0.891870
vt 0.488642 0.761142
vt 0.357658 0.774900
vt 0.344202 0.762787
vt 0.340017 0.889945
vt 0.346588 0.890029
vt 0.346729 0.891714
vt 0.328883 0.885621
vt 0.335345 0.888233
vt 0.334843 0.890136
vt 0.364225 0.882286
vt 0.366347 0.879030
vt 0.367916 0.880934
vt 0.350772 0.888793
vt 0.357130 0.885713
vt 0.358017 0.887700
vt 0.325449 0.882599
vt 0.324165 0.884705
vt 0.352846 0.882542
vt 0.340642 0.893871
vt 0.335231 0.888400
vt 0.351335 0.895584
vt 0.345284 0.893530
vt 0.330984 0.887356
vt 0.347597 0.764200
vt 0.355284 0.772092
vt 0.461634 0.759570
vt 0.473478 0.893949
vt 0.488718 0.883791
vt 0.453800 0.890479
vt 0.463853 0.895610
vt 0.461634 0.787858
vt 0.339953 0.887794
vt 0.329610 0.882964
vt 0.363362 0.879629
vt 0.349747 0.886657
s 0
f 18/1/1 10/2/1 22/3/1
f 30/4/2 8/5/2 11/6/2
f 20/7/3 12/8/3 21/9/3
f 29/10/4 2/11/4 9/12/4
f 18/13/5 28/14/5 33/15/5
f 9/16/6 41/17/6 35/16/6
f 11/18/7 39/19/7 30/19/7
f 14/20/8 47/21/8 44/20/8
f 12/22/9 36/23/9 38/22/9
f 17/24/10 13/25/10 3/26/10
f 31/27/11 7/28/11 25/29/11
f 19/30/12 15/31/12 5/32/12
f 27/33/13 16/34/13 1/35/13
f 14/36/14 19/30/14 7/37/14
f 16/34/15 17/24/15 1/35/15
f 11/38/16 37/39/16 40/38/16
f 12/22/17 37/39/17 21/39/17
f 26/40/18 18/13/18 33/15/18
f 8/41/19 21/9/19 11/42/19
f 2/11/20 22/3/20 9/12/20
f 8/43/21 33/15/21 20/44/21
f 15/31/22 27/33/22 5/32/22
f 13/25/23 25/29/23 3/26/23
f 13/45/24 46/46/24 43/45/24
f 9/16/25 36/23/25 29/23/25
f 33/15/26 6/47/26 20/44/26
f 6/48/27 29/10/27 12/8/27
f 10/2/28 26/49/28 30/4/28
f 49/50/29 35/51/29 34/52/29
f 48/53/30 38/54/30 45/55/30
f 47/56/31 40/57/31 44/58/31
f 46/59/32 42/60/32 43/61/32
f 35/51/33 46/59/33 34/52/33
f 40/62/34 48/53/34 44/63/34
f 42/60/35 47/56/35 43/61/35
f 38/54/36 49/50/36 45/55/36
f 10/64/37 39/19/37 42/64/37
f 15/65/38 48/66/38 45/65/38
f 10/64/39 41/17/39 22/17/39
f 23/46/40 34/67/40 46/46/40
f 13/45/41 47/21/41 31/21/41
f 32/68/42 34/67/42 16/67/42
f 14/69/43 48/66/43 24/66/43
f 15/65/44 49/68/44 32/68/44
f 18/1/45 4/70/45 10/2/45
f 30/4/46 26/49/46 8/5/46
f 20/7/47 6/48/47 12/8/47
f 29/10/48 28/71/48 2/11/48
f 18/13/49 2/72/49 28/14/49
f 9/16/50 22/17/50 41/17/50
f 11/18/51 40/18/51 39/19/51
f 14/20/52 31/21/52 47/21/52
f 12/22/53 29/23/53 36/23/53
f 17/24/54 23/73/54 13/25/54
f 31/27/55 14/74/55 7/28/55
f 19/30/56 24/75/56 15/31/56
f 27/33/57 32/76/57 16/34/57
f 14/36/58 24/75/58 19/30/58
f 16/34/59 23/73/59 17/24/59
f 11/38/60 21/39/60 37/39/60
f 12/22/61 38/22/61 37/39/61
f 26/40/62 4/77/62 18/13/62
f 8/41/63 20/7/63 21/9/63
f 2/11/64 18/1/64 22/3/64
f 8/43/65 26/40/65 33/15/65
f 15/31/66 32/76/66 27/33/66
f 13/25/67 31/27/67 25/29/67
f 13/45/68 23/46/68 46/46/68
f 9/16/69 35/16/69 36/23/69
f 33/15/70 28/14/70 6/47/70
f 6/48/71 28/71/71 29/10/71
f 10/2/72 4/70/72 26/49/72
f 49/50/73 36/78/73 35/51/73
f 48/53/74 37/79/74 38/54/74
f 47/56/75 39/80/75 40/57/75
f 46/59/76 41/81/76 42/60/76
f 35/51/77 41/81/77 46/59/77
f 40/62/78 37/79/78 48/53/78
f 42/60/79 39/80/79 47/56/79
f 38/54/80 36/78/80 49/50/80
f 10/64/81 30/19/81 39/19/81
f 15/65/82 24/66/82 48/66/82
f 10/64/83 42/64/83 41/17/83
f 23/46/84 16/67/84 34/67/84
f 13/45/85 43/45/85 47/21/85
f 32/68/86 49/68/86 34/67/86
f 14/69/87 44/69/87 48/66/87
f 15/65/88 45/65/88 49/68/88
