# Blender 4.2.5 LTS
# www.blender.org
o sand_edge_0
v 0.500000 0.349993 0.500000
v 0.500000 0.222559 0.500000
v 0.500000 0.237412 0.471200
v 0.500000 0.335618 0.471200
v 0.318757 -0.495472 0.559429
v 0.384834 -0.152681 0.560774
v 0.357751 -0.293182 0.560223
v 0.596783 -0.495472 0.287173
v 0.711028 -0.210261 0.217795
v 0.364850 -0.152661 0.559648
v 0.337774 -0.278325 0.559606
v 0.696621 -0.205299 0.202856
v -0.005957 -0.501168 0.478200
v 0.073031 -0.365430 0.488085
v 0.573413 -0.501168 0.126179
v 0.559567 -0.312550 0.189946
v 0.228955 -0.501168 0.285247
v 0.269984 -0.338990 0.324689
v 0.766366 -0.501168 0.361090
v 0.720889 -0.283727 0.388322
v 0.186996 -0.501168 0.713111
v 0.234353 -0.336607 0.686460
v 0.523936 -0.296626 0.551718
v 0.531455 -0.501168 0.554043
v 0.918549 -0.501168 0.087339
v 0.872408 -0.416564 0.105579
v 0.707182 -0.501168 0.453216
v 0.695663 -0.383605 0.414210
v 0.566939 -0.501168 -0.053996
v 0.577256 -0.380634 -0.014745
v 0.355572 -0.501168 0.311881
v 0.400511 -0.364111 0.293886
v 0.847882 -0.501168 0.263144
v 0.813645 -0.400085 0.253863
v 0.426239 -0.501168 0.136076
v 0.459275 -0.364155 0.145602
v 0.531377 -0.501168 0.382548
v 0.548087 -0.365640 0.354048
v 0.742744 -0.501168 0.016672
v 0.724832 -0.398599 0.045417
v 0.606851 -0.373680 0.205764
v 0.602044 -0.501168 0.206743
v 0.500000 -0.500000 -0.500000
v 0.500000 -0.500000 0.500000
v -0.500000 0.500000 -0.500000
v -0.500000 0.500000 0.500000
v 0.500000 0.350000 -0.500000
v 0.500000 0.350000 0.500000
v 0.500000 0.222500 0.500000
v 0.500000 0.222500 -0.500000
v 0.500000 -0.500000 0.300000
v -0.500000 0.500000 0.300000
v 0.500000 0.408968 0.300000
v 0.500000 0.281468 0.300000
v 0.500000 -0.500000 -0.180000
v -0.500000 0.500000 -0.180000
v 0.500000 0.295013 -0.239040
v 0.500000 0.167513 -0.239040
v 0.528800 0.237337 -0.500000
v 0.528800 0.335619 -0.500000
v 0.528800 0.381074 0.300000
v 0.528800 0.335619 0.500000
v 0.528800 0.237337 0.500000
v 0.528800 0.282792 0.300000
v 0.528800 0.293233 -0.239040
v 0.528800 0.194951 -0.239040
v -0.015304 0.078612 -0.109254
v 0.438503 -0.494304 -0.683543
v 0.422625 0.145049 -0.551360
v 0.394534 -0.494304 0.448777
v 0.412109 0.129456 0.269166
v 0.983015 -0.494304 -0.127491
v 0.849987 0.095841 -0.134749
v 0.437159 -0.151514 -0.617466
v 0.913337 -0.104575 -0.123078
v 0.395879 -0.160784 0.382699
v 0.437710 -0.292015 -0.644549
v 0.941896 -0.264315 -0.124887
v 0.395328 -0.279608 0.409783
v 0.209810 0.119813 -0.326489
v 0.688775 -0.494304 0.160643
v 0.630200 0.144322 0.090922
v 0.732226 -0.016776 0.053944
v 0.727439 -0.195354 0.084925
v 0.710759 -0.494304 -0.405517
v 0.636306 0.130806 -0.343054
v 0.189338 0.103118 0.106799
v 0.794292 -0.032060 -0.246675
v 0.780137 -0.209093 -0.291272
v 0.561962 0.187778 -0.062398
v 0.745941 -0.032160 0.067969
v 0.395513 -0.157208 0.402635
v 0.809340 -0.045808 -0.260973
v 0.933415 -0.109952 -0.123469
v 0.438284 -0.151493 -0.637450
v 0.438327 -0.277157 -0.664526
v 0.961974 -0.252827 -0.125271
v 0.393608 -0.263475 0.429722
v 0.795076 -0.204132 -0.305679
v 0.741037 -0.191844 0.099056
v 0.519733 -0.500000 -1.008256
v 0.509848 -0.364262 -0.929269
v 0.871753 -0.500000 -0.428887
v 0.807986 -0.311383 -0.442733
v 0.401931 -0.500000 -0.042981
v 0.411235 -0.280106 -0.120089
v 0.712686 -0.500000 -0.773345
v 0.673243 -0.337823 -0.732316
v 0.208978 -0.500000 -0.277892
v 0.247839 -0.280176 -0.317042
v 0.636842 -0.500000 -0.235934
v 0.609610 -0.282559 -0.281411
v 0.284821 -0.500000 -0.815304
v 0.311472 -0.335439 -0.767947
v 0.446215 -0.295458 -0.478364
v 0.443889 -0.500000 -0.470845
v 0.437271 -0.500000 -0.310605
v 0.396720 -0.379467 -0.308977
v 0.330424 -0.500000 -0.154128
v 0.306207 -0.397432 -0.177807
v 0.421890 -0.493726 -0.209759
v 0.406907 0.049247 -0.096197
v 0.819842 -0.507380 0.315211
v 0.720568 0.016307 0.297679
v 0.323687 -0.510015 0.691263
v 0.346491 -0.036194 0.594014
v 0.420560 -0.180369 -0.151245
v 0.768761 -0.133069 0.312761
v 0.328267 -0.137666 0.641846
v 0.792626 -0.244041 0.310898
v 0.329622 -0.266292 0.658935
v 0.420759 -0.370895 -0.174890
v 0.620866 -0.500553 0.052726
v 0.563772 0.037232 0.100812
v 0.189873 0.007776 0.397516
v 0.540201 -0.061585 0.015766
v 0.566945 -0.182318 0.017219
v 0.571765 -0.508698 0.503237
v 0.533552 -0.007104 0.445892
v 0.220039 0.045122 0.052325
v 0.436930 -0.069554 0.562594
v 0.476788 -0.208207 0.549537
v 0.327453 0.008684 0.360969
v 0.423728 -0.246463 -0.193107
v 0.422944 -0.171882 -0.166532
v 0.447009 -0.080995 0.575469
v 0.326667 -0.143132 0.657603
v 0.552555 -0.067356 0.005696
v 0.784501 -0.132578 0.315671
v 0.808154 -0.231727 0.313936
v 0.327726 -0.258352 0.675296
v 0.579026 -0.175285 0.007734
v 0.486641 -0.204768 0.563007
v 0.933506 -0.473644 -0.099219
v 0.895672 -0.372629 -0.045880
v 0.937151 -0.505030 0.420237
v 0.900313 -0.358523 0.393395
v 0.472059 -0.478921 -0.030268
v 0.507182 -0.332781 0.012460
v 0.475705 -0.510307 0.489188
v 0.511864 -0.338881 0.450708
v 0.968063 -0.487484 0.131156
v 0.925672 -0.364009 0.148937
v 0.441148 -0.496466 0.258813
v 0.481824 -0.327294 0.256918
v 0.706428 -0.507668 0.454712
v 0.706068 -0.338599 0.422565
v 0.702783 -0.476282 -0.064743
v 0.701427 -0.352705 -0.016710
v 0.676048 -0.336842 0.228275
v 0.671872 -0.493828 0.224338
v 0.910593 -0.500000 -0.083750
v 0.892353 -0.415397 -0.129892
v 0.544716 -0.500000 -0.295118
v 0.583722 -0.382438 -0.306637
v 1.051928 -0.500000 -0.435361
v 1.012678 -0.379467 -0.425044
v 0.686052 -0.500000 -0.646728
v 0.704047 -0.362943 -0.601789
v 0.734788 -0.500000 -0.154418
v 0.744070 -0.398917 -0.188655
v 0.861857 -0.500000 -0.576061
v 0.852330 -0.362987 -0.543025
v 0.615384 -0.500000 -0.470923
v 0.643884 -0.364473 -0.454213
v 0.981261 -0.500000 -0.259555
v 0.952515 -0.397432 -0.277468
v 0.792168 -0.372512 -0.395449
v 0.791189 -0.500000 -0.400256
v 0.467685 0.500000 -0.500000
v 0.500000 0.467685 -0.500000
v 0.500000 0.467685 0.500000
v 0.467685 0.500000 0.500000
v 0.500000 0.467685 0.300000
v 0.467685 0.500000 0.300000
v 0.500000 0.467685 -0.189307
v 0.467685 0.500000 -0.180000
vn -1.0000 -0.0000 -0.0000
vn -0.6931 0.1364 -0.7078
vn -0.7122 0.1537 -0.6849
vn -0.0433 -0.9599 -0.2771
vn -0.4041 0.2662 -0.8751
vn -0.7166 0.3741 0.5886
vn -0.1463 0.9890 -0.0209
vn -0.1102 0.9924 -0.0545
vn -0.5840 0.3916 -0.7110
vn -0.0000 -1.0000 -0.0000
vn 0.7458 0.2618 -0.6126
vn 0.7747 0.2662 0.5735
vn -0.3623 0.2372 0.9014
vn -0.7774 0.2539 -0.5755
vn 0.3459 0.3741 -0.8605
vn 0.1384 0.9890 -0.0519
vn 0.1229 0.9924 -0.0051
vn -0.8990 0.2473 -0.3614
vn 0.8537 0.3916 0.3432
vn 0.0556 0.9982 0.0217
vn 0.0815 0.9958 -0.0423
vn 0.3600 0.2609 -0.8957
vn -0.3600 0.2618 0.8955
vn -0.0000 1.0000 -0.0000
vn 0.4430 -0.8599 -0.2535
vn 1.0000 -0.0000 -0.0000
vn 0.4390 0.8792 0.1853
vn 0.6806 0.7027 0.2072
vn 0.0609 0.9851 -0.1605
vn 0.6819 -0.7157 -0.1508
vn 0.0453 -0.9860 0.1607
vn -0.0000 -0.0000 -1.0000
vn 0.7623 0.2052 -0.6138
vn 0.6172 0.2564 0.7438
vn -0.2095 0.9774 0.0278
vn 0.6047 0.7873 -0.1206
vn 0.4013 -0.7203 -0.5657
vn 0.7105 0.1059 -0.6957
vn 0.6941 0.1262 0.7088
vn 0.6949 0.1162 0.7096
vn 0.2536 0.9570 -0.1406
vn 0.2519 0.7650 0.5928
vn -0.0333 0.9777 -0.2073
vn 0.7368 0.2690 0.6203
vn 0.3289 0.9368 0.1191
vn 0.7078 0.1364 -0.6931
vn 0.1160 0.9680 0.2227
vn 0.6651 0.2235 -0.7126
vn 0.6597 0.1745 0.7310
vn 0.7457 0.1572 -0.6474
vn 0.7241 0.1362 0.6761
vn 0.6849 0.1537 -0.7122
vn -0.2610 0.9652 -0.0137
vn 0.6200 -0.5830 0.5251
vn 0.2771 -0.9599 -0.0433
vn -0.0389 -0.9604 0.2759
vn 0.8751 0.2662 -0.4041
vn 0.6166 0.2372 0.7507
vn -0.5886 0.3741 -0.7166
vn 0.0209 0.9890 -0.1463
vn 0.0545 0.9924 -0.1102
vn 0.7110 0.3916 -0.5840
vn 0.0457 0.9982 -0.0383
vn 0.6126 0.2618 0.7458
vn 0.7972 0.2609 0.5444
vn 0.7924 0.2782 -0.5429
vn 0.4153 0.3258 0.8494
vn 0.0066 0.9933 0.1150
vn -0.7696 0.6016 0.2140
vn 0.0102 0.7514 0.6598
vn 0.5410 -0.7303 0.4171
vn 0.7957 0.0724 -0.6013
vn 0.6024 0.0679 0.7953
vn 0.7868 0.1753 -0.5918
vn 0.0226 0.9913 0.1294
vn 0.7228 0.2015 -0.6611
vn 0.0428 0.9817 0.1855
vn 0.6021 0.0752 0.7949
vn 0.5832 -0.6005 -0.5471
vn 0.6015 0.3812 0.7020
vn 0.5418 0.1324 0.8300
vn 0.8017 0.2011 -0.5628
vn 0.7259 0.2376 -0.6455
vn 0.6139 0.1328 0.7781
vn 0.0044 0.9819 -0.1892
vn 0.3766 0.9239 -0.0674
vn 0.4713 -0.8804 -0.0524
vn 0.0499 -0.9759 0.2126
vn 0.9577 0.2625 0.1183
vn 0.1430 0.1879 0.9717
vn -0.9625 0.2569 -0.0873
vn -0.1387 0.4213 -0.8963
vn 0.0024 -0.9982 -0.0603
vn 0.0907 0.9944 -0.0550
vn 0.1010 0.9949 -0.0066
vn -0.9584 0.2376 0.1580
vn 0.9096 0.4000 -0.1124
vn 0.0565 0.9971 0.0509
vn 0.0465 0.9988 -0.0176
vn -0.1440 0.3094 -0.9400
vn 0.1420 0.2128 0.9667
vn -0.5735 0.2662 0.7747
vn -0.9014 0.2372 -0.3623
vn 0.5755 0.2539 -0.7774
vn 0.8605 0.3741 0.3459
vn 0.0519 0.9890 0.1384
vn 0.0051 0.9924 0.1229
vn 0.3614 0.2473 -0.8990
vn -0.3432 0.3916 0.8537
vn -0.0217 0.9982 0.0556
vn 0.0423 0.9958 0.0815
vn 0.8957 0.2609 0.3600
vn -0.8955 0.2618 -0.3600
vn 0.7071 0.7071 -0.0000
vn -0.7050 0.1121 -0.7002
vn -0.4650 -0.6502 -0.6009
vn -0.4240 0.3139 -0.8496
vn -0.7590 0.3111 0.5720
vn -0.1504 0.9884 -0.0213
vn -0.1162 0.9917 -0.0551
vn -0.6285 0.3303 -0.7042
vn 0.7375 0.2336 -0.6337
vn 0.7799 0.3139 0.5416
vn -0.3649 0.2345 0.9010
vn -0.7730 0.2276 -0.5922
vn 0.3910 0.3111 -0.8662
vn 0.1421 0.9884 -0.0535
vn 0.1284 0.9917 -0.0075
vn -0.9019 0.2423 -0.3575
vn 0.8895 0.3303 0.3158
vn 0.0279 0.9987 -0.0431
vn 0.1408 0.9888 -0.0501
vn -0.3425 0.2336 0.9100
vn 0.0448 -0.9742 -0.2214
vn 0.0609 0.9852 0.1600
vn 0.4378 0.8767 0.1993
vn 0.6878 0.7102 -0.1501
vn 0.4533 -0.8798 -0.1429
vn 0.6818 -0.7157 0.1513
vn 0.6933 0.2794 -0.6643
vn 0.6099 0.2109 0.7639
vn -0.1510 0.9881 0.0309
vn 0.2568 0.9437 0.2085
vn 0.0059 -0.9474 -0.3201
vn 0.7327 0.1385 -0.6663
vn 0.6837 0.0948 0.7236
vn 0.7106 0.0850 0.6984
vn 0.6043 0.7592 0.2418
vn -0.4671 0.8688 -0.1645
vn -0.0221 0.9956 0.0908
vn 0.7138 0.3077 0.6291
vn 0.2741 0.9540 -0.1211
vn 0.7002 0.1121 -0.7050
vn -0.1815 0.9792 0.0902
vn 0.6919 0.1892 -0.6968
vn 0.6619 0.1236 0.7393
vn 0.7631 0.1110 -0.6367
vn 0.7319 0.1085 0.6727
vn 0.6853 0.1401 -0.7147
vn 0.2595 0.8180 -0.5134
vn 0.2479 -0.9688 0.0022
vn 0.6008 -0.6502 -0.4650
vn 0.4089 -0.6948 0.5916
vn 0.8496 0.3139 -0.4240
vn 0.6151 0.2345 0.7528
vn -0.5720 0.3111 -0.7590
vn 0.0213 0.9884 -0.1504
vn 0.0551 0.9917 -0.1162
vn 0.7042 0.3303 -0.6285
vn -0.0244 0.9987 -0.0452
vn 0.6337 0.2336 0.7375
vn 0.7618 0.3111 0.5683
vn 0.7777 0.1904 -0.5991
vn 0.4497 0.5775 0.6814
vn 0.0161 0.9987 0.0480
vn -0.0592 0.8330 -0.5500
vn -0.2753 0.9166 0.2900
vn 0.3540 -0.9350 -0.0202
vn 0.7980 0.0684 -0.5988
vn 0.5697 0.0944 0.8164
vn 0.7660 0.0584 -0.6402
vn -0.0249 0.9918 0.1252
vn 0.7509 0.3187 -0.5784
vn -0.0028 0.9819 0.1893
vn 0.6064 0.0696 0.7921
vn 0.2340 -0.8995 -0.3689
vn 0.5784 0.2645 0.7717
vn 0.5313 0.0852 0.8429
vn 0.8050 0.1868 -0.5631
vn 0.7359 0.1681 -0.6559
vn 0.6170 0.1193 0.7779
vn 0.4407 0.8140 0.3784
vn -0.0782 0.9622 0.2610
vn 0.8363 -0.0989 -0.5393
vn 0.4158 -0.6748 0.6098
vn 0.9458 0.3116 0.0911
vn 0.1407 0.1852 0.9726
vn -0.9671 0.2314 -0.1055
vn -0.1024 0.3594 -0.9275
vn 0.0932 0.9939 -0.0583
vn 0.1046 0.9945 -0.0115
vn -0.9589 0.2324 0.1625
vn 0.9268 0.3409 -0.1578
vn -0.0001 1.0000 0.0091
vn 0.0938 0.9941 -0.0547
vn 0.1644 0.1846 0.9690
vn -0.5416 0.3139 0.7799
vn -0.9010 0.2345 -0.3649
vn 0.5922 0.2276 -0.7730
vn 0.8662 0.3111 0.3910
vn 0.0535 0.9884 0.1421
vn 0.0075 0.9917 0.1284
vn 0.3575 0.2423 -0.9019
vn -0.3158 0.3303 0.8895
vn 0.0431 0.9987 0.0279
vn 0.0501 0.9888 0.1408
vn -0.9100 0.2336 -0.3425
vt 0.726309 0.800823
vt 0.725019 0.800823
vt 0.479961 0.892414
vt 0.485979 0.891517
vt 0.481162 0.895916
vt 0.357130 0.885713
vt 0.364225 0.882286
vt 0.358017 0.887700
vt 0.361392 0.890334
vt 0.366862 0.883481
vt 0.471955 0.890399
vt 0.476942 0.892893
vt 0.471955 0.892893
vt 0.471955 0.905360
vt 0.476942 0.907854
vt 0.471955 0.907854
vt 0.345044 0.887597
vt 0.342550 0.890091
vt 0.342550 0.887597
vt 0.345044 0.885104
vt 0.342550 0.885104
vt 0.476942 0.887905
vt 0.471955 0.887905
vt 0.466967 0.897880
vt 0.469461 0.900373
vt 0.466967 0.900373
vt 0.469461 0.902867
vt 0.466967 0.902867
vt 0.471955 0.895386
vt 0.476942 0.897880
vt 0.471955 0.897880
vt 0.471955 0.900373
vt 0.476942 0.902867
vt 0.471955 0.902867
vt 0.469461 0.897880
vt 0.340056 0.885104
vt 0.340056 0.887597
vt 0.340056 0.890091
vt 0.737613 0.782619
vt 0.727826 0.787473
vt 0.727826 0.782619
vt 0.737613 0.780596
vt 0.727826 0.780596
vt 0.604560 0.151563
vt 0.604560 0.153586
vt 0.354510 0.764809
vt 0.361817 0.766832
vt 0.354510 0.766832
vt 0.361817 0.759954
vt 0.354510 0.759954
vt 0.605850 0.146709
vt 0.605850 0.143472
vt 0.726309 0.768459
vt 0.727499 0.770482
vt 0.726309 0.770482
vt 0.737613 0.787473
vt 0.727826 0.790710
vt 0.605850 0.153586
vt 0.605850 0.151563
vt 0.354510 0.756718
vt 0.727587 0.763605
vt 0.726309 0.763605
vt 0.604560 0.146709
vt 0.604560 0.143472
vt 0.342783 0.760232
vt 0.340806 0.761378
vt 0.341062 0.758758
vt 0.361524 0.778518
vt 0.357658 0.774900
vt 0.361143 0.772735
vt 0.461639 0.773701
vt 0.475795 0.759525
vt 0.482297 0.776905
vt 0.344713 0.880129
vt 0.346433 0.881604
vt 0.370148 0.881712
vt 0.485431 0.885560
vt 0.490798 0.887119
vt 0.453269 0.896279
vt 0.459211 0.895950
vt 0.458602 0.899350
vt 0.449553 0.889435
vt 0.447933 0.893217
vt 0.367173 0.902271
vt 0.365174 0.899890
vt 0.364794 0.894107
vt 0.475852 0.787893
vt 0.360953 0.781474
vt 0.363523 0.780900
vt 0.490101 0.788015
vt 0.490067 0.773719
vt 0.488642 0.761142
vt 0.349195 0.761170
vt 0.344202 0.762787
vt 0.328883 0.885621
vt 0.335345 0.888233
vt 0.334843 0.890136
vt 0.366347 0.879030
vt 0.367916 0.880934
vt 0.325449 0.882599
vt 0.324165 0.884705
vt 0.352846 0.882542
vt 0.340642 0.893871
vt 0.335231 0.888400
vt 0.330984 0.887356
vt 0.350253 0.766742
vt 0.352922 0.765267
vt 0.359975 0.887140
vt 0.356573 0.886639
vt 0.475642 0.898280
vt 0.469904 0.897663
vt 0.470125 0.900656
vt 0.352910 0.769284
vt 0.356325 0.765768
vt 0.354909 0.891870
vt 0.350772 0.888793
vt 0.346588 0.890029
vt 0.346729 0.891714
vt 0.351335 0.895584
vt 0.727826 0.770482
vt 0.727287 0.768459
vt 0.727826 0.768459
vt 0.727826 0.763605
vt 0.727826 0.760368
vt 0.727499 0.760368
vt 0.726309 0.760368
vt 0.476942 0.890399
vt 0.476942 0.905360
vt 0.345044 0.890091
vt 0.476942 0.895386
vt 0.476942 0.900373
vt 0.361817 0.764809
vt 0.737613 0.790710
vt 0.361817 0.756718
vt 0.359329 0.778175
vt 0.461634 0.759570
vt 0.488718 0.883791
vt 0.453800 0.890479
vt 0.461634 0.787858
vt 0.347597 0.764200
vt 0.329610 0.882964
vt 0.363362 0.879629
vt 0.473478 0.893949
vt 0.349747 0.886657
s 0
f 1/1/1 3/2/1 2/2/1
f 7/3/2 8/4/2 5/5/2
f 10/6/3 12/7/3 11/8/3
f 7/9/4 12/10/4 9/10/4
f 17/11/5 16/12/5 15/13/5
f 21/14/6 14/15/6 13/16/6
f 18/17/7 22/18/7 23/19/7
f 16/20/8 23/19/8 20/21/8
f 14/22/9 17/11/9 13/23/9
f 15/24/10 24/25/10 17/26/10
f 17/26/10 21/27/10 13/28/10
f 16/12/11 19/29/11 15/13/11
f 33/11/12 28/12/12 27/13/12
f 37/29/13 32/30/13 31/31/13
f 35/32/14 30/33/14 29/34/14
f 39/14/15 26/15/15 25/16/15
f 42/25/10 29/34/10 39/27/10
f 34/17/16 40/18/16 41/19/16
f 28/20/17 41/19/17 38/21/17
f 37/35/10 35/32/10 42/25/10
f 32/30/18 35/32/18 31/31/18
f 26/22/19 33/11/19 25/23/19
f 27/24/10 42/25/10 33/26/10
f 32/36/20 41/19/20 36/37/20
f 41/19/21 30/38/21 36/37/21
f 33/26/10 39/27/10 25/28/10
f 30/33/22 39/14/22 29/34/22
f 28/12/23 37/29/23 27/13/23
f 195/39/24 56/40/24 52/41/24
f 193/42/24 52/41/24 46/43/24
f 54/44/25 63/45/25 49/45/25
f 51/46/26 49/47/26 44/48/26
f 58/49/26 51/46/26 55/50/26
f 57/51/27 60/52/27 47/52/27
f 53/53/26 192/54/26 48/55/26
f 197/56/24 45/57/24 56/40/24
f 48/58/28 61/59/28 53/59/28
f 43/60/26 58/49/26 55/50/26
f 196/61/26 53/53/26 57/62/26
f 64/44/26 62/58/26 63/45/26
f 65/51/26 64/44/26 66/63/26
f 59/64/26 65/51/26 66/63/26
f 57/51/29 61/59/29 65/51/29
f 50/64/30 66/63/30 58/63/30
f 54/44/31 66/63/31 64/44/31
f 47/1/32 59/2/32 50/2/32
f 88/65/33 73/66/33 75/67/33
f 83/68/34 71/69/34 76/70/34
f 80/71/35 87/72/35 90/73/35
f 75/74/36 93/75/36 88/75/36
f 78/76/37 99/10/37 97/76/37
f 89/77/38 72/78/38 85/4/38
f 81/79/39 79/80/39 70/81/39
f 78/82/40 81/79/40 72/83/40
f 75/84/41 91/85/41 94/84/41
f 76/86/42 91/85/42 83/85/42
f 86/87/43 80/71/43 90/73/43
f 73/88/44 83/68/44 75/89/44
f 73/90/45 90/73/45 82/91/45
f 77/3/46 85/4/46 68/5/46
f 90/73/47 71/92/47 82/91/47
f 74/93/48 86/94/48 88/65/48
f 100/95/49 92/96/49 98/97/49
f 99/7/50 94/98/50 97/99/50
f 94/100/51 100/95/51 97/101/51
f 95/6/52 99/7/52 96/8/52
f 74/102/53 93/75/53 95/102/53
f 79/103/54 100/104/54 98/103/54
f 77/9/55 99/10/55 89/10/55
f 78/105/56 100/104/56 84/104/56
f 107/11/57 104/12/57 103/13/57
f 111/29/58 106/30/58 105/31/58
f 113/14/59 102/15/59 101/16/59
f 108/17/60 114/18/60 115/19/60
f 104/20/61 115/19/61 112/21/61
f 105/31/10 116/25/10 111/35/10
f 102/22/62 107/11/62 101/23/62
f 103/24/10 116/25/10 107/26/10
f 106/36/63 115/19/63 110/37/63
f 107/26/10 113/27/10 101/28/10
f 104/12/64 111/29/64 103/13/64
f 118/33/65 119/14/65 117/34/65
f 134/106/66 128/93/66 136/107/66
f 141/65/67 126/66/67 129/67/67
f 134/71/68 140/72/68 143/73/68
f 127/108/69 148/109/69 145/108/69
f 129/74/70 146/75/70 141/75/70
f 131/76/71 153/10/71 151/76/71
f 133/110/72 130/3/72 123/5/72
f 142/77/73 125/78/73 138/4/73
f 132/111/74 133/110/74 121/112/74
f 139/87/75 134/71/75 143/73/75
f 122/113/76 136/107/76 127/114/76
f 126/90/77 143/73/77 135/91/77
f 130/3/78 138/4/78 123/5/78
f 130/9/79 152/115/79 150/9/79
f 128/93/80 139/94/80 141/65/80
f 153/7/81 147/98/81 151/99/81
f 152/116/82 149/6/82 150/8/82
f 145/117/83 152/116/83 144/118/83
f 149/6/84 153/7/84 150/8/84
f 128/102/85 146/75/85 149/102/85
f 128/102/86 148/109/86 136/109/86
f 137/115/87 144/119/87 152/115/87
f 130/9/88 153/10/88 142/10/88
f 162/11/89 157/12/89 156/13/89
f 166/29/90 161/30/90 160/31/90
f 164/32/91 159/33/91 158/34/91
f 168/14/92 155/15/92 154/16/92
f 171/25/93 158/34/93 168/27/93
f 163/17/94 169/18/94 170/19/94
f 157/20/95 170/19/95 167/21/95
f 166/35/93 164/32/93 171/25/93
f 161/30/96 164/32/96 160/31/96
f 155/22/97 162/11/97 154/23/97
f 156/24/93 171/25/93 162/26/93
f 161/36/98 170/19/98 165/37/98
f 170/19/99 159/38/99 165/37/99
f 162/26/93 168/27/93 154/28/93
f 159/33/100 168/14/100 158/34/100
f 157/12/101 166/29/101 156/13/101
f 180/11/102 175/12/102 174/13/102
f 184/29/103 179/30/103 178/31/103
f 182/32/104 177/33/104 176/34/104
f 186/14/105 173/15/105 172/16/105
f 189/25/10 176/34/10 186/27/10
f 181/17/106 187/18/106 188/19/106
f 175/20/107 188/19/107 185/21/107
f 184/35/10 182/32/10 189/25/10
f 179/30/108 182/32/108 178/31/108
f 173/22/109 180/11/109 172/23/109
f 174/24/10 189/25/10 180/26/10
f 179/36/110 188/19/110 183/37/110
f 188/19/111 177/38/111 183/37/111
f 180/26/10 186/27/10 172/28/10
f 177/33/112 186/14/112 176/34/112
f 175/12/113 184/29/113 174/13/113
f 193/120/114 194/121/114 195/122/114
f 197/123/114 194/121/114 196/61/114
f 190/124/114 196/61/114 191/125/114
f 191/125/26 57/62/26 47/126/26
f 1/1/1 4/1/1 3/2/1
f 7/3/115 9/77/115 8/4/115
f 7/9/116 11/9/116 12/10/116
f 17/11/117 18/127/117 16/12/117
f 21/14/118 22/128/118 14/15/118
f 18/17/119 14/129/119 22/18/119
f 16/20/120 18/17/120 23/19/120
f 14/22/121 18/127/121 17/11/121
f 15/24/10 19/35/10 24/25/10
f 17/26/10 24/25/10 21/27/10
f 16/12/122 20/130/122 19/29/122
f 33/11/123 34/127/123 28/12/123
f 37/29/124 38/130/124 32/30/124
f 35/32/125 36/131/125 30/33/125
f 39/14/126 40/128/126 26/15/126
f 42/25/10 35/32/10 29/34/10
f 34/17/127 26/129/127 40/18/127
f 28/20/128 34/17/128 41/19/128
f 37/35/10 31/31/10 35/32/10
f 32/30/129 36/131/129 35/32/129
f 26/22/130 34/127/130 33/11/130
f 27/24/10 37/35/10 42/25/10
f 32/36/131 38/21/131 41/19/131
f 41/19/132 40/18/132 30/38/132
f 33/26/10 42/25/10 39/27/10
f 30/33/126 40/128/126 39/14/126
f 28/12/133 38/130/133 37/29/133
f 195/39/24 197/56/24 56/40/24
f 193/42/24 195/39/24 52/41/24
f 54/44/134 64/44/134 63/45/134
f 51/46/26 54/132/26 49/47/26
f 58/49/26 54/132/26 51/46/26
f 57/51/135 65/51/135 60/52/135
f 53/53/26 194/121/26 192/54/26
f 197/56/24 190/133/24 45/57/24
f 48/58/136 62/58/136 61/59/136
f 43/60/26 50/134/26 58/49/26
f 196/61/26 194/121/26 53/53/26
f 64/44/26 61/59/26 62/58/26
f 65/51/26 61/59/26 64/44/26
f 59/64/26 60/52/26 65/51/26
f 57/51/137 53/59/137 61/59/137
f 50/64/138 59/64/138 66/63/138
f 54/44/139 58/63/139 66/63/139
f 47/1/32 60/1/32 59/2/32
f 88/65/140 86/94/140 73/66/140
f 83/68/141 82/135/141 71/69/141
f 80/71/142 67/136/142 87/72/142
f 75/74/143 94/74/143 93/75/143
f 78/76/144 89/10/144 99/10/144
f 89/77/145 78/137/145 72/78/145
f 81/79/146 84/138/146 79/80/146
f 78/82/147 84/138/147 81/79/147
f 75/84/148 83/85/148 91/85/148
f 76/86/149 92/86/149 91/85/149
f 86/87/150 69/139/150 80/71/150
f 73/88/151 82/135/151 83/68/151
f 73/90/152 86/87/152 90/73/152
f 77/3/153 89/77/153 85/4/153
f 90/73/154 87/72/154 71/92/154
f 74/93/155 69/140/155 86/94/155
f 100/95/156 91/141/156 92/96/156
f 99/7/157 93/142/157 94/98/157
f 94/100/158 91/141/158 100/95/158
f 95/6/159 93/142/159 99/7/159
f 74/102/160 88/75/160 93/75/160
f 79/103/161 84/104/161 100/104/161
f 77/9/162 96/9/162 99/10/162
f 78/105/163 97/105/163 100/104/163
f 107/11/164 108/127/164 104/12/164
f 111/29/165 112/130/165 106/30/165
f 113/14/166 114/128/166 102/15/166
f 108/17/167 102/129/167 114/18/167
f 104/20/168 108/17/168 115/19/168
f 105/31/10 109/32/10 116/25/10
f 102/22/169 108/127/169 107/11/169
f 103/24/10 111/35/10 116/25/10
f 106/36/170 112/21/170 115/19/170
f 107/26/10 116/25/10 113/27/10
f 104/12/171 112/130/171 111/29/171
f 118/33/172 120/128/172 119/14/172
f 134/106/173 124/140/173 128/93/173
f 141/65/174 139/94/174 126/66/174
f 134/71/175 122/136/175 140/72/175
f 127/108/176 136/109/176 148/109/176
f 129/74/177 147/74/177 146/75/177
f 131/76/178 142/10/178 153/10/178
f 133/110/179 137/143/179 130/3/179
f 142/77/180 131/137/180 125/78/180
f 132/111/181 137/143/181 133/110/181
f 139/87/182 124/139/182 134/71/182
f 122/113/183 134/106/183 136/107/183
f 126/90/184 139/87/184 143/73/184
f 130/3/185 142/77/185 138/4/185
f 130/9/186 137/115/186 152/115/186
f 128/93/187 124/140/187 139/94/187
f 153/7/188 146/142/188 147/98/188
f 152/116/189 148/144/189 149/6/189
f 145/117/190 148/144/190 152/116/190
f 149/6/191 146/142/191 153/7/191
f 128/102/192 141/75/192 146/75/192
f 128/102/193 149/102/193 148/109/193
f 137/115/194 132/119/194 144/119/194
f 130/9/195 150/9/195 153/10/195
f 162/11/196 163/127/196 157/12/196
f 166/29/197 167/130/197 161/30/197
f 164/32/198 165/131/198 159/33/198
f 168/14/199 169/128/199 155/15/199
f 171/25/93 164/32/93 158/34/93
f 163/17/200 155/129/200 169/18/200
f 157/20/201 163/17/201 170/19/201
f 166/35/93 160/31/93 164/32/93
f 161/30/202 165/131/202 164/32/202
f 155/22/203 163/127/203 162/11/203
f 156/24/93 166/35/93 171/25/93
f 161/36/204 167/21/204 170/19/204
f 170/19/205 169/18/205 159/38/205
f 162/26/93 171/25/93 168/27/93
f 159/33/199 169/128/199 168/14/199
f 157/12/206 167/130/206 166/29/206
f 180/11/207 181/127/207 175/12/207
f 184/29/208 185/130/208 179/30/208
f 182/32/209 183/131/209 177/33/209
f 186/14/210 187/128/210 173/15/210
f 189/25/10 182/32/10 176/34/10
f 181/17/211 173/129/211 187/18/211
f 175/20/212 181/17/212 188/19/212
f 184/35/10 178/31/10 182/32/10
f 179/30/213 183/131/213 182/32/213
f 173/22/214 181/127/214 180/11/214
f 174/24/10 184/35/10 189/25/10
f 179/36/215 185/21/215 188/19/215
f 188/19/216 187/18/216 177/38/216
f 180/26/10 189/25/10 186/27/10
f 177/33/210 187/128/210 186/14/210
f 175/12/217 185/130/217 184/29/217
f 193/120/114 192/54/114 194/121/114
f 197/123/114 195/122/114 194/121/114
f 190/124/114 197/123/114 196/61/114
f 191/125/26 196/61/26 57/62/26
l 6 10
