# Blender 4.2.5 LTS
# www.blender.org
o lava_rock_0
v -0.275126 0.000000 0.275126
v -0.175586 0.138086 0.175586
v -0.404115 0.000000 -0.344984
v -0.350941 0.099324 -0.288498
v 0.244113 0.000000 0.258680
v 0.173734 0.226544 0.184901
v 0.205098 0.000000 -0.211630
v 0.105557 0.138086 -0.112089
v -0.206138 0.000000 -0.418467
v -0.206138 0.120998 -0.320253
v 0.017134 0.000000 0.343351
v 0.053947 0.203657 0.229363
v -0.477597 0.000000 -0.147008
v -0.379384 0.120998 -0.147008
v 0.377244 0.000000 0.000000
v 0.218195 0.203657 0.065114
v 0.035967 0.203657 0.047017
vn -0.7599 0.5945 -0.2629
vn -0.7623 0.5885 -0.2693
vn -0.7681 0.5733 -0.2851
vn 0.3655 0.6156 -0.6981
vn 0.3676 0.6754 -0.6393
vn 0.3638 0.5870 -0.7232
vn 0.8407 0.4254 0.3351
vn 0.8217 0.4441 0.3572
vn 0.7797 0.4806 0.4013
vn -0.2662 0.5716 0.7762
vn -0.2392 0.5968 0.7659
vn -0.1719 0.6546 0.7362
vn -0.0875 0.9867 -0.1368
vn -0.2523 0.9646 0.0768
vn -0.2300 0.9729 0.0227
vn -0.0825 0.9932 -0.0824
vn 0.0258 0.9653 -0.2598
vn 0.2980 0.4028 0.8654
vn 0.2872 0.3938 0.8732
vn 0.3174 0.4188 0.8508
vn -0.2720 0.5941 -0.7570
vn -0.2676 0.5982 -0.7553
vn -0.2825 0.5840 -0.7610
vn 0.1173 0.9352 -0.3341
vn -0.0952 0.9791 -0.1800
vn -0.1728 0.9808 -0.0907
vn 0.5475 0.6645 -0.5086
vn 0.5476 0.6602 -0.5140
vn 0.5447 0.7120 -0.4431
vn -0.6480 0.6747 0.3534
vn -0.7042 0.6173 0.3508
vn -0.7276 0.5906 0.3490
vn -0.7528 0.6110 -0.2449
vn 0.3676 0.7035 -0.6082
vn 0.8940 0.3632 0.2624
vn -0.3311 0.5057 0.7966
vn 0.2600 0.3711 0.8915
vn -0.2558 0.6092 -0.7506
vn -0.1850 0.9652 -0.1850
vn 0.5467 0.6103 -0.5733
vn -0.6189 0.7012 0.3539
vt 0.313578 0.153011
vt 0.327396 0.165426
vt 0.317835 0.151230
vt 0.337200 0.165295
vt 0.353133 0.136459
vt 0.329306 0.146430
vt 0.367179 0.167895
vt 0.355393 0.135513
vt 0.363107 0.132286
vt 0.342242 0.141016
vt 0.340085 0.167218
vt 0.325309 0.148102
vt 0.356620 0.172313
vt 0.357662 0.171877
vt 0.366096 0.172541
vt 0.356375 0.160402
vt 0.327162 0.169495
s 1
f 13/1/1 4/2/2 3/3/3
f 10/4/4 7/5/5 9/6/6
f 16/7/7 5/8/8 15/9/9
f 11/10/10 2/11/11 1/12/12
f 17/13/13 2/11/14 12/14/15
f 17/13/13 6/15/16 16/7/17
f 5/8/18 12/14/19 11/10/20
f 4/2/21 9/6/22 3/3/23
f 8/16/24 17/13/13 16/7/17
f 10/4/25 14/17/26 17/13/13
f 8/16/27 15/9/28 7/5/29
f 1/12/30 14/17/31 13/1/32
f 13/1/1 14/17/33 4/2/2
f 10/4/4 8/16/34 7/5/5
f 16/7/7 6/15/35 5/8/8
f 11/10/10 12/14/36 2/11/11
f 17/13/13 14/17/26 2/11/14
f 17/13/13 12/14/15 6/15/16
f 5/8/18 6/15/37 12/14/19
f 4/2/21 10/4/38 9/6/22
f 8/16/24 10/4/25 17/13/13
f 10/4/25 4/2/39 14/17/26
f 8/16/27 16/7/40 15/9/28
f 1/12/30 2/11/41 14/17/31
