# Blender 4.2.5 LTS
# www.blender.org
o lava_rock_1
v 0.352900 0.000000 0.091044
v 0.331081 0.010927 0.099826
v 0.318327 0.000000 0.204048
v 0.329645 0.007860 0.181807
v 0.270435 0.000000 0.060229
v 0.276873 0.017926 0.075990
v 0.231092 0.000000 0.144629
v 0.252911 0.010927 0.135847
v 0.282694 0.000000 0.202542
v 0.288818 0.009575 0.187574
v 0.311315 0.000000 0.061891
v 0.298433 0.016115 0.076901
v 0.358333 0.000000 0.168372
v 0.342929 0.009575 0.162069
v 0.217288 0.000000 0.101329
v 0.246294 0.016115 0.101612
v 0.289883 0.016115 0.105845
v -0.285859 0.000000 0.406389
v -0.207513 0.050748 0.328043
v -0.387384 0.000000 -0.081689
v -0.345532 0.036503 -0.037230
v 0.122825 0.000000 0.393445
v 0.067431 0.083258 0.335375
v 0.092117 0.000000 0.023272
v 0.013771 0.050748 0.101618
v -0.231560 0.000000 -0.139526
v -0.231560 0.044468 -0.062224
v -0.055826 0.000000 0.460088
v -0.026851 0.074846 0.370369
v -0.445221 0.000000 0.074135
v -0.367918 0.044468 0.074135
v 0.227611 0.000000 0.189842
v 0.102426 0.074846 0.241092
v -0.041003 0.074846 0.226849
v -0.266011 0.000000 -0.446620
v -0.274454 0.021683 -0.400716
v -0.113271 0.000000 -0.268677
v -0.138539 0.015597 -0.311265
v -0.405228 0.000000 -0.341087
v -0.371971 0.035574 -0.335146
v -0.305507 0.000000 -0.185517
v -0.297064 0.021683 -0.231421
v -0.153629 0.000000 -0.210537
v -0.172220 0.019000 -0.236696
v -0.359038 0.000000 -0.407857
v -0.347552 0.031980 -0.370324
v -0.130604 0.000000 -0.373625
v -0.157526 0.019000 -0.354493
v -0.392755 0.000000 -0.208350
v -0.361483 0.031980 -0.256677
v -0.308106 0.031980 -0.325258
v 0.309475 0.000000 -0.207483
v 0.271079 0.036197 -0.246080
v -0.049991 0.000000 -0.173722
v 0.007627 0.026036 -0.169646
v 0.300815 0.000000 -0.411070
v 0.273020 0.059386 -0.383135
v 0.085412 0.000000 -0.418848
v 0.123808 0.036197 -0.380251
v -0.078909 0.000000 -0.251045
v -0.041477 0.031718 -0.251485
v 0.334131 0.000000 -0.322421
v 0.290517 0.053386 -0.336350
v 0.062137 0.000000 -0.120601
v 0.061684 0.031718 -0.159123
v 0.165276 0.000000 -0.487316
v 0.190826 0.053386 -0.425224
v 0.221103 0.053386 -0.328482
vn 0.4081 0.8265 0.3878
vn 0.4280 0.7791 0.4581
vn 0.4360 0.7556 0.4889
vn -0.4000 0.8475 0.3488
vn -0.3583 0.8896 0.2833
vn -0.4108 0.8350 0.3660
vn -0.4292 0.7284 -0.5340
vn -0.4693 0.6952 -0.5445
vn -0.4085 0.7444 -0.5282
vn 0.3902 0.8105 -0.4368
vn 0.3254 0.8499 -0.4144
vn 0.2783 0.8747 -0.3969
vn 0.0432 0.9973 0.0601
vn 0.1265 0.9919 0.0107
vn 0.1058 0.9939 0.0313
vn 0.0352 0.9984 0.0452
vn -0.0115 0.9929 0.1186
vn 0.0567 0.6685 -0.7415
vn 0.0486 0.6761 -0.7352
vn 0.0293 0.6937 -0.7197
vn 0.0288 0.9113 0.4107
vn 0.0674 0.8728 0.4834
vn -0.0138 0.9450 0.3269
vn -0.0518 0.9928 0.1079
vn 0.0065 0.9962 0.0866
vn 0.0638 0.9954 0.0710
vn -0.4317 0.8868 0.1648
vn -0.4461 0.8760 0.1831
vn -0.4023 0.9065 0.1283
vn 0.4490 0.8917 -0.0572
vn 0.5199 0.8532 -0.0420
vn 0.5386 0.8417 -0.0378
vn 0.3928 0.8550 0.3387
vn -0.3452 0.9009 0.2632
vn -0.5020 0.6657 -0.5521
vn 0.4412 0.7746 -0.4530
vn 0.0860 0.6402 -0.7634
vn 0.1145 0.8149 0.5681
vn 0.0594 0.9902 0.1260
vn -0.4753 0.8516 0.2209
vn 0.4270 0.9022 -0.0617
vn -0.5022 0.8476 -0.1717
vn -0.5124 0.8389 -0.1837
vn -0.5203 0.8318 -0.1931
vn 0.2397 0.8530 -0.4636
vn 0.2253 0.8935 -0.3884
vn 0.2433 0.8408 -0.4837
vn 0.6301 0.7270 0.2728
vn 0.6526 0.7110 0.2619
vn 0.5766 0.7612 0.2968
vn -0.1968 0.8180 0.5404
vn -0.1460 0.8557 0.4965
vn -0.1079 0.8802 0.4622
vn -0.0404 0.9970 -0.0655
vn -0.1213 0.9919 0.0366
vn -0.1099 0.9939 0.0108
vn -0.0387 0.9985 -0.0387
vn 0.0124 0.9921 -0.1251
vn 0.2316 0.6782 0.6975
vn 0.2366 0.6854 0.6887
vn 0.2487 0.7028 0.6666
vn -0.1832 0.8434 -0.5050
vn -0.1752 0.8492 -0.4982
vn -0.1894 0.8388 -0.5104
vn 0.0570 0.9847 -0.1646
vn -0.0451 0.9953 -0.0854
vn -0.0819 0.9957 -0.0429
vn 0.3379 0.8895 -0.3075
vn 0.3448 0.8786 -0.3304
vn 0.3244 0.9083 -0.2639
vn -0.3943 0.8930 0.2169
vn -0.4662 0.8544 0.2295
vn -0.4850 0.8430 0.2326
vn -0.4922 0.8556 -0.1601
vn 0.2207 0.9044 -0.3651
vn 0.7366 0.6409 0.2162
vn -0.2391 0.7822 0.5753
vn 0.2127 0.6502 0.7294
vn -0.1675 0.8546 -0.4916
vn -0.0888 0.9921 -0.0888
vn 0.3577 0.8552 -0.3751
vn -0.3723 0.9034 0.2129
vn 0.5460 0.8265 -0.1372
vn 0.6160 0.7791 -0.1165
vn 0.6463 0.7556 -0.1067
vn 0.0806 0.8475 0.5246
vn 0.0477 0.8896 0.4543
vn 0.0894 0.8350 0.5429
vn -0.6808 0.7284 0.0768
vn -0.7111 0.6952 0.1052
vn -0.6648 0.7444 0.0625
vn -0.1602 0.8105 -0.5633
vn -0.1760 0.8499 -0.4966
vn -0.1864 0.8747 -0.4474
vn 0.0739 0.9973 -0.0044
vn 0.0768 0.9919 -0.1011
vn 0.0830 0.9939 -0.0727
vn 0.0570 0.9984 -0.0055
vn 0.0940 0.9929 0.0732
vn -0.5961 0.6685 -0.4447
vn -0.5951 0.6761 -0.4344
vn -0.5923 0.6937 -0.4098
vn 0.3624 0.9113 0.1954
vn 0.4445 0.8728 0.2017
vn 0.2688 0.9450 0.1866
vn 0.0634 0.9928 0.1015
vn 0.0767 0.9962 0.0409
vn 0.0941 0.9954 -0.0159
vn -0.0918 0.8868 0.4529
vn -0.0840 0.8760 0.4749
vn -0.1069 0.9065 0.4085
vn 0.1919 0.8917 -0.4099
vn 0.2426 0.8532 -0.4617
vn 0.2562 0.8417 -0.4753
vn 0.4963 0.8550 -0.1507
vn 0.0376 0.9009 0.4325
vn -0.7350 0.6657 0.1287
vn -0.1466 0.7746 -0.6152
vn -0.5989 0.6402 -0.4811
vn 0.5412 0.8149 0.2073
vn 0.1382 0.9902 0.0172
vn -0.0677 0.8516 0.5198
vn 0.1763 0.9022 -0.3937
vn -0.2498 0.7124 0.6558
vn -0.3021 0.6612 0.6867
vn -0.3333 0.6275 0.7036
vn -0.5248 0.6701 -0.5249
vn -0.3810 0.8117 -0.4427
vn -0.5488 0.6403 -0.5374
vn 0.3790 0.5923 -0.7111
vn 0.3692 0.5650 -0.7379
vn 0.3868 0.6146 -0.6875
vn 0.6759 0.7016 0.2256
vn 0.6440 0.7438 0.1792
vn 0.6076 0.7835 0.1303
vn -0.0443 0.9950 0.0896
vn 0.0411 0.9828 0.1801
vn 0.0177 0.9876 0.1559
vn -0.0400 0.9966 0.0714
vn -0.1613 0.9856 0.0505
vn 0.7995 0.5354 -0.2723
vn 0.7991 0.5358 -0.2727
vn 0.7766 0.5583 -0.2919
vn -0.4862 0.8376 0.2490
vn -0.5319 0.7865 0.3138
vn -0.4159 0.8960 0.1555
vn -0.1473 0.9878 -0.0511
vn -0.0865 0.9953 0.0427
vn -0.0581 0.9929 0.1034
vn -0.4175 0.7994 -0.4320
vn -0.4357 0.7879 -0.4351
vn -0.3610 0.8320 -0.4211
vn 0.2119 0.8007 0.5604
vn 0.2166 0.7622 0.6100
vn 0.2174 0.7548 0.6189
vn -0.2008 0.7551 0.6241
vn -0.3550 0.8317 -0.4268
vn 0.3559 0.5290 -0.7704
vn 0.7077 0.6502 0.2762
vn 0.8286 0.5032 -0.2454
vn -0.5891 0.7008 0.4021
vn -0.1317 0.9803 0.1471
vn -0.4901 0.7504 -0.4435
vn 0.2107 0.8088 0.5490
vt 0.071771 0.763135
vt 0.064597 0.757557
vt 0.071535 0.752841
vt 0.063012 0.755522
vt 0.071929 0.769986
vt 0.071545 0.753276
vt 0.057686 0.778910
vt 0.072489 0.794339
vt 0.072216 0.782480
vt 0.072478 0.793859
vt 0.062375 0.780548
vt 0.072284 0.785448
vt 0.057658 0.777689
vt 0.057850 0.786040
vt 0.056223 0.785911
vt 0.062136 0.770155
vt 0.063181 0.762881
vt 0.367098 0.154562
vt 0.364563 0.160492
vt 0.366350 0.163104
vt 0.364006 0.161823
vt 0.366854 0.157350
vt 0.366073 0.166275
vt 0.363795 0.145050
vt 0.368629 0.137057
vt 0.367653 0.148218
vt 0.368949 0.133403
vt 0.365534 0.140399
vt 0.368691 0.136347
vt 0.363727 0.145831
vt 0.364415 0.137963
vt 0.363786 0.139841
vt 0.364448 0.152811
vt 0.364660 0.154348
vt 0.198123 0.791677
vt 0.190855 0.779541
vt 0.198505 0.774720
vt 0.189491 0.767044
vt 0.198807 0.761284
vt 0.198716 0.765326
vt 0.183181 0.768558
vt 0.198242 0.786420
vt 0.198724 0.764973
vt 0.197999 0.797208
vt 0.187605 0.793190
vt 0.197858 0.803470
vt 0.182932 0.779638
vt 0.182768 0.786920
vt 0.181169 0.780761
vt 0.188221 0.765837
vt 0.189063 0.786076
vt 0.240320 0.162507
vt 0.236575 0.158533
vt 0.240320 0.158202
vt 0.235758 0.151901
vt 0.240320 0.138339
vt 0.240320 0.151937
vt 0.232642 0.137823
vt 0.240320 0.138970
vt 0.240320 0.132791
vt 0.240320 0.146153
vt 0.235114 0.152339
vt 0.240320 0.155467
vt 0.232642 0.145662
vt 0.232642 0.145024
vt 0.231779 0.141233
vt 0.235114 0.141467
vt 0.235758 0.159385
s 1
f 13/1/1 4/2/2 3/3/3
f 10/4/4 7/5/5 9/6/6
f 16/7/7 5/8/8 15/9/9
f 11/10/10 2/11/11 1/12/12
f 17/13/13 2/11/14 12/14/15
f 17/13/13 6/15/16 16/7/17
f 5/8/18 12/14/19 11/10/20
f 4/2/21 9/6/22 3/3/23
f 8/16/24 17/13/13 16/7/17
f 10/4/25 14/17/26 17/13/13
f 8/16/27 15/9/28 7/5/29
f 1/12/30 14/17/31 13/1/32
f 13/1/1 14/17/33 4/2/2
f 10/4/4 8/16/34 7/5/5
f 16/7/7 6/15/35 5/8/8
f 11/10/10 12/14/36 2/11/11
f 17/13/13 14/17/26 2/11/14
f 17/13/13 12/14/15 6/15/16
f 5/8/18 6/15/37 12/14/19
f 4/2/21 10/4/38 9/6/22
f 8/16/24 10/4/25 17/13/13
f 10/4/25 4/2/39 14/17/26
f 8/16/27 16/7/40 15/9/28
f 1/12/30 2/11/41 14/17/31
f 30/18/42 21/19/43 20/20/44
f 27/21/45 24/22/46 26/23/47
f 33/24/48 22/25/49 32/26/50
f 28/27/51 19/28/52 18/29/53
f 34/30/54 19/28/55 29/31/56
f 34/30/54 23/32/57 33/24/58
f 22/25/59 29/31/60 28/27/61
f 21/19/62 26/23/63 20/20/64
f 25/33/65 34/30/54 33/24/58
f 27/21/66 31/34/67 34/30/54
f 25/33/68 32/26/69 24/22/70
f 18/29/71 31/34/72 30/18/73
f 30/18/42 31/34/74 21/19/43
f 27/21/45 25/33/75 24/22/46
f 33/24/48 23/32/76 22/25/49
f 28/27/51 29/31/77 19/28/52
f 34/30/54 31/34/67 19/28/55
f 34/30/54 29/31/56 23/32/57
f 22/25/59 23/32/78 29/31/60
f 21/19/62 27/21/79 26/23/63
f 25/33/65 27/21/66 34/30/54
f 27/21/66 21/19/80 31/34/67
f 25/33/68 33/24/81 32/26/69
f 18/29/71 19/28/82 31/34/72
f 47/35/83 38/36/84 37/37/85
f 44/38/86 41/39/87 43/40/88
f 50/41/89 39/42/90 49/43/91
f 45/44/92 36/45/93 35/46/94
f 51/47/95 36/45/96 46/48/97
f 51/47/95 40/49/98 50/41/99
f 39/42/100 46/48/101 45/44/102
f 38/36/103 43/40/104 37/37/105
f 42/50/106 51/47/95 50/41/99
f 44/38/107 48/51/108 51/47/95
f 42/50/109 49/43/110 41/39/111
f 35/46/112 48/51/113 47/35/114
f 47/35/83 48/51/115 38/36/84
f 44/38/86 42/50/116 41/39/87
f 50/41/89 40/49/117 39/42/90
f 45/44/92 46/48/118 36/45/93
f 51/47/95 48/51/108 36/45/96
f 51/47/95 46/48/97 40/49/98
f 39/42/100 40/49/119 46/48/101
f 38/36/103 44/38/120 43/40/104
f 42/50/106 44/38/107 51/47/95
f 44/38/107 38/36/121 48/51/108
f 42/50/109 50/41/122 49/43/110
f 35/46/112 36/45/123 48/51/113
f 64/52/124 55/53/125 54/54/126
f 61/55/127 58/56/128 60/57/129
f 67/58/130 56/59/131 66/60/132
f 62/61/133 53/62/134 52/63/135
f 68/64/136 53/62/137 63/65/138
f 68/64/136 57/66/139 67/58/140
f 56/59/141 63/65/142 62/61/143
f 55/53/144 60/57/145 54/54/146
f 59/67/147 68/64/136 67/58/140
f 61/55/148 65/68/149 68/64/136
f 59/67/150 66/60/151 58/56/152
f 52/63/153 65/68/154 64/52/155
f 64/52/124 65/68/156 55/53/125
f 61/55/127 59/67/157 58/56/128
f 67/58/130 57/66/158 56/59/131
f 62/61/133 63/65/159 53/62/134
f 68/64/136 65/68/149 53/62/137
f 68/64/136 63/65/138 57/66/139
f 56/59/141 57/66/160 63/65/142
f 55/53/144 61/55/161 60/57/145
f 59/67/147 61/55/148 68/64/136
f 61/55/148 55/53/162 65/68/149
f 59/67/150 67/58/163 66/60/151
f 52/63/153 53/62/164 65/68/154
