# Blender 4.2.9 LTS
# www.blender.org
o lava_under_water_corner_00
v -0.500000 0.500000 0.500000
v -0.500000 -0.500000 -0.500000
v -0.500000 0.500000 -0.500000
v 0.500000 -0.500000 0.500000
v 0.500000 0.500000 0.500000
v 0.500000 -0.500000 -0.500000
v 0.500000 0.500000 -0.500000
vn -0.0000 -0.0000 -1.0000
vn 1.0000 -0.0000 -0.0000
vn -0.0000 1.0000 -0.0000
vt 0.101166 0.150772
s 0
f 3/1/1 6/1/1 2/1/1
f 7/1/2 4/1/2 6/1/2
f 3/1/3 5/1/3 7/1/3
f 3/1/1 7/1/1 6/1/1
f 7/1/2 5/1/2 4/1/2
f 3/1/3 1/1/3 5/1/3
