# Blender 4.2.10 LTS
# www.blender.org
o lightning
v 0.050000 0.050000 -1.000000
v -0.050000 0.050000 -1.000000
v -0.050000 0.050000 0.000000
v 0.050000 0.050000 0.000000
v 0.050000 -0.050000 0.000000
v -0.050000 -0.050000 0.000000
v -0.050000 -0.050000 -1.000000
v 0.050000 -0.050000 -1.000000
vn -0.0000 1.0000 -0.0000
vn -0.0000 -0.0000 1.0000
vn -1.0000 -0.0000 -0.0000
vn -0.0000 -1.0000 -0.0000
vn 1.0000 -0.0000 -0.0000
vn -0.0000 -0.0000 -1.0000
vt 0.299110 0.365406
s 1
f 2/1/1 4/1/1 1/1/1
f 4/1/2 6/1/2 5/1/2
f 3/1/3 7/1/3 6/1/3
f 8/1/4 6/1/4 7/1/4
f 1/1/5 5/1/5 8/1/5
f 2/1/6 8/1/6 7/1/6
f 2/1/1 3/1/1 4/1/1
f 4/1/2 3/1/2 6/1/2
f 3/1/3 2/1/3 7/1/3
f 8/1/4 5/1/4 6/1/4
f 1/1/5 4/1/5 5/1/5
f 2/1/6 1/1/6 8/1/6
