# Blender 3.6.2
# www.blender.org
o Plane
v -0.536644 -0.155364 -0.000000
v 0.536644 -0.155364 -0.000000
v -0.536644 1.844636 0.000000
v 0.536644 1.844636 0.000000
v -0.536644 0.844636 0.000000
v 0.536644 0.844636 0.000000
v 0.000000 -0.155364 -0.000000
v 0.000000 1.844636 0.000000
v 0.000000 0.844636 0.000000
v -0.536644 0.344636 -0.000000
v 0.536644 0.344636 -0.000000
v 0.000000 0.344636 -0.000000
v 0.536644 1.344636 0.000000
v -0.536644 1.344636 0.000000
v 0.000000 1.344636 0.000000
v 0.268322 -0.155364 -0.000000
v 0.268322 1.844636 0.000000
v 0.268322 0.844636 0.000000
v 0.268322 0.344636 -0.000000
v 0.268322 1.344636 0.000000
v -0.268322 1.844636 0.000000
v -0.268322 0.844636 0.000000
v -0.268322 -0.155364 -0.000000
v -0.268322 0.344636 -0.000000
v -0.268322 1.344636 0.000000
v 0.536644 1.594636 0.000000
v 0.000000 1.594636 0.000000
v -0.536644 1.594636 0.000000
v 0.268322 1.594636 0.000000
v -0.268322 1.594636 0.000000
v -0.536644 1.094636 0.000000
v 0.536644 1.094636 0.000000
v 0.000000 1.094636 0.000000
v 0.268322 1.094636 0.000000
v -0.268322 1.094636 0.000000
v 0.536644 0.594636 -0.000000
v 0.000000 0.594636 -0.000000
v -0.536644 0.594636 -0.000000
v 0.268322 0.594636 -0.000000
v -0.268322 0.594636 -0.000000
v -0.536644 0.094636 -0.000000
v 0.536644 0.094636 -0.000000
v 0.000000 0.094636 -0.000000
v 0.268322 0.094636 -0.000000
v -0.268322 0.094636 -0.000000
vn -0.0000 -0.0000 1.0000
vt 0.708333 0.208333
s 0
f 26/1/1 17/1/1 29/1/1
f 36/1/1 18/1/1 39/1/1
f 37/1/1 22/1/1 40/1/1
f 27/1/1 21/1/1 30/1/1
f 43/1/1 24/1/1 45/1/1
f 42/1/1 19/1/1 44/1/1
f 33/1/1 25/1/1 35/1/1
f 32/1/1 20/1/1 34/1/1
f 34/1/1 15/1/1 33/1/1
f 44/1/1 12/1/1 43/1/1
f 39/1/1 9/1/1 37/1/1
f 29/1/1 8/1/1 27/1/1
f 35/1/1 14/1/1 31/1/1
f 45/1/1 10/1/1 41/1/1
f 30/1/1 3/1/1 28/1/1
f 40/1/1 5/1/1 38/1/1
f 25/1/1 28/1/1 14/1/1
f 20/1/1 27/1/1 15/1/1
f 15/1/1 30/1/1 25/1/1
f 13/1/1 29/1/1 20/1/1
f 22/1/1 31/1/1 5/1/1
f 18/1/1 33/1/1 9/1/1
f 6/1/1 34/1/1 18/1/1
f 9/1/1 35/1/1 22/1/1
f 24/1/1 38/1/1 10/1/1
f 19/1/1 37/1/1 12/1/1
f 12/1/1 40/1/1 24/1/1
f 11/1/1 39/1/1 19/1/1
f 23/1/1 41/1/1 1/1/1
f 16/1/1 43/1/1 7/1/1
f 2/1/1 44/1/1 16/1/1
f 7/1/1 45/1/1 23/1/1
f 26/1/1 4/1/1 17/1/1
f 36/1/1 6/1/1 18/1/1
f 37/1/1 9/1/1 22/1/1
f 27/1/1 8/1/1 21/1/1
f 43/1/1 12/1/1 24/1/1
f 42/1/1 11/1/1 19/1/1
f 33/1/1 15/1/1 25/1/1
f 32/1/1 13/1/1 20/1/1
f 34/1/1 20/1/1 15/1/1
f 44/1/1 19/1/1 12/1/1
f 39/1/1 18/1/1 9/1/1
f 29/1/1 17/1/1 8/1/1
f 35/1/1 25/1/1 14/1/1
f 45/1/1 24/1/1 10/1/1
f 30/1/1 21/1/1 3/1/1
f 40/1/1 22/1/1 5/1/1
f 25/1/1 30/1/1 28/1/1
f 20/1/1 29/1/1 27/1/1
f 15/1/1 27/1/1 30/1/1
f 13/1/1 26/1/1 29/1/1
f 22/1/1 35/1/1 31/1/1
f 18/1/1 34/1/1 33/1/1
f 6/1/1 32/1/1 34/1/1
f 9/1/1 33/1/1 35/1/1
f 24/1/1 40/1/1 38/1/1
f 19/1/1 39/1/1 37/1/1
f 12/1/1 37/1/1 40/1/1
f 11/1/1 36/1/1 39/1/1
f 23/1/1 45/1/1 41/1/1
f 16/1/1 44/1/1 43/1/1
f 2/1/1 42/1/1 44/1/1
f 7/1/1 43/1/1 45/1/1
