# Blender 3.6.0
# www.blender.org
o slime
v 0.300000 0.300000 -0.500000
v 0.300000 0.500000 -0.300000
v 0.500000 0.300000 -0.300000
v 0.300000 0.399869 -0.473281
v 0.399869 0.300000 -0.473281
v 0.395642 0.395642 -0.447326
v 0.399869 0.473281 -0.300000
v 0.300000 0.473281 -0.399869
v 0.395642 0.447327 -0.395642
v 0.473281 0.300000 -0.399869
v 0.473281 0.399869 -0.300000
v 0.447327 0.395642 -0.395642
v -0.300000 0.300000 -0.500000
v -0.500000 0.300000 -0.300000
v -0.300000 0.500000 -0.300000
v -0.399869 0.300000 -0.473281
v -0.300000 0.399869 -0.473281
v -0.395642 0.395642 -0.447326
v -0.473281 0.399869 -0.300000
v -0.473281 0.300000 -0.399869
v -0.447327 0.395642 -0.395642
v -0.300000 0.473281 -0.399869
v -0.399869 0.473281 -0.300000
v -0.395642 0.447327 -0.395642
v -0.300000 0.300000 0.500000
v -0.300000 0.500000 0.300000
v -0.500000 0.300000 0.300000
v -0.300000 0.399869 0.473281
v -0.399869 0.300000 0.473281
v -0.395642 0.395642 0.447327
v -0.399869 0.473281 0.300000
v -0.300000 0.473281 0.399869
v -0.395642 0.447326 0.395642
v -0.473281 0.300000 0.399869
v -0.473281 0.399869 0.300000
v -0.447327 0.395642 0.395642
v 0.300000 0.300000 0.500000
v 0.500000 0.300000 0.300000
v 0.300000 0.500000 0.300000
v 0.399869 0.300000 0.473281
v 0.300000 0.399869 0.473281
v 0.395642 0.395642 0.447327
v 0.473281 0.399869 0.300000
v 0.473281 0.300000 0.399869
v 0.447327 0.395642 0.395642
v 0.300000 0.473281 0.399869
v 0.399869 0.473281 0.300000
v 0.395642 0.447326 0.395642
v 0.500000 -0.300000 0.300000
v 0.300000 -0.300000 0.500000
v 0.300000 -0.500000 0.300000
v 0.473281 -0.300000 0.399869
v 0.473281 -0.399869 0.300000
v 0.447327 -0.395642 0.395642
v 0.300000 -0.399869 0.473281
v 0.399869 -0.300000 0.473281
v 0.395642 -0.395642 0.447326
v 0.399869 -0.473281 0.300000
v 0.300000 -0.473281 0.399869
v 0.395642 -0.447327 0.395642
v -0.300000 -0.300000 0.500000
v -0.500000 -0.300000 0.300000
v -0.300000 -0.500000 0.300000
v -0.399869 -0.300000 0.473281
v -0.300000 -0.399869 0.473281
v -0.395642 -0.395642 0.447326
v -0.473281 -0.399869 0.300000
v -0.473281 -0.300000 0.399869
v -0.447327 -0.395642 0.395642
v -0.300000 -0.473281 0.399869
v -0.399869 -0.473281 0.300000
v -0.395642 -0.447327 0.395642
v -0.300000 -0.500000 -0.300000
v -0.500000 -0.300000 -0.300000
v -0.300000 -0.300000 -0.500000
v -0.399869 -0.473281 -0.300000
v -0.300000 -0.473281 -0.399869
v -0.395642 -0.447326 -0.395642
v -0.473281 -0.300000 -0.399869
v -0.473281 -0.399869 -0.300000
v -0.447327 -0.395642 -0.395642
v -0.300000 -0.399869 -0.473281
v -0.399869 -0.300000 -0.473281
v -0.395642 -0.395642 -0.447327
v 0.300000 -0.500000 -0.300000
v 0.300000 -0.300000 -0.500000
v 0.500000 -0.300000 -0.300000
v 0.300000 -0.473281 -0.399869
v 0.399869 -0.473281 -0.300000
v 0.395642 -0.447326 -0.395642
v 0.399869 -0.300000 -0.473281
v 0.300000 -0.399869 -0.473281
v 0.395642 -0.395642 -0.447327
v 0.473281 -0.399869 -0.300000
v 0.473281 -0.300000 -0.399869
v 0.447327 -0.395642 -0.395642
vn 0.9835 0.1280 -0.1280
vn 0.9835 -0.1280 0.1280
vn 0.9835 -0.1280 -0.1280
vn 0.1280 -0.9835 -0.1280
vn -0.1280 -0.9835 0.1280
vn -0.1280 -0.9835 -0.1280
vn 0.1280 0.1280 0.9835
vn -0.1280 -0.1280 0.9835
vn 0.1280 -0.1280 0.9835
vn -0.9835 0.1280 0.1280
vn -0.9835 -0.1280 -0.1280
vn -0.9835 -0.1280 0.1280
vn -0.1280 0.9835 -0.1280
vn 0.1280 0.9835 0.1280
vn 0.1280 0.9835 -0.1280
vn 0.1216 0.4916 -0.8623
vn 0.4916 0.1216 -0.8623
vn 0.1280 0.1280 -0.9835
vn 0.4488 0.7727 -0.4488
vn 0.4488 0.4488 -0.7727
vn 0.4916 0.8623 -0.1216
vn 0.1216 0.8623 -0.4916
vn 0.8623 0.4916 -0.1216
vn 0.8623 0.1216 -0.4916
vn 0.7727 0.4488 -0.4488
vn -0.4916 0.1216 -0.8623
vn -0.1216 0.4916 -0.8623
vn -0.1280 0.1280 -0.9835
vn -0.7727 0.4488 -0.4488
vn -0.4488 0.4488 -0.7727
vn -0.8623 0.4916 -0.1216
vn -0.8623 0.1216 -0.4916
vn -0.9835 0.1280 -0.1280
vn -0.4916 0.8623 -0.1216
vn -0.1216 0.8623 -0.4916
vn -0.4488 0.7727 -0.4488
vn -0.1216 0.4916 0.8623
vn -0.4916 0.1216 0.8623
vn -0.1280 0.1280 0.9835
vn -0.4488 0.7727 0.4488
vn -0.4488 0.4488 0.7727
vn -0.4916 0.8623 0.1216
vn -0.1216 0.8623 0.4916
vn -0.1280 0.9835 0.1280
vn -0.8623 0.4916 0.1216
vn -0.8623 0.1216 0.4916
vn -0.7727 0.4488 0.4488
vn 0.4916 0.1216 0.8623
vn 0.1216 0.4916 0.8623
vn 0.7727 0.4488 0.4488
vn 0.4488 0.4488 0.7727
vn 0.8623 0.4916 0.1216
vn 0.8623 0.1216 0.4916
vn 0.9835 0.1280 0.1280
vn 0.4916 0.8623 0.1216
vn 0.1216 0.8623 0.4916
vn 0.4488 0.7727 0.4488
vn 0.8623 -0.1216 0.4916
vn 0.8623 -0.4916 0.1216
vn 0.4488 -0.4488 0.7727
vn 0.7727 -0.4488 0.4488
vn 0.1216 -0.4916 0.8623
vn 0.4916 -0.1216 0.8623
vn 0.1216 -0.8623 0.4916
vn 0.4916 -0.8623 0.1216
vn 0.1280 -0.9835 0.1280
vn 0.4488 -0.7727 0.4488
vn -0.4916 -0.1216 0.8623
vn -0.1216 -0.4916 0.8623
vn -0.7727 -0.4488 0.4488
vn -0.4488 -0.4488 0.7727
vn -0.8623 -0.4916 0.1216
vn -0.8623 -0.1216 0.4916
vn -0.4916 -0.8623 0.1216
vn -0.1216 -0.8623 0.4916
vn -0.4488 -0.7727 0.4488
vn -0.4916 -0.8623 -0.1216
vn -0.1216 -0.8623 -0.4916
vn -0.7727 -0.4488 -0.4488
vn -0.4488 -0.7727 -0.4488
vn -0.8623 -0.1216 -0.4916
vn -0.8623 -0.4916 -0.1216
vn -0.4488 -0.4488 -0.7727
vn -0.1216 -0.4916 -0.8623
vn -0.4916 -0.1216 -0.8623
vn -0.1280 -0.1280 -0.9835
vn 0.1216 -0.8623 -0.4916
vn 0.4916 -0.8623 -0.1216
vn 0.4488 -0.4488 -0.7727
vn 0.4488 -0.7727 -0.4488
vn 0.4916 -0.1216 -0.8623
vn 0.1216 -0.4916 -0.8623
vn 0.1280 -0.1280 -0.9835
vn 0.8623 -0.1216 -0.4916
vn 0.8623 -0.4916 -0.1216
vn 0.7727 -0.4488 -0.4488
vt 0.200000 0.365406
vt 0.200000 0.365406
vt 0.200000 0.365406
vt 0.200000 0.365406
vt 0.200000 0.365406
vt 0.200000 0.365406
s 1
f 3/1/1 49/2/2 87/1/3
f 85/1/4 63/2/5 73/1/6
f 37/1/7 61/2/8 50/1/9
f 27/1/10 74/2/11 62/1/12
f 15/1/13 39/2/14 2/1/15
f 4/3/16 5/4/17 1/1/18
f 4/3/16 9/3/19 6/1/20
f 7/1/21 8/1/22 2/1/15
f 11/1/23 9/3/19 7/1/21
f 10/1/24 11/1/23 3/1/1
f 10/1/24 6/1/20 12/4/25
f 6/1/20 9/3/19 12/4/25
f 16/1/26 17/1/27 13/1/28
f 16/1/26 21/1/29 18/5/30
f 19/3/31 20/4/32 14/1/33
f 23/1/34 21/1/29 19/3/31
f 22/1/35 23/1/34 15/1/13
f 22/1/35 18/5/30 24/4/36
f 18/5/30 21/1/29 24/4/36
f 28/3/37 29/4/38 25/1/39
f 28/3/37 33/1/40 30/1/41
f 31/3/42 32/4/43 26/1/44
f 35/1/45 33/1/40 31/3/42
f 34/1/46 35/1/45 27/1/10
f 34/1/46 30/1/41 36/4/47
f 30/1/41 33/1/40 36/4/47
f 40/1/48 41/1/49 37/1/7
f 40/1/48 45/1/50 42/5/51
f 43/3/52 44/4/53 38/1/54
f 47/1/55 45/1/50 43/3/52
f 46/1/56 47/1/55 39/2/14
f 46/1/56 42/5/51 48/5/57
f 42/5/51 45/1/50 48/5/57
f 52/1/58 53/1/59 49/2/2
f 52/1/58 57/3/60 54/6/61
f 55/1/62 56/1/63 50/1/9
f 59/4/64 57/3/60 55/1/62
f 58/3/65 59/4/64 51/1/66
f 58/3/65 54/6/61 60/3/67
f 54/6/61 57/3/60 60/3/67
f 64/1/68 65/1/69 61/2/8
f 64/1/68 69/3/70 66/6/71
f 67/1/72 68/1/73 62/1/12
f 71/1/74 69/3/70 67/1/72
f 70/1/75 71/1/74 63/2/5
f 70/1/75 66/6/71 72/5/76
f 66/6/71 69/3/70 72/5/76
f 76/1/77 77/1/78 73/1/6
f 76/1/77 81/6/79 78/3/80
f 79/1/81 80/1/82 74/2/11
f 79/1/81 84/4/83 81/6/79
f 82/1/84 83/1/85 75/1/86
f 82/1/84 78/3/80 84/4/83
f 78/3/80 81/6/79 84/4/83
f 88/1/87 89/1/88 85/1/4
f 88/1/87 93/6/89 90/5/90
f 91/1/91 92/1/92 86/2/93
f 95/1/94 93/6/89 91/1/91
f 94/1/95 95/1/94 87/1/3
f 94/1/95 90/5/90 96/4/96
f 90/5/90 93/6/89 96/4/96
f 37/1/7 28/3/37 25/1/39
f 41/1/49 32/4/43 28/3/37
f 46/1/56 26/1/44 32/4/43
f 13/1/28 4/3/16 1/1/18
f 17/1/27 8/1/22 4/3/16
f 22/1/35 2/1/15 8/1/22
f 27/1/10 19/3/31 14/1/33
f 35/1/45 23/1/34 19/3/31
f 31/3/42 15/1/13 23/1/34
f 39/2/14 7/1/21 2/1/15
f 47/1/55 11/1/23 7/1/21
f 43/3/52 3/1/1 11/1/23
f 50/1/9 40/1/48 37/1/7
f 56/1/63 44/4/53 40/1/48
f 52/1/58 38/1/54 44/4/53
f 61/2/8 55/1/62 50/1/9
f 65/1/69 59/4/64 55/1/62
f 70/1/75 51/1/66 59/4/64
f 74/2/11 67/1/72 62/1/12
f 80/1/82 71/1/74 67/1/72
f 76/1/77 63/2/5 71/1/74
f 75/1/86 16/1/26 13/1/28
f 83/1/85 20/4/32 16/1/26
f 79/1/81 14/1/33 20/4/32
f 62/1/12 34/1/46 27/1/10
f 68/1/73 29/4/38 34/1/46
f 64/1/68 25/1/39 29/4/38
f 86/2/93 82/1/84 75/1/86
f 92/1/92 77/1/78 82/1/84
f 88/1/87 73/1/6 77/1/78
f 87/1/3 10/1/24 3/1/1
f 95/1/94 5/4/17 10/1/24
f 91/1/91 1/1/18 5/4/17
f 85/1/4 58/3/65 51/1/66
f 89/1/88 53/1/59 58/3/65
f 94/1/95 49/2/2 53/1/59
f 13/1/28 86/2/93 75/1/86
f 3/1/1 38/1/54 49/2/2
f 85/1/4 51/1/66 63/2/5
f 37/1/7 25/1/39 61/2/8
f 27/1/10 14/1/33 74/2/11
f 15/1/13 26/1/44 39/2/14
f 4/3/16 6/1/20 5/4/17
f 4/3/16 8/1/22 9/3/19
f 7/1/21 9/3/19 8/1/22
f 11/1/23 12/4/25 9/3/19
f 10/1/24 12/4/25 11/1/23
f 10/1/24 5/4/17 6/1/20
f 16/1/26 18/5/30 17/1/27
f 16/1/26 20/4/32 21/1/29
f 19/3/31 21/1/29 20/4/32
f 23/1/34 24/4/36 21/1/29
f 22/1/35 24/4/36 23/1/34
f 22/1/35 17/1/27 18/5/30
f 28/3/37 30/1/41 29/4/38
f 28/3/37 32/4/43 33/1/40
f 31/3/42 33/1/40 32/4/43
f 35/1/45 36/4/47 33/1/40
f 34/1/46 36/4/47 35/1/45
f 34/1/46 29/4/38 30/1/41
f 40/1/48 42/5/51 41/1/49
f 40/1/48 44/4/53 45/1/50
f 43/3/52 45/1/50 44/4/53
f 47/1/55 48/5/57 45/1/50
f 46/1/56 48/5/57 47/1/55
f 46/1/56 41/1/49 42/5/51
f 52/1/58 54/6/61 53/1/59
f 52/1/58 56/1/63 57/3/60
f 55/1/62 57/3/60 56/1/63
f 59/4/64 60/3/67 57/3/60
f 58/3/65 60/3/67 59/4/64
f 58/3/65 53/1/59 54/6/61
f 64/1/68 66/6/71 65/1/69
f 64/1/68 68/1/73 69/3/70
f 67/1/72 69/3/70 68/1/73
f 71/1/74 72/5/76 69/3/70
f 70/1/75 72/5/76 71/1/74
f 70/1/75 65/1/69 66/6/71
f 76/1/77 78/3/80 77/1/78
f 76/1/77 80/1/82 81/6/79
f 79/1/81 81/6/79 80/1/82
f 79/1/81 83/1/85 84/4/83
f 82/1/84 84/4/83 83/1/85
f 82/1/84 77/1/78 78/3/80
f 88/1/87 90/5/90 89/1/88
f 88/1/87 92/1/92 93/6/89
f 91/1/91 93/6/89 92/1/92
f 95/1/94 96/4/96 93/6/89
f 94/1/95 96/4/96 95/1/94
f 94/1/95 89/1/88 90/5/90
f 37/1/7 41/1/49 28/3/37
f 41/1/49 46/1/56 32/4/43
f 46/1/56 39/2/14 26/1/44
f 13/1/28 17/1/27 4/3/16
f 17/1/27 22/1/35 8/1/22
f 22/1/35 15/1/13 2/1/15
f 27/1/10 35/1/45 19/3/31
f 35/1/45 31/3/42 23/1/34
f 31/3/42 26/1/44 15/1/13
f 39/2/14 47/1/55 7/1/21
f 47/1/55 43/3/52 11/1/23
f 43/3/52 38/1/54 3/1/1
f 50/1/9 56/1/63 40/1/48
f 56/1/63 52/1/58 44/4/53
f 52/1/58 49/2/2 38/1/54
f 61/2/8 65/1/69 55/1/62
f 65/1/69 70/1/75 59/4/64
f 70/1/75 63/2/5 51/1/66
f 74/2/11 80/1/82 67/1/72
f 80/1/82 76/1/77 71/1/74
f 76/1/77 73/1/6 63/2/5
f 75/1/86 83/1/85 16/1/26
f 83/1/85 79/1/81 20/4/32
f 79/1/81 74/2/11 14/1/33
f 62/1/12 68/1/73 34/1/46
f 68/1/73 64/1/68 29/4/38
f 64/1/68 61/2/8 25/1/39
f 86/2/93 92/1/92 82/1/84
f 92/1/92 88/1/87 77/1/78
f 88/1/87 85/1/4 73/1/6
f 87/1/3 95/1/94 10/1/24
f 95/1/94 91/1/91 5/4/17
f 91/1/91 86/2/93 1/1/18
f 85/1/4 89/1/88 58/3/65
f 89/1/88 94/1/95 53/1/59
f 94/1/95 87/1/3 49/2/2
f 13/1/28 1/1/18 86/2/93
